<?xml version="1.0" encoding="UTF-8" standalone="no"?>
<svg
   xmlns:dc="http://purl.org/dc/elements/1.1/"
   xmlns:cc="http://creativecommons.org/ns#"
   xmlns:rdf="http://www.w3.org/1999/02/22-rdf-syntax-ns#"
   xmlns:svg="http://www.w3.org/2000/svg"
   xmlns="http://www.w3.org/2000/svg"
   xmlns:sodipodi="http://sodipodi.sourceforge.net/DTD/sodipodi-0.dtd"
   xmlns:inkscape="http://www.inkscape.org/namespaces/inkscape"
   id="SVGRoot"
   version="1.1"
   viewBox="0 0 350 350"
   height="350mm"
   width="350mm"
   inkscape:version="1.0 (4035a4fb49, 2020-05-01)"
   sodipodi:docname="tree.svg">
  <defs
     id="defs3930" />
  <sodipodi:namedview
     id="base"
     pagecolor="#ffffff"
     bordercolor="#666666"
     borderopacity="1.0"
     inkscape:pageopacity="0.0"
     inkscape:pageshadow="2"
     inkscape:zoom="0.35"
     inkscape:cx="400"
     inkscape:cy="560"
     inkscape:document-units="mm"
     inkscape:current-layer="layer1"
     inkscape:document-rotation="0"
     showgrid="false"
     inkscape:window-width="1580"
     inkscape:window-height="1041"
     inkscape:window-x="324"
     inkscape:window-y="0"
     inkscape:window-maximized="0" />
  <metadata
     id="metadata3933">
    <rdf:RDF>
      <cc:Work
         rdf:about="">
        <dc:format>image/svg+xml</dc:format>
        <dc:type
           rdf:resource="http://purl.org/dc/dcmitype/StillImage" />
        <dc:title />
      </cc:Work>
    </rdf:RDF>
  </metadata>
  <g
     inkscape:label="Layer 1"
     inkscape:groupmode="layer"
     id="layer1">
    <path
       style="fill:#000000;stroke-width:0.264583"
       d="m 162.52707,44.483402 c 2.08778,0.408966 3.9331,0.880745 4.10071,1.048358 0.21408,0.214075 0.36282,3.666676 0.49986,11.6028 0.1073,6.213909 0.25821,12.190995 0.33536,13.282401 0.0771,1.091407 0.24865,7.044532 0.38113,13.229167 0.13249,6.184636 0.36687,12.375883 0.52085,13.758333 0.41294,3.707429 0.89973,21.513299 0.70525,25.796879 -0.16779,3.69578 0.25517,22.71006 0.59443,26.72292 l 0.17896,2.11666 1.4552,0.13958 1.45521,0.13958 -1.45521,0.25845 c -1.27376,0.22622 -1.46424,0.34077 -1.52767,0.91875 -0.0588,0.53549 0.11814,0.7507 0.93589,1.13851 1.11083,0.5268 2.0832,0.70082 8.57,1.53371 4.0274,0.5171 4.47679,0.53061 5.22552,0.1571 0.73914,-0.36873 0.81918,-0.36862 0.81918,10e-4 0,0.66213 4.3603,0.36166 4.88877,-0.33689 0.50472,-0.66711 0.50795,-1.43631 0.006,-1.43631 -0.21828,0 -0.39687,0.14458 -0.39687,0.32129 0,0.20024 -0.17126,0.15001 -0.45462,-0.13335 -0.42978,-0.42977 -0.42481,-0.48443 0.0908,-1.00006 0.29999,-0.29999 0.71293,-0.57076 0.91764,-0.6017 0.20471,-0.0309 0.51713,-0.14683 0.69427,-0.25753 0.19419,-0.12134 0.45252,0.008 0.65059,0.32476 0.31812,0.50939 0.36434,0.49665 1.4624,-0.40313 1.10457,-0.90512 1.79444,-1.00957 1.49383,-0.22618 -0.24912,0.64919 0.66998,0.44949 1.36051,-0.29561 0.45302,-0.48882 0.78919,-0.63474 1.17799,-0.51134 0.31707,0.10064 0.54407,0.0548 0.54407,-0.10973 0,-0.66573 0.5014,-0.18734 1.07919,1.02964 0.57674,1.21478 0.65678,1.28143 1.07948,0.8989 0.40363,-0.36529 0.58691,-0.36972 1.58137,-0.0382 l 1.12482,0.37494 0.76865,-0.87545 c 0.61574,-0.70128 0.90082,-0.84228 1.43295,-0.70873 0.62809,0.15764 0.65436,0.12151 0.48206,-0.66296 -0.15795,-0.71911 -0.11001,-0.82969 0.35965,-0.82969 0.40176,0 0.49976,-0.11973 0.37896,-0.46302 -0.133,-0.37798 -0.0975,-0.40228 0.19351,-0.1323 0.46489,0.43136 1.06442,0.42629 0.89793,-0.008 -0.0714,-0.18608 0.0377,-0.56744 0.24247,-0.84748 0.33163,-0.45352 0.48285,-0.47522 1.3841,-0.19862 0.78705,0.24155 1.05934,0.23879 1.22587,-0.0124 0.159,-0.23984 0.28431,-0.2038 0.48698,0.14008 0.38274,0.64942 0.79475,0.57962 1.75484,-0.29729 l 0.83243,-0.7603 0.15234,0.60699 c 0.0838,0.33384 0.0875,0.77597 0.008,0.98249 -0.0793,0.20654 0.0276,0.51803 0.2375,0.69222 0.20988,0.17418 0.32047,0.55045 0.24576,0.83614 -0.0747,0.28569 -0.0181,0.51943 0.1258,0.51943 0.14389,0 0.33778,-0.47625 0.43086,-1.05833 0.15364,-0.96085 0.24206,-1.05833 0.95985,-1.05833 0.65662,1e-5 0.79062,0.10689 0.79062,0.63061 0,0.40809 -0.18673,0.67943 -0.52917,0.76898 -0.72662,0.19002 -0.67064,0.77119 0.0661,0.68668 0.32742,-0.0376 0.8587,0.02 1.18063,0.12801 0.87584,0.29373 2.2032,-0.63092 3.28942,-2.29145 0.0945,-0.1444 0.60017,0.16883 1.1333,0.70196 0.5295,0.5295 1.1823,0.96272 1.45068,0.96272 0.26837,0 0.62481,0.16491 0.79208,0.36647 0.40474,0.48768 4.03381,0.83077 4.74748,0.44883 0.8015,-0.42895 1.36106,-0.0704 1.91812,1.22921 0.66138,1.54294 0.63559,1.97846 -0.15807,2.66853 -0.49936,0.43419 -0.66145,0.83437 -0.66145,1.63297 0,0.7487 -0.14533,1.1486 -0.4973,1.36841 -0.4545,0.28384 -0.33922,0.44913 1.33946,1.92047 1.65954,1.45458 1.82209,1.68481 1.68478,2.38629 -0.16866,0.86163 -0.84657,1.73716 -1.34506,1.73716 -0.17797,0 -0.48694,-0.23974 -0.68659,-0.53276 -0.26052,-0.38235 -0.6876,-0.54427 -1.51281,-0.57353 -0.69302,-0.0246 -1.20458,-0.1835 -1.28767,-0.40004 -0.11069,-0.28844 -0.21598,-0.29443 -0.53416,-0.0304 -0.32595,0.27051 -0.48487,0.21953 -0.89515,-0.28714 -0.27436,-0.33883 -0.49884,-0.84098 -0.49884,-1.1159 0,-0.32347 -0.18673,-0.49986 -0.52916,-0.49986 -0.29105,0 -0.53099,-0.0893 -0.53322,-0.19843 -0.002,-0.10914 -0.10615,-0.35956 -0.23094,-0.55649 -0.35747,-0.56412 -1.35251,0.0954 -1.35251,0.89652 0,0.74232 -0.42132,0.83055 -1.2372,0.25908 -0.49255,-0.34499 -0.57943,-0.34554 -0.71031,-0.004 -0.0845,0.22021 -0.32545,0.32095 -0.55602,0.23247 -0.25641,-0.0984 -0.40689,-0.007 -0.40689,0.247 0,0.22172 -0.12397,0.44446 -0.27549,0.49496 -0.26233,0.0875 0.41075,1.80436 0.70736,1.80436 0.0707,0 0.0698,-0.095 -0.002,-0.21107 -0.0718,-0.11609 -0.0313,-0.37156 0.09,-0.56772 0.33682,-0.54497 1.0484,-0.12549 1.46059,0.86102 0.26653,0.6379 0.66763,1.00068 1.44326,1.30535 0.82948,0.32586 1.07408,0.56291 1.07408,1.04104 0,0.34929 -0.25097,0.77583 -0.57589,0.97874 -0.50353,0.31446 -0.61988,0.29949 -0.92604,-0.11921 -0.19258,-0.26338 -0.35015,-0.57517 -0.35015,-0.69288 0,-0.11771 -0.18035,-0.21402 -0.40077,-0.21402 -0.22042,0 -0.61826,-0.35765 -0.8841,-0.79478 -0.46898,-0.77118 -0.4967,-0.78001 -0.93338,-0.29749 -0.29762,0.32886 -0.99616,0.55908 -2.06244,0.67972 -0.88682,0.10033 -1.78324,0.35326 -1.99205,0.56207 -0.2088,0.20881 -0.60926,0.37965 -0.88991,0.37965 -0.72621,0 -0.63172,0.49609 0.15119,0.79375 0.42165,0.16031 0.9075,0.15794 1.34014,-0.007 0.37327,-0.14192 1.17773,-0.25804 1.78768,-0.25804 0.60995,0 1.49356,-0.11029 1.96359,-0.24509 0.9577,-0.27466 1.36562,0.0348 0.85573,0.64917 -0.25586,0.3083 -0.19716,0.43477 0.30795,0.66348 2.20205,0.99709 2.72921,1.46423 2.92114,2.58853 0.10441,0.61157 0.39055,1.45175 0.63589,1.86707 0.42791,0.7244 0.42307,0.77811 -0.11897,1.32015 -0.31077,0.31078 -0.74362,0.56504 -0.9619,0.56504 -0.65101,0 -0.45142,0.52248 0.3824,1.00103 1.29824,0.74508 1.26632,1.64772 -0.0763,2.15819 -0.96778,0.36795 -0.85633,1.17306 0.17887,1.29203 0.57152,0.0657 0.77843,-0.0421 0.88849,-0.46302 0.17204,-0.6579 1.40467,-0.78533 1.40467,-0.14522 0,0.60691 1.30282,1.01967 2.01515,0.63844 0.59345,-0.31761 1.15985,-0.16359 1.15985,0.3154 0,0.14724 0.53578,1.01853 1.19063,1.93622 1.30137,1.8237 1.38565,2.17648 0.79358,3.32142 -0.50556,0.97764 -0.0821,2.11635 0.78695,2.11635 0.48959,0 0.57821,0.16732 0.63124,1.1919 0.0505,0.97476 -0.0577,1.30259 -0.59396,1.79954 -0.4057,0.37598 -0.57723,0.73453 -0.44995,0.94048 0.22241,0.35987 -1.02836,1.88891 -1.54515,1.88891 -0.1635,0 -0.41044,-0.29766 -0.54875,-0.66146 -0.30291,-0.79671 -0.43398,-0.80863 -1.45521,-0.13229 -1.00666,0.66668 -1.3764,0.66512 -1.58964,-0.007 -0.16577,-0.5223 -0.19022,-0.51894 -0.96417,0.13229 -0.43675,0.3675 -1.03323,0.66818 -1.32553,0.66818 -0.29229,0 -0.90038,0.41672 -1.3513,0.92604 -0.45092,0.50933 -1.03047,0.92604 -1.28789,0.92604 -0.25742,0 -0.76779,0.13658 -1.13416,0.30351 -0.5807,0.26459 -0.73385,0.22217 -1.19427,-0.33073 -0.29048,-0.34883 -0.53211,-0.78306 -0.53695,-0.96496 -0.005,-0.1819 -0.17346,-0.33073 -0.37471,-0.33073 -0.6863,0 -0.33657,1.45489 0.56691,2.35837 0.75328,0.75328 0.85733,1.02931 0.85733,2.27436 0,1.22242 0.079,1.44209 0.57515,1.59957 0.39567,0.12558 0.67913,0.0404 0.90834,-0.27312 0.28772,-0.39346 0.46189,-0.41318 1.27611,-0.14446 0.51861,0.17115 1.12058,0.56482 1.33771,0.87482 0.36114,0.5156 0.34139,0.62096 -0.23185,1.23652 -0.34464,0.37009 -0.76629,1.11031 -0.937,1.64494 -0.26256,0.82233 -0.49798,1.03596 -1.52851,1.3871 -0.90632,0.30882 -1.30915,0.33955 -1.57363,0.12004 -0.28004,-0.23241 -0.35548,-0.16605 -0.35548,0.31266 v 0.60769 l -0.61237,-0.57529 c -0.69152,-0.64965 -1.24501,-0.72874 -1.72699,-0.24677 -0.26163,0.26164 -0.37931,0.24817 -0.57803,-0.0661 -0.13723,-0.21706 -0.25134,-0.28155 -0.25356,-0.1433 -0.002,0.13824 -0.14693,0.10847 -0.32155,-0.0661 -0.24695,-0.24694 -0.24695,-0.38806 0,-0.635 0.52101,-0.52102 0.3894,-1.0639 -0.21167,-0.87313 -0.30356,0.0964 -0.52917,0.0476 -0.52917,-0.11446 0,-0.15533 -0.17859,-0.28241 -0.39687,-0.28241 -0.21828,0 -0.39688,0.17859 -0.39688,0.39687 0,0.21829 -0.17859,0.39688 -0.39687,0.39688 -0.22049,0 -0.39688,0.23518 -0.39688,0.52917 0,0.56019 -0.64082,0.72607 -0.93929,0.24314 -0.0972,-0.15731 -0.46144,-0.21457 -0.80936,-0.12725 -0.39096,0.0981 -0.6326,0.0431 -0.6326,-0.14393 0,-0.19521 -0.28183,-0.24633 -0.79375,-0.14394 -0.65343,0.13068 -0.79375,0.0721 -0.79375,-0.33141 0,-0.64687 0.61229,-1.15975 0.9643,-0.80774 0.17533,0.17534 0.70865,0.12012 1.59039,-0.16465 1.10368,-0.35645 1.38078,-0.57825 1.64895,-1.31986 0.24439,-0.67585 0.54132,-0.95187 1.22795,-1.14146 0.49808,-0.13752 1.12153,-0.19358 1.38543,-0.12457 0.2754,0.072 0.69014,-0.10691 0.97346,-0.41997 0.27149,-0.3 0.65376,-0.54545 0.84949,-0.54545 0.47215,0 0.46752,-1.43004 -0.006,-1.82295 -0.27517,-0.22837 -0.44127,-0.20445 -0.69386,0.0999 -0.18264,0.22007 -0.54943,0.40014 -0.81509,0.40014 -0.42252,0 -0.44811,-0.1001 -0.20437,-0.79928 0.28995,-0.83176 -0.0964,-1.74283 -0.60565,-1.42811 -0.38841,0.24005 -1.02989,-1.54699 -0.69862,-1.9462 0.50259,-0.60563 0.0469,-0.60351 -1.07368,0.005 -0.73503,0.39915 -1.09957,0.7763 -1.10103,1.13912 -0.005,1.18166 -0.95397,1.3461 -1.93618,0.33541 -0.26334,-0.27097 -0.60052,-0.41744 -0.7493,-0.32549 -0.15978,0.0987 0.009,0.45943 0.41349,0.88112 l 0.68399,0.71394 -0.54217,0.58194 c -0.36982,0.39696 -0.73005,0.5348 -1.13323,0.4336 -0.48769,-0.1224 -0.64751,0.008 -0.91388,0.7444 -0.47206,1.30547 -0.41607,3.02566 0.10803,3.31896 0.29458,0.16485 0.33642,0.29948 0.1323,0.42564 -0.16421,0.10148 -0.29857,0.42554 -0.29857,0.72012 0,0.70916 -0.63608,0.49018 -0.746,-0.25683 -0.096,-0.65216 -0.52079,-0.76412 -0.73925,-0.19482 -0.12132,0.31616 -0.2861,0.29418 -0.98388,-0.1313 -0.46099,-0.28109 -1.19605,-0.51152 -1.63347,-0.51206 -0.63244,-7.9e-4 -0.86878,-0.16699 -1.15414,-0.81166 -0.24482,-0.55308 -0.48768,-0.76123 -0.76431,-0.65508 -0.22301,0.0856 -0.62335,-0.0416 -0.88965,-0.28258 -0.4551,-0.41186 -0.49894,-0.39934 -0.73001,0.20843 -0.30134,0.79259 -2.08674,2.40328 -2.42929,2.19157 -0.51905,-0.32079 -0.15223,0.77848 0.74785,2.24111 0.0388,0.0631 0.2073,-0.0221 0.37444,-0.18923 0.22879,-0.22879 0.38991,-0.19174 0.65202,0.14993 0.30498,0.39756 0.38106,0.40462 0.6137,0.0569 0.14606,-0.21828 0.27237,-0.87313 0.2807,-1.45521 l 0.0151,-1.05833 0.507,0.92603 c 0.27884,0.50932 0.51197,0.77721 0.51807,0.59531 0.0187,-0.55777 0.54026,-0.36621 0.54026,0.19844 0,0.29104 0.12609,0.52917 0.2802,0.52917 0.15411,0 0.20661,-0.11907 0.11667,-0.26459 -0.0899,-0.14552 -0.0434,-0.26458 0.10353,-0.26458 0.14688,0 0.38462,0.20836 0.52831,0.46302 0.20925,0.37086 0.32773,0.39719 0.59523,0.13229 0.44855,-0.44419 0.75731,-0.41722 0.75731,0.0661 0,0.46942 0.12765,0.48877 0.81114,0.12298 0.69277,-0.37076 0.68954,-1.1411 -0.004,-0.92103 -0.59389,0.1885 -1.72586,-0.77031 -1.44532,-1.22423 0.1174,-0.18995 0.24758,-0.16576 0.39544,0.0735 0.12124,0.19616 0.37425,0.36933 0.56224,0.38482 0.188,0.0155 0.55017,0.0463 0.80484,0.0685 0.32687,0.0285 0.46302,0.26909 0.46302,0.81843 0,0.97641 0.23463,1.12148 1.31338,0.8121 0.78454,-0.225 0.84747,-0.20029 0.72106,0.28312 -0.11052,0.42264 -0.036,0.50072 0.36873,0.38648 0.27898,-0.0787 0.74537,-0.21072 1.03641,-0.29329 0.40694,-0.11544 0.52917,-0.0238 0.52917,0.39688 0,0.32411 0.17181,0.547 0.42164,0.547 0.23191,0 0.48392,0.23812 0.56003,0.52916 0.18564,0.7099 1.37573,0.69992 2.28994,-0.0192 l 0.69714,-0.54836 v 0.54837 c 0,0.3016 0.11906,0.54837 0.26458,0.54837 0.14552,0 0.26459,0.17859 0.26459,0.39687 0,0.51358 0.23917,0.50189 0.83906,-0.041 0.45023,-0.40746 0.48385,-0.40746 0.48385,0 0,0.52594 1.05464,0.5988 1.55095,0.10715 0.26768,-0.26517 0.48515,-0.14716 1.09704,0.59531 0.67788,0.82254 0.82351,0.88908 1.30297,0.59532 0.72331,-0.44318 1.32407,-0.41738 1.50911,0.0648 0.15893,0.41419 1.21458,0.36316 3.30899,-0.15995 0.53012,-0.13241 1.1552,-0.16732 1.38907,-0.0776 0.65154,0.25002 0.51612,1.0847 -0.20537,1.26578 -0.79715,0.20007 -2.27984,1.56846 -2.27984,2.10409 0,0.52317 0.47655,0.65418 2.99611,0.82369 1.13854,0.0766 2.19925,0.21909 2.35713,0.31667 0.15788,0.0976 0.92563,0.21283 1.70612,0.25613 1.73937,0.0965 1.93647,0.20953 1.93648,1.11049 1e-5,0.70865 0.91217,1.65025 2.33118,2.4064 0.33626,0.17919 0.56393,0.46656 0.50594,0.63861 -0.1015,0.30111 0.524,0.94851 0.93319,0.96586 0.10914,0.005 0.20026,-0.25948 0.20248,-0.5869 0.003,-0.40898 0.0715,-0.48899 0.21959,-0.25562 0.26519,0.41793 1.09928,0.13871 1.09928,-0.368 0,-0.20271 0.10061,-0.36857 0.22357,-0.36857 0.35069,0 1.09935,0.92571 1.09935,1.35933 0,0.21539 0.16498,0.61724 0.36662,0.893 0.42989,0.58792 0.11732,1.58285 -0.71319,2.27014 -0.32388,0.26801 -0.45199,0.60511 -0.35197,0.92604 0.21148,0.67849 -0.0867,1.08746 -0.95112,1.30441 -0.60735,0.15243 -0.76827,0.0707 -1.04168,-0.52941 -0.17785,-0.39034 -0.79308,-0.94933 -1.36718,-1.24222 -0.88695,-0.45249 -1.13757,-0.48234 -1.66765,-0.19865 -0.34311,0.18363 -0.62383,0.49234 -0.62383,0.68603 0,0.19369 -0.11293,0.35217 -0.25096,0.35217 -0.48941,0 -1.53852,1.20942 -2.2215,2.56096 -0.38087,0.75369 -0.78737,1.42898 -0.90335,1.50066 -0.11597,0.0717 -0.49934,-0.0873 -0.85192,-0.35323 -0.48739,-0.36763 -0.63445,-0.71685 -0.61347,-1.45678 0.0255,-0.89947 -0.0205,-0.96118 -0.60609,-0.81419 -0.34852,0.0875 -1.06968,-0.0231 -1.60257,-0.24579 -0.53289,-0.22266 -1.0258,-0.34792 -1.09535,-0.27837 -0.0695,0.0695 -0.3417,0.0113 -0.60477,-0.12954 -0.28362,-0.15179 -0.53882,-0.15811 -0.62694,-0.0155 -0.21517,0.34816 -1.16821,0.0373 -1.54802,-0.50498 -0.17897,-0.25553 -0.56228,-0.51346 -0.8518,-0.57319 -0.37833,-0.078 -0.50756,-0.29159 -0.45944,-0.7592 0.049,-0.47582 0.002,-0.55009 -0.17476,-0.27645 -0.13293,0.20579 -0.17725,0.77134 -0.0985,1.25677 0.16808,1.03576 0.0477,1.07463 -0.97846,0.31595 l -0.76644,-0.56665 -0.84047,0.70721 c -0.54467,0.45831 -1.01611,0.65147 -1.33952,0.54882 -0.55333,-0.17562 -0.64312,0.17201 -0.2393,0.92655 0.19288,0.36041 0.15883,0.52405 -0.13229,0.63576 -0.51063,0.19595 -0.50809,1.46204 0.003,1.65828 0.21745,0.0834 0.32447,0.26642 0.23782,0.40661 -0.0866,0.1402 -0.32408,0.19099 -0.52764,0.11287 -0.51651,-0.1982 -0.46219,0.20779 0.0929,0.6945 0.92921,0.81473 2.13261,1.26035 2.95787,1.0953 0.63018,-0.12604 0.81245,-0.0695 0.81245,0.25184 0,0.53734 0.33032,0.73198 0.77541,0.4569 0.28862,-0.17838 0.27421,-0.33119 -0.0788,-0.83516 -0.51767,-0.73908 -0.54589,-1.02669 -0.10132,-1.03283 0.1819,-0.002 0.61144,-0.30051 0.95453,-0.66221 0.4671,-0.49243 0.58049,-0.83022 0.45138,-1.34465 l -0.17243,-0.68702 0.73925,0.51242 c 0.40659,0.28183 0.94761,0.58759 1.20227,0.67946 0.60798,0.21934 0.58574,0.75002 -0.0662,1.57877 -0.70945,0.90193 -0.67008,1.26521 0.26459,2.44134 1.05014,1.32143 1.10534,2.92233 0.13229,3.83646 -0.3638,0.34178 -0.66146,0.76998 -0.66146,0.95158 0,0.18159 0.5323,0.78591 1.18288,1.34294 1.23103,1.054 1.62791,2.10392 0.93379,2.47029 -0.21828,0.11521 -1.15207,0.42971 -2.07507,0.69889 -1.30158,0.37959 -1.76328,0.65271 -2.05732,1.21703 -0.48616,0.93303 -0.75168,0.91788 -1.15928,-0.0662 -0.18083,-0.43656 -0.42538,-0.79375 -0.54344,-0.79375 -0.11806,0 -0.29403,-0.25011 -0.39105,-0.5558 -0.2815,-0.8869 -0.75185,-0.15771 -0.91086,1.41212 -0.13122,1.29545 -0.20836,1.41529 -1.37415,2.13487 -1.69865,1.04848 -2.41138,0.83059 -2.29098,-0.70038 0.0609,-0.77428 -0.0114,-1.08059 -0.24421,-1.03403 -0.1819,0.0364 -0.47955,0.0959 -0.66146,0.13229 -0.1819,0.0364 -0.33072,-0.10869 -0.33072,-0.32236 0,-0.2458 0.41305,-0.4702 1.12447,-0.61089 1.20578,-0.23845 1.55296,-0.92247 0.59532,-1.1729 -0.32617,-0.0853 -0.52917,-0.3609 -0.52917,-0.71841 0,-0.31902 -0.15509,-0.79213 -0.34465,-1.05137 -0.28117,-0.38452 -0.39409,-0.40602 -0.61305,-0.11672 -0.53215,0.7031 -1.09301,2.56475 -0.96866,3.21524 0.0928,0.48544 -0.0226,0.74451 -0.42852,0.96173 -0.75479,0.40395 -1.57349,-0.0557 -1.93224,-1.08476 -0.19734,-0.56611 -0.35805,-0.71179 -0.56117,-0.50867 -0.15655,0.15655 -0.52276,0.28463 -0.8138,0.28463 -0.41158,0 -0.45861,0.0706 -0.21167,0.3175 0.17463,0.17463 0.3175,0.57511 0.3175,0.88996 0,0.31486 0.30916,0.88162 0.68702,1.25948 0.37786,0.37786 0.63413,0.84058 0.56951,1.02827 -0.0646,0.18768 0.162,0.75584 0.50361,1.26256 0.36943,0.54799 0.62111,1.3118 0.62111,1.88497 0,0.53 0.17331,1.45487 0.38514,2.05524 l 0.38514,1.0916 h -0.89869 c -1.23766,0 -1.35932,0.37824 -0.39735,1.23536 0.6303,0.5616 0.79776,0.90967 0.73686,1.53164 -0.0719,0.73456 -0.16489,0.80654 -1.06422,0.82388 -0.57716,0.0111 -1.21732,0.22889 -1.54519,0.52561 -0.30789,0.27863 -0.74705,0.50821 -0.97591,0.51016 -0.27077,0.002 -0.5166,0.41059 -0.70376,1.16878 -0.4642,1.88043 -1.72624,2.15492 -1.7388,0.37818 -0.002,-0.31529 -0.14019,-0.61864 -0.30658,-0.6741 -0.22497,-0.075 -0.2264,-0.24308 -0.006,-0.65572 0.37117,-0.69354 0.024,-1.02041 -1.27693,-1.20219 -0.65188,-0.0911 -1.02162,-0.004 -1.25694,0.29749 -0.30143,0.38563 -0.38186,0.36945 -0.83866,-0.16877 -0.57569,-0.67831 -0.87483,-0.72911 -1.60571,-0.27267 -0.4427,0.27647 -0.62751,0.21643 -1.29132,-0.41955 l -0.77469,-0.74219 -0.31852,0.96512 c -0.19563,0.59277 -0.55882,1.05649 -0.94137,1.20193 -0.34257,0.13025 -0.81021,0.59911 -1.03919,1.04193 -0.52097,1.00744 -1.3081,1.04747 -2.17629,0.11067 l -0.64359,-0.69445 0.0841,1.02181 c 0.074,0.8988 0.22287,1.09815 1.23687,1.65593 1.29969,0.71492 1.68847,1.43275 2.14776,3.96561 0.26477,1.4601 0.24832,1.74076 -0.12623,2.15464 -0.28402,0.31383 -0.3347,0.53518 -0.14884,0.65004 0.44,0.27194 0.33258,0.59712 -0.24735,0.74878 -0.56352,0.14736 -0.67142,0.61185 -0.28421,1.22355 0.19419,0.30678 0.38059,0.25323 1.03482,-0.29727 0.5917,-0.49788 0.72093,-0.74849 0.49993,-0.96949 -0.221,-0.221 -0.21108,-0.29804 0.0384,-0.29804 0.18502,0 0.51499,-0.17859 0.73327,-0.39687 0.25074,-0.25074 0.90211,-0.39688 1.76897,-0.39688 1.34507,0 1.38638,0.0237 2.09777,1.20141 0.83722,1.38608 0.89427,1.87792 0.29469,2.54045 -0.41435,0.45786 -0.45675,0.45595 -1.09916,-0.0494 -0.60003,-0.47198 -0.71338,-0.4847 -1.11121,-0.12467 -0.56597,0.5122 -1.49087,0.51687 -1.68595,0.009 -0.15471,-0.40316 -0.96436,-0.27378 -0.96436,0.1541 0,0.12883 0.35289,0.54866 0.7842,0.93296 0.63862,0.56902 0.73414,0.79228 0.51451,1.20267 -0.42238,0.78922 -0.0493,1.54098 0.76964,1.55068 0.97167,0.0115 1.53308,0.49809 2.14075,1.85537 0.36912,0.82444 0.44321,1.28732 0.26066,1.62841 -0.30936,0.57804 -1.18006,0.62794 -1.39044,0.0797 -0.30083,-0.78394 -0.93629,-0.37138 -1.6049,1.04194 -0.37437,0.79136 -0.68067,1.68433 -0.68067,1.98438 0,0.74105 -0.67067,0.69269 -1.46932,-0.10596 -0.43294,-0.43294 -1.2056,-0.76032 -2.30308,-0.97581 -1.99671,-0.39207 -2.31302,-0.60372 -2.31302,-1.54769 0,-1.42574 -1.47686,-1.7037 -1.63823,-0.30833 -0.0717,0.61993 -0.19814,0.70521 -1.04554,0.70521 -0.54494,0 -1.18556,0.20036 -1.47372,0.46092 -0.48524,0.43876 -0.53429,0.43714 -1.0204,-0.0337 -0.28086,-0.27204 -0.71785,-0.74734 -0.97108,-1.05623 -0.63763,-0.77776 -1.47207,-0.72816 -1.67988,0.0998 -0.17765,0.70782 -0.62633,0.82783 -1.44896,0.38757 -0.37903,-0.20285 -0.51406,-0.56314 -0.52058,-1.38906 l -0.009,-1.11517 -0.52036,0.62462 c -0.61048,0.7328 -0.66798,1.43703 -0.15227,1.86503 0.60976,0.50606 0.67822,1.88799 0.12111,2.4451 -1.1298,1.1298 -0.003,2.1703 1.50347,1.38861 0.80861,-0.41951 2.4076,-0.0113 1.70253,0.43465 -0.21336,0.13494 -0.66573,0.24717 -1.00527,0.24939 -0.3765,0.002 -0.57336,0.13309 -0.50458,0.33478 0.12286,0.36025 1.23345,0.29989 1.63787,-0.089 0.13825,-0.13294 0.4727,-0.2417 0.74322,-0.2417 0.27053,0 0.41828,-0.11907 0.32835,-0.26459 -0.3215,-0.52018 1.4173,-0.38624 1.97303,0.15199 0.56527,0.54747 -0.001,1.05985 -0.73661,0.66627 -1.25264,-0.67039 -1.13569,-0.0309 0.15264,0.83473 1.23612,0.83052 2.86902,1.12555 3.08691,0.55774 0.18685,-0.48693 1.04632,-0.2603 1.77454,0.46791 0.43921,0.43921 0.48585,0.74278 0.33713,2.19434 -0.16004,1.56211 -0.13167,1.69759 0.3902,1.86323 0.79851,0.25344 0.75312,1.9016 -0.0987,3.58254 -0.3638,0.71793 -0.66146,1.49162 -0.66146,1.7193 0,0.55966 -0.7897,0.8298 -1.08098,0.36978 -0.12861,-0.20311 -0.23696,-0.84554 -0.24079,-1.42762 -0.0105,-1.59895 -0.30275,-3.05106 -0.57957,-2.87997 -0.13547,0.0837 -0.17451,0.4791 -0.0868,0.87863 0.10731,0.48856 0.0257,0.83744 -0.24909,1.06554 -0.22475,0.18652 -0.40864,0.50813 -0.40864,0.71468 0,0.20654 -0.2322,0.62477 -0.516,0.9294 -0.2838,0.30462 -0.59267,0.90297 -0.68639,1.32967 -0.0937,0.4267 -0.33704,1.09522 -0.54071,1.4856 -0.20367,0.39038 -0.37104,0.95856 -0.37194,1.26263 -0.002,0.65048 -1.36732,1.43548 -1.54897,0.89053 -0.0585,-0.17539 -0.33227,-0.54487 -0.60846,-0.82105 -0.38796,-0.38796 -0.61717,-0.44061 -1.00787,-0.23152 -0.69464,0.37177 -0.75004,0.3573 -1.42642,-0.37253 -0.32784,-0.35374 -0.90631,-0.72104 -1.28548,-0.81621 -0.58863,-0.14773 -0.78915,-0.0262 -1.37173,0.8311 l -0.68232,1.00412 1.14998,0.71577 c 0.96971,0.60356 1.46704,1.31357 1.48437,2.11912 0.002,0.0924 -0.28669,0.35822 -0.6415,0.59069 -0.6018,0.39432 -0.71701,0.38431 -1.71653,-0.14921 -0.5893,-0.31454 -1.14966,-0.49368 -1.24527,-0.39807 -0.0956,0.0956 -0.23037,0.80152 -0.29949,1.5687 -0.0994,1.10277 -0.28527,1.54413 -0.88777,2.10757 -0.45731,0.42768 -0.76207,0.98473 -0.76207,1.39295 0,0.86172 -1.48091,1.88408 -2.04772,1.41367 -0.64222,-0.533 -1.02332,0.16693 -0.65121,1.196 0.49397,1.36605 0.38336,2.02249 -0.47608,2.82532 -0.43656,0.40781 -0.79375,0.97766 -0.79375,1.26634 0,0.58543 -1.03676,1.37949 -1.80111,1.37949 -0.2913,0 -0.69255,-0.36347 -0.97,-0.87868 -0.38459,-0.71413 -0.4148,-0.9878 -0.16131,-1.46145 0.252,-0.47087 0.23364,-0.66103 -0.0956,-0.99028 -0.54884,-0.54884 -0.94073,-0.2499 -0.94073,0.71759 0,0.90311 -0.41388,1.81907 -0.82195,1.81907 -0.1508,0 -0.45277,-0.17859 -0.67105,-0.39688 -0.76201,-0.762 -1.12065,-0.47403 -1.20515,0.96769 -0.0754,1.28724 -0.1381,1.39464 -1.10595,1.89556 -1.13127,0.58549 -1.68681,0.43797 -2.14562,-0.56978 -0.34181,-0.7508 -0.56952,-0.72495 -0.77351,0.0878 -0.11838,0.47166 -0.34507,0.66146 -0.79003,0.66146 -0.54362,0 -1.4761,-0.70635 -1.27986,-0.9695 0.0387,-0.0519 -0.12323,-0.38996 -0.3599,-0.75116 -0.30567,-0.46651 -0.38056,-0.94471 -0.25853,-1.65085 0.0945,-0.54676 0.26598,-1.70849 0.3811,-2.58161 0.11513,-0.87313 0.25931,-1.75902 0.32041,-1.96866 0.0651,-0.22342 -0.10791,-0.42428 -0.41808,-0.48534 -0.29104,-0.0573 -0.66885,-0.28298 -0.83957,-0.50151 -0.3595,-0.46017 -0.18485,-1.99232 0.34773,-3.05062 0.41633,-0.8273 0.47255,-1.9626 0.10833,-2.18769 -0.13816,-0.0854 -0.32603,0.29453 -0.41749,0.84428 -0.23847,1.43357 -0.35396,1.71427 -0.63406,1.54116 -0.13649,-0.0844 -0.32295,-0.0324 -0.41436,0.11552 -0.0914,0.14789 -0.4416,0.2689 -0.77821,0.2689 -0.5098,0 -0.6404,-0.17741 -0.78186,-1.06206 -0.0934,-0.58413 -0.41698,-1.3092 -0.71905,-1.61128 l -0.54923,-0.54922 -0.59774,0.56155 c -0.42296,0.39735 -0.99235,0.57838 -1.94723,0.61909 -1.604,0.0684 -2.20271,-0.33164 -1.70032,-1.13609 0.17826,-0.28544 0.3241,-0.70572 0.3241,-0.93396 0,-0.43268 1.91643,-3.40596 2.37997,-3.69245 0.76287,-0.47148 -0.0357,-3.55522 -1.06306,-4.10505 -0.82698,-0.44259 -1.24658,0.0279 -0.83348,0.93453 0.17068,0.3746 0.31032,0.71509 0.31032,0.75665 0,0.0416 -0.47519,0.45743 -1.05597,0.92416 -0.87464,0.70288 -1.14725,0.79976 -1.5875,0.56414 -0.29234,-0.15645 -0.53153,-0.41111 -0.53153,-0.5659 0,-0.15478 -0.18775,-0.67709 -0.41723,-1.16067 -0.31642,-0.6668 -0.34821,-1.00822 -0.13157,-1.413 0.18887,-0.3529 0.19576,-0.5893 0.0203,-0.69771 -0.47749,-0.2951 -0.28933,-1.42416 0.2889,-1.73363 0.30482,-0.16313 0.84175,-0.92468 1.1932,-1.69235 l 0.639,-1.39575 1.50322,-0.15515 c 2.12129,-0.21893 3.62626,-1.50414 2.76725,-2.36316 -0.18619,-0.18618 -0.51278,-0.008 -1.03575,0.56434 -0.75937,0.83141 -0.76659,0.83319 -1.24351,0.30621 -0.26669,-0.29469 -0.49334,-0.97337 -0.51042,-1.52842 -0.0216,-0.70133 -0.17532,-1.05739 -0.51672,-1.19677 -0.2673,-0.10913 -0.61753,-0.5469 -0.7783,-0.97282 -0.37002,-0.98029 -1.27179,-1.42124 -2.19147,-1.07158 -1.68974,0.64244 -2.49736,0.10145 -2.49736,-1.67287 0,-1.08631 0.78508,-2.17608 1.74038,-2.41585 0.6436,-0.16153 0.68295,-0.25775 0.58028,-1.4188 -0.0606,-0.68503 -0.20352,-1.45387 -0.31766,-1.70853 -0.16054,-0.35818 -0.0843,-0.46302 0.33679,-0.46302 0.29939,0 0.63954,-0.15781 0.75592,-0.35068 0.11637,-0.19288 0.41994,-0.42726 0.6746,-0.52086 0.29895,-0.10988 0.46302,-0.44885 0.46302,-0.95662 0,-0.96568 0.4394,-1.28541 0.99836,-0.72646 0.34816,0.34816 0.36445,0.53683 0.097,1.12383 -0.37671,0.82678 -0.21746,1.11618 0.35347,0.64235 0.2218,-0.18408 0.40327,-0.6818 0.40327,-1.10605 0,-0.64612 0.0967,-0.759 0.59531,-0.69521 0.6055,0.0775 0.7276,-0.0372 0.7276,-0.68321 0,-0.51453 -2.15919,-1.06097 -3.32678,-0.84193 -0.75374,0.1414 -1.06498,0.0755 -1.41299,-0.2993 -0.77495,-0.83456 -0.83722,-1.38712 -0.2795,-2.48033 0.29267,-0.57367 0.41739,-1.04303 0.27716,-1.04303 -0.46479,0 -1.07872,1.16288 -1.07872,2.04325 v 0.86717 h -1.59009 c -1.26267,0 -1.68338,0.10896 -2.04317,0.52916 -0.61324,0.71622 -0.87508,0.67266 -2.04714,-0.3405 l -1.00606,-0.86968 0.43961,-0.85012 c 0.24178,-0.46756 0.55561,-0.85011 0.6974,-0.85011 0.14178,0 0.25779,-0.27385 0.25779,-0.60854 0,-0.3347 0.14584,-0.75439 0.3241,-0.93265 0.25575,-0.25575 0.25575,-0.43356 0,-0.84308 -0.17826,-0.28543 -0.3241,-0.74025 -0.3241,-1.01072 0,-0.56434 0.78818,-1.36704 1.34375,-1.3685 0.20682,-5.3e-4 0.76135,-0.23593 1.2323,-0.52307 l 0.85625,-0.52207 0.40052,0.77451 c 0.22028,0.42598 0.40051,1.24864 0.40051,1.82815 0,0.85403 -0.11056,1.08873 -0.58361,1.23887 -0.32307,0.10254 -0.62262,0.0682 -0.671,-0.0769 -0.0481,-0.14419 -0.27141,-0.48741 -0.49632,-0.76271 -0.35892,-0.43932 -0.39113,-0.44391 -0.26335,-0.0375 0.0934,0.29687 0.006,0.46302 -0.24298,0.46302 -0.21371,0 -0.38857,0.17859 -0.38857,0.39687 0,0.21828 0.11906,0.39688 0.26458,0.39688 0.14552,0 0.26458,0.41366 0.26458,0.91925 0,0.75034 0.14344,0.99341 0.78062,1.32291 1.04903,0.54248 1.07147,0.53259 1.07147,-0.4718 0,-0.48151 0.17481,-1.10659 0.38846,-1.38906 0.21365,-0.28248 0.39224,-0.84102 0.39687,-1.2412 0.005,-0.46663 0.15077,-0.7276 0.40529,-0.7276 0.25106,0 0.40523,0.26734 0.41962,0.7276 l 0.0228,0.72761 0.24256,-0.79375 c 0.13341,-0.43657 0.17149,-1.12917 0.0846,-1.53913 -0.17368,-0.81972 0.45737,-1.76817 1.17647,-1.76817 0.31338,0 0.33615,-0.0726 0.0975,-0.31124 -0.23861,-0.23861 -0.43621,-0.19817 -0.84667,0.1733 -0.66542,0.6022 -0.70706,0.17562 -0.11404,-1.16849 0.38574,-0.87431 0.51441,-0.95561 1.52135,-0.96137 2.85064,-0.0163 3.87809,-0.5154 3.87809,-1.88381 0,-0.68733 0.4638,-0.82452 0.70067,-0.20726 0.11943,0.31125 0.23864,0.33412 0.52086,0.0999 0.28361,-0.23538 0.36597,-0.21539 0.36597,0.0888 0,0.32865 0.19192,0.34865 1.1788,0.12282 0.98846,-0.22619 1.20555,-0.39151 1.34442,-1.02383 0.17846,-0.81248 0.98964,-1.40888 1.5985,-1.17523 0.22527,0.0864 0.3762,0.51296 0.3762,1.06309 0,1.09638 0.39048,1.4389 0.78979,0.69279 0.37156,-0.69428 1.65993,-0.71719 2.1545,-0.0383 0.44273,0.60771 2.05696,0.96637 2.20226,0.48931 0.0546,-0.17937 0.1687,-0.72564 0.25348,-1.21394 0.12806,-0.7375 0.083,-0.86049 -0.26627,-0.72647 -0.23123,0.0887 -0.71812,0.23604 -1.08197,0.32737 -0.63059,0.15827 -0.6573,0.11797 -0.57073,-0.86103 0.0884,-0.99922 0.0693,-1.02493 -0.70293,-0.94832 -0.43657,0.0433 -1.12314,0.20739 -1.52573,0.36463 -0.40258,0.15725 -1.13268,0.22088 -1.62243,0.14141 -0.51683,-0.0839 -1.02143,-0.0148 -1.20262,0.16452 -0.23869,0.2363 -0.48559,0.0973 -1.049,-0.59058 l -0.73684,-0.89962 -1.09924,0.61781 c -0.65902,0.37039 -1.07261,0.78365 -1.03274,1.03191 0.0683,0.42549 -0.12042,0.4542 -0.92567,0.14081 -0.32365,-0.12596 -0.46303,-0.0522 -0.46303,0.24498 0,0.24262 -0.21772,0.42518 -0.50709,0.42518 -0.27891,0 -0.74492,0.32647 -1.03558,0.72548 l -0.52847,0.72548 -0.90355,-0.93035 c -1.1407,-1.17454 -1.98963,-1.29205 -2.20807,-0.30566 -0.2952,1.33301 -1.03274,2.94066 -1.74838,3.81101 l -0.71439,0.86883 -0.58883,-0.58248 c -0.58295,-0.57668 -0.58407,-0.59303 -0.11221,-1.63942 0.47016,-1.04262 0.42039,-1.87914 -0.11179,-1.87914 -0.15009,0 -0.27289,0.17196 -0.27289,0.38212 0,1.00837 -3.21079,3.22389 -3.53944,2.44231 -0.0846,-0.20124 -0.3121,-0.10448 -0.645,0.27435 -0.48906,0.55655 -0.53496,0.56238 -0.93628,0.11892 -0.34975,-0.38646 -0.37272,-0.64525 -0.13416,-1.51128 0.15832,-0.57473 0.49549,-1.34262 0.74927,-1.70642 0.25378,-0.3638 0.57477,-1.01014 0.71332,-1.43631 0.29108,-0.89532 1.14235,-1.54013 1.33482,-1.01109 0.1973,0.54232 0.60082,0.3772 0.88135,-0.36065 0.20906,-0.54987 0.39726,-0.66568 0.91949,-0.56585 0.79953,0.15284 0.83544,-0.0864 0.11132,-0.74176 -0.41116,-0.37209 -0.59507,-0.41301 -0.74755,-0.16631 -0.11122,0.17997 -0.82891,0.40143 -1.59486,0.49215 -0.79547,0.0942 -1.45142,0.31812 -1.52972,0.52217 -0.2101,0.54751 -0.58938,0.4266 -0.91693,-0.2923 -0.35202,-0.7726 0.13877,-2.26088 0.74557,-2.26088 0.2921,0 0.31202,-0.11598 0.0909,-0.52917 -0.20122,-0.37597 -0.20122,-0.68236 0,-1.05833 0.38579,-0.72086 0.91361,-0.66433 1.56829,0.16797 0.48699,0.6191 0.54837,0.63866 0.54837,0.17476 0,-0.60827 0.98958,-1.13648 2.12912,-1.13648 0.51613,0 0.7813,-0.13394 0.7813,-0.39464 0,-0.21705 0.23813,-0.54334 0.52917,-0.7251 0.29104,-0.18176 0.53295,-0.56972 0.53758,-0.86214 0.0113,-0.71396 0.48873,-1.29081 1.44632,-1.74751 0.4879,-0.23269 0.79347,-0.58076 0.79375,-0.90416 2.7e-4,-0.4037 0.20756,-0.54563 0.8921,-0.6111 1.08089,-0.10338 3.62121,-2.45677 3.367,-3.11923 -0.0852,-0.22202 0.0528,-0.68348 0.30677,-1.02545 l 0.46169,-0.62178 0.56402,0.69829 c 0.48434,0.59963 0.62411,0.64843 0.98928,0.34537 0.23388,-0.19411 0.35677,-0.46372 0.27309,-0.59912 -0.0837,-0.13541 -0.007,-0.42104 0.17031,-0.63475 0.3665,-0.44161 1.046,-0.0672 1.046,0.57642 0,0.43268 0.5713,0.4811 0.97016,0.0822 0.19993,-0.19993 0.74128,-0.18742 1.85631,0.0429 1.47844,0.30537 1.65337,0.28635 2.87953,-0.31307 0.718,-0.35101 1.34515,-0.72749 1.39366,-0.83663 0.0485,-0.10914 0.46522,-0.20026 0.92604,-0.20249 1.07966,-0.005 1.57539,-0.32972 1.45693,-0.9537 -0.14164,-0.74606 -1.45386,-0.79674 -2.40583,-0.0929 -0.74742,0.55259 -0.83216,0.56038 -1.8303,0.1683 -0.57563,-0.22611 -1.23488,-0.33886 -1.46501,-0.25055 -0.24817,0.0952 -0.5667,-0.0422 -0.78284,-0.3378 -0.20043,-0.2741 -0.62062,-0.50181 -0.93377,-0.50601 -0.40493,-0.005 -0.63211,-0.23687 -0.78668,-0.80139 -0.11952,-0.43657 -0.1621,-0.94258 -0.0946,-1.12448 0.0675,-0.18191 -0.0559,-0.33073 -0.27416,-0.33073 -0.21828,0 -0.45857,0.20836 -0.53398,0.46302 -0.0754,0.25466 -0.37576,0.91451 -0.66745,1.46633 -0.32421,0.61333 -0.46259,1.21683 -0.356,1.55265 0.12522,0.39454 0.0733,0.5158 -0.18414,0.43028 -0.19717,-0.0655 -0.47277,-0.46652 -0.61246,-0.89119 -0.13968,-0.42468 -0.29824,-0.83148 -0.35236,-0.90401 -0.18758,-0.25141 -0.84888,0.89727 -0.84888,1.4745 0,0.67163 -0.77386,0.9779 -1.3619,0.539 -0.21674,-0.16177 -0.55523,-0.66166 -0.7522,-1.11086 -0.19697,-0.44921 -0.60165,-0.92546 -0.8993,-1.05834 -0.29766,-0.13287 -0.61059,-0.53925 -0.6954,-0.90305 -0.14197,-0.60893 -0.25441,-0.65419 -1.41584,-0.56995 -1.10538,0.0802 -1.27994,0.0215 -1.40942,-0.47361 -0.0813,-0.31082 -0.48182,-0.73787 -0.89009,-0.949 -0.49133,-0.25407 -0.7707,-0.63069 -0.82627,-1.11388 -0.0605,-0.52565 -0.2321,-0.73002 -0.61312,-0.73002 -0.42396,0 -0.53378,0.18412 -0.55235,0.92604 -0.0128,0.50933 -0.0425,1.07487 -0.0661,1.25677 -0.0524,0.40317 -1.7909,0.4487 -2.03527,0.0533 -0.11652,-0.18852 -0.29537,-0.1746 -0.55807,0.0434 -0.30698,0.25477 -0.46972,0.23773 -0.79021,-0.0828 -0.36176,-0.36176 -0.54054,-0.27024 -1.72415,0.88263 -1.83346,1.78584 -2.91498,1.66257 -3.57937,-0.408 l -0.24649,-0.7682 -1.12688,1.20228 c -1.42737,1.5229 -2.05167,1.45745 -2.30649,-0.24181 -0.13857,-0.9241 -0.31814,-1.23555 -0.82303,-1.42751 -0.8378,-0.31853 -0.77375,-0.33306 -1.37451,0.31178 -0.28557,0.30652 -0.6444,0.47993 -0.79742,0.38536 -0.3576,-0.221 -0.0752,-2.56827 0.35218,-2.92704 0.17335,-0.14552 0.39625,-0.48049 0.49534,-0.74437 0.0991,-0.26389 0.29819,-0.40686 0.44242,-0.31771 0.38057,0.2352 2.17695,-1.65468 2.71805,-2.85952 0.55215,-1.22944 0.55302,-1.23751 0.1323,-1.23873 -0.37241,-0.001 -0.47487,-2.55486 -0.1242,-3.09573 0.11359,-0.17521 0.13286,-0.61207 0.0428,-0.97081 -0.13124,-0.52291 -0.0148,-0.74493 0.58721,-1.1196 0.41301,-0.25705 0.92952,-0.66951 1.1478,-0.91658 0.46383,-0.52501 2.09214,-0.86602 2.60001,-0.54451 0.19307,0.12223 0.31214,0.44027 0.26458,0.70675 -0.0633,0.35469 0.12622,0.52979 0.70729,0.65349 0.43656,0.0929 1.06869,0.31667 1.40472,0.49719 0.49595,0.26643 0.60017,0.26263 0.55358,-0.0202 -0.0991,-0.60169 0.31831,-1.24724 0.70943,-1.09715 0.20623,0.0791 0.37497,0.0121 0.37497,-0.149 0,-0.16109 -0.23812,-0.29289 -0.52916,-0.29289 -0.29104,0 -0.52917,-0.15948 -0.52917,-0.3544 0,-0.4732 -1.25696,-1.02511 -1.88249,-0.82658 -0.28781,0.0914 -0.49876,0.0318 -0.49876,-0.14074 0,-0.16447 -0.25682,-0.26179 -0.57072,-0.21627 -0.31389,0.0455 -0.62147,-0.066 -0.6835,-0.24795 -0.062,-0.1819 0.0809,-0.33073 0.31773,-0.33073 0.23679,0 0.4112,-0.14883 0.38757,-0.33073 -0.15226,-1.1726 0.55837,-1.36295 1.23471,-0.33073 0.23837,0.36381 0.59831,0.66146 0.79985,0.66146 0.42134,0 0.47737,-0.30913 0.12229,-0.67468 -0.40106,-0.4129 -0.42587,-2.67325 -0.0345,-3.14479 0.47736,-0.57519 0.11999,-0.87187 -0.54784,-0.4548 -0.38341,0.23944 -0.63505,0.25525 -0.87629,0.055 -0.18614,-0.15447 -0.92289,-0.31568 -1.63723,-0.35823 -0.71434,-0.0426 -1.44021,-0.16477 -1.61305,-0.27158 -0.74698,-0.46166 -2.77342,0.57713 -3.43806,1.76242 -0.53002,0.94521 -0.42498,1.31322 0.32135,1.1259 0.39226,-0.0984 0.66146,-0.0525 0.66146,0.11292 0,0.4636 -0.83232,1.58323 -1.17696,1.58323 -0.17729,0 -0.33351,0.14883 -0.34715,0.33073 -0.0302,0.40296 -0.82919,2.52809 -0.84553,2.24896 -0.006,-0.10914 -0.24973,0.0397 -0.54078,0.33073 -0.65945,0.65945 -1.2415,0.66657 -2.21153,0.027 -0.70647,-0.46577 -0.80541,-0.47046 -1.50108,-0.0712 -0.69074,0.39643 -0.78134,0.39434 -1.24889,-0.0288 -0.27727,-0.25092 -0.74279,-0.45622 -1.0345,-0.45622 -0.29171,0 -0.60477,-0.0744 -0.69567,-0.16529 -0.0909,-0.0909 -1.06326,-0.20801 -2.16077,-0.26023 -1.97407,-0.0939 -1.99547,-0.0879 -1.99547,0.56217 0,0.84222 -0.52924,0.84048 -1.32292,-0.004 -0.7259,-0.77268 -1.22626,-0.83095 -1.89996,-0.22125 -0.4202,0.38028 -0.57656,0.39197 -1.14843,0.0859 -0.4987,-0.2669 -0.61981,-0.4897 -0.49096,-0.90323 0.32371,-1.0389 0.89341,-1.60824 2.01661,-2.01532 1.02786,-0.37252 1.12613,-0.48768 1.12892,-1.32291 0.002,-0.50318 0.098,-1.0637 0.21405,-1.24561 0.11605,-0.1819 0.15319,-0.42427 0.0825,-0.53861 -0.0707,-0.11434 0.42832,-0.24931 1.10886,-0.29995 1.91156,-0.14221 2.47654,-0.10434 3.6186,0.24257 0.80433,0.24432 1.24358,0.24877 1.83016,0.0185 0.76345,-0.29967 0.76583,-0.30715 0.21938,-0.68989 -0.30384,-0.21282 -0.63085,-0.74398 -0.7267,-1.18036 -0.1393,-0.63425 -0.31275,-0.79343 -0.86459,-0.79343 h -0.69032 l 0.57905,-0.53947 c 0.31849,-0.29671 0.58443,-0.68366 0.59099,-0.8599 0.007,-0.17623 0.1554,-0.0228 0.33073,0.34104 0.34424,0.71424 1.24484,0.97409 1.24484,0.35917 0,-0.20668 0.16785,-0.44019 0.373,-0.51891 0.20515,-0.0787 0.44554,-0.43217 0.5342,-0.78545 0.12716,-0.50663 0.33388,-0.64231 0.97861,-0.64231 0.75836,0 0.80456,0.0526 0.6398,0.7276 -0.0977,0.40019 -0.47072,1.37354 -0.82901,2.16301 -0.68796,1.51591 -0.56146,2.1523 0.32842,1.65216 0.29431,-0.16541 0.48852,-0.57075 0.48852,-1.0196 0,-0.67808 0.0948,-0.75276 1.05498,-0.8309 0.58024,-0.0472 1.19472,-0.20184 1.36551,-0.34358 0.20375,-0.1691 0.37098,-0.15991 0.48633,0.0267 0.0967,0.15645 0.31564,0.26251 0.48657,0.2357 0.17093,-0.0268 0.51048,0.039 0.75456,0.1462 0.77756,0.34157 1.67289,0.0695 1.67289,-0.50836 0,-0.34242 -0.15278,-0.50417 -0.43292,-0.45833 -0.659,0.10782 -0.82405,-0.67817 -0.21128,-1.00612 0.70499,-0.3773 0.4037,-0.78451 -0.58045,-0.78451 -0.6747,0 -0.7836,-0.091 -0.71198,-0.59531 0.11539,-0.81249 1.081,-0.9139 1.7602,-0.18485 0.501,0.53776 0.57148,0.54686 1.14167,0.14748 1.07292,-0.7515 1.28371,-0.56072 1.28371,1.16185 0,0.87312 0.11533,1.5875 0.25629,1.5875 0.14095,0 0.18029,-0.20836 0.0874,-0.46302 -0.15253,-0.41825 -0.11383,-0.41473 0.40022,0.0365 0.43046,0.37788 0.65558,0.42774 0.92428,0.20474 0.26174,-0.21723 0.43546,-0.21456 0.66017,0.0101 0.23022,0.23022 0.43617,0.1862 0.84037,-0.17959 0.35798,-0.32397 0.53542,-0.37254 0.53542,-0.14656 0,0.26843 0.0806,0.27109 0.39166,0.0129 0.30015,-0.2491 0.77927,-0.25861 2.05052,-0.0407 1.6363,0.28047 2.66937,0.16842 4.25577,-0.46158 0.40966,-0.16268 1.09801,-0.29579 1.52966,-0.29579 0.43166,0 0.8459,-0.15914 0.92054,-0.35364 0.0875,-0.22815 0.4367,-0.31485 0.98388,-0.24431 3.24196,0.4179 3.83395,0.3903 4.43081,-0.20655 0.44109,-0.44109 1.00414,-0.61834 2.29279,-0.72178 1.27826,-0.10261 1.78532,-0.26073 2.01489,-0.62833 0.16872,-0.27018 0.45673,-0.49122 0.64,-0.49122 0.18328,0 0.33323,-0.11907 0.33323,-0.26459 0,-0.14552 0.12133,-0.26458 0.26963,-0.26458 0.15598,0 0.20314,0.30667 0.11189,0.7276 l -0.15773,0.72761 0.82863,-0.88028 c 0.6829,-0.72546 0.89761,-0.82302 1.2209,-0.55471 0.31675,0.26288 0.64931,0.20517 1.72728,-0.29972 1.24617,-0.58367 1.32461,-0.67726 1.17881,-1.40628 -0.14877,-0.74387 -0.13311,-0.76009 0.32959,-0.34136 0.65534,0.59307 0.7233,0.5688 1.12537,-0.40188 0.82003,-1.97973 0.16409,-7.96778 -0.77043,-7.03325 -0.23386,0.23386 -0.30962,0.18389 -0.31573,-0.20825 -0.007,-0.4773 -0.0282,-0.48126 -0.27773,-0.0529 -0.4106,0.70495 -2.00188,0.57802 -3.56566,-0.28442 l -1.3379,-0.73786 -0.44804,0.59398 c -0.24642,0.32671 -0.44805,0.72043 -0.44805,0.87496 0,0.53745 -0.54386,0.27673 -0.79375,-0.3805 -0.36701,-0.96533 -1.43706,-0.9011 -1.88604,0.11321 -0.1886,0.42607 -0.42671,0.72287 -0.52914,0.65956 -0.10243,-0.0633 -0.46412,-0.0126 -0.80376,0.11264 -2.30501,0.85007 -2.62308,0.51427 -1.14668,-1.21057 0.50932,-0.59503 0.92604,-1.21178 0.92604,-1.37054 0,-0.15877 0.12609,-0.28867 0.2802,-0.28867 0.15411,0 0.20182,-0.12682 0.10602,-0.28182 -0.11416,-0.18472 -0.34573,-0.12656 -0.67211,0.1688 -0.41637,0.37682 -0.56654,0.39369 -0.91678,0.10302 -0.26224,-0.21764 -0.36266,-0.57147 -0.26858,-0.94634 0.15575,-0.62052 -0.3116,-1.16089 -0.60885,-0.704 -0.0929,0.14275 -0.91725,0.32569 -1.83196,0.40654 -0.91471,0.0808 -1.94341,0.33066 -2.28599,0.55513 -0.34259,0.22447 -1.24477,0.49063 -2.00483,0.59145 -1.31607,0.17459 -1.3736,0.15708 -1.20716,-0.36735 0.0961,-0.30287 0.0269,-0.78739 -0.15374,-1.07672 -0.30377,-0.48641 -0.35392,-0.49264 -0.66562,-0.0827 -0.18541,0.24384 -0.34789,0.68148 -0.36108,0.97252 -0.0222,0.4897 -0.0472,0.49499 -0.33475,0.071 -0.27972,-0.41242 -0.35088,-0.37468 -0.71205,0.37765 -0.52233,1.08805 -0.9804,1.21216 -1.36428,0.36963 -0.17004,-0.37319 -0.58847,-0.86154 -0.92984,-1.08522 -0.56101,-0.36758 -0.62068,-0.36644 -0.62068,0.0119 0,0.23023 -0.10953,0.3509 -0.2434,0.26816 -0.13387,-0.0827 -0.49769,0.17286 -0.8085,0.56799 -0.49601,0.63057 -0.63072,0.67743 -1.10177,0.38326 -0.29516,-0.18434 -0.85507,-0.26522 -1.24424,-0.17974 -0.61807,0.13575 -0.76959,0.029 -1.19789,-0.84376 -0.98802,-2.0134 -1.18373,-2.29513 -1.73631,-2.49954 -0.44917,-0.16616 -0.62355,-0.0764 -0.85999,0.44249 -0.23756,0.52138 -0.42751,0.61805 -0.95452,0.48578 -0.36187,-0.0908 -0.90083,-0.17785 -1.19769,-0.19339 -0.81348,-0.0426 -1.0919,-1.36601 -0.42722,-2.03069 0.82426,-0.82427 2.89236,-0.52093 2.89236,0.42423 0,0.65561 1.2329,0.43995 2.12072,-0.37094 l 0.83047,-0.75851 -0.68185,-0.53634 c -0.75909,-0.59711 -0.83158,-1.06685 -0.3641,-2.35963 0.33591,-0.92894 0.68961,-1.08841 1.22551,-0.55251 0.2585,0.2585 0.35822,0.20361 0.48065,-0.26459 0.085,-0.32491 0.34896,-0.59451 0.58665,-0.59911 0.85478,-0.0165 1.80655,-1.17628 1.99463,-2.43047 0.21165,-1.4114 0.99234,-2.30921 1.58226,-1.81962 0.21198,0.17593 0.66931,0.23901 1.04648,0.14434 0.59523,-0.14939 0.63813,-0.23797 0.38465,-0.7943 -0.4449,-0.97645 0.32398,-1.97075 1.52396,-1.97075 0.56743,0 0.98555,-0.14935 1.07568,-0.38421 0.21088,-0.54955 -0.13701,-1.02589 -0.51833,-0.70967 -0.20808,0.17255 -0.54998,0.0458 -1.05982,-0.39288 -0.61468,-0.5289 -0.69362,-0.71875 -0.43063,-1.03564 0.25332,-0.30523 0.25175,-0.4727 -0.007,-0.78489 -0.45819,-0.55208 -0.79375,-0.4952 -0.79375,0.13453 0,0.41899 -0.0979,0.48183 -0.46302,0.29706 -1.20307,-0.6089 -2.44041,-0.85083 -2.95179,-0.57714 -0.32793,0.1755 -0.5801,0.18499 -0.67865,0.0255 -0.0863,-0.13956 -0.34882,-0.18007 -0.58349,-0.09 -0.2537,0.0974 -0.56659,-0.0276 -0.77185,-0.30835 -0.29854,-0.40829 -0.2308,-0.61497 0.50128,-1.52941 1.02322,-1.2781 1.65634,-1.55297 2.53135,-1.09901 0.36214,0.18788 0.76148,0.27791 0.88743,0.20007 0.12595,-0.0778 0.40644,0.006 0.6233,0.18572 0.47732,0.39613 1.60542,-0.0977 1.78876,-0.78298 0.0958,-0.35795 0.11845,-0.35194 0.14432,0.0383 0.0299,0.45109 0.32772,0.60696 0.61357,0.32111 0.24903,-0.24903 -0.52007,-2.10705 -0.87219,-2.10705 -0.18618,0 -0.43726,0.38109 -0.55796,0.84687 -0.39022,1.50591 -0.77461,1.31105 -0.68801,-0.34878 0.0725,-1.39039 0.14228,-1.54917 0.74153,-1.68833 0.47341,-0.10993 0.68526,-0.35748 0.74518,-0.87074 0.0642,-0.55032 0.22692,-0.71715 0.6993,-0.71715 0.62024,0 0.93678,0.44128 0.93678,1.30592 0,0.2579 0.2876,0.77923 0.63912,1.15852 0.35152,0.3793 0.81646,0.94281 1.03321,1.25226 l 0.39408,0.56263 0.17519,-0.55196 c 0.14401,-0.45375 0.26715,-0.50275 0.69205,-0.27535 0.66829,0.35766 0.95462,0.16253 1.16465,-0.7937 0.20241,-0.92159 -0.18816,-1.76353 -0.92686,-1.99799 -0.69611,-0.22093 -0.41374,-0.66033 0.42435,-0.66033 0.3921,0 0.71147,0.18549 0.79723,0.46303 0.29304,0.94833 0.57931,1.25763 1.19369,1.28974 1.5876,0.083 2.91639,0.46677 3.15415,0.91103 0.37332,0.69756 0.31693,0.83111 -0.27201,0.64419 -0.45946,-0.14583 -0.49786,-0.0888 -0.29969,0.44519 0.12502,0.33685 0.44709,0.61276 0.71572,0.61315 0.3237,5.2e-4 0.57152,0.29045 0.73484,0.85989 0.13552,0.47256 0.34451,0.8592 0.46442,0.8592 0.1199,0 0.14154,0.19926 0.0481,0.44281 -0.13101,0.34141 -0.0636,0.402 0.29453,0.26458 0.25544,-0.098 0.57377,-0.17822 0.70739,-0.17822 0.13362,0 0.24294,-0.1786 0.24294,-0.39688 0,-0.72739 0.74911,-0.40871 0.92533,0.39365 0.27302,1.24305 3.02708,3.03582 3.67235,2.39055 0.18449,-0.18449 0.15925,-0.27066 -0.0792,-0.27066 -0.28102,0 -0.28506,-0.0781 -0.0205,-0.39687 0.1823,-0.21965 0.75907,-0.39688 1.29167,-0.39688 0.66082,0 1.06122,-0.1584 1.27806,-0.50563 0.25423,-0.40709 0.24078,-0.53442 -0.069,-0.65331 -0.21164,-0.0812 -0.58528,-0.56805 -0.8303,-1.08186 -0.46524,-0.97562 -1.04992,-1.21542 -1.31013,-0.53732 -0.1583,0.41254 -0.80824,0.51295 -1.52925,0.23628 -0.52586,-0.2018 -0.53224,-0.55722 -0.0192,-1.07026 0.21962,-0.21962 0.31815,-0.53063 0.21895,-0.69114 -0.11512,-0.18627 -0.24015,-0.12141 -0.34563,0.17927 -0.15093,0.43028 -0.19588,0.43421 -0.51862,0.0453 -0.24967,-0.30082 -0.44925,-0.34622 -0.68004,-0.15468 -0.48231,0.40028 -1.13606,-0.42491 -0.69014,-0.87111 0.47519,-0.47548 4.68972,-0.49598 5.08084,-0.0247 0.64409,0.77608 2.59742,0.0541 2.25659,-0.83412 -0.1836,-0.47846 -0.18656,-9.95806 -0.004,-12.02839 0.0835,-0.94588 -0.0331,-3.38997 -0.25906,-5.43131 -0.25964,-2.34512 -0.51636,-8.72529 -0.69733,-17.33021 -0.38082,-18.1075 -0.69403,-26.22582 -1.43903,-37.298899 -0.22028,-3.274216 -0.40369,-7.26281 -0.40757,-8.863539 -0.004,-1.600729 -0.12057,-3.327136 -0.25932,-3.836458 -0.60501,-2.220836 -1.38703,-9.848877 -1.57324,-15.345834 -0.16404,-4.84214 -0.36148,-6.891285 -1.05796,-10.980209 -0.47096,-2.764896 -1.00279,-5.890287 -1.18185,-6.945313 l -0.32556,-1.918229 0.67557,0.02275 c 0.37155,0.0127 2.38373,0.357479 4.47151,0.766472 z m 56.92592,106.911678 c 0,0.13693 0.11906,0.24897 0.26459,0.24897 0.14552,0 0.26458,-0.18562 0.26458,-0.41249 0,-0.22687 -0.11906,-0.33891 -0.26458,-0.24897 -0.14553,0.0899 -0.26459,0.27556 -0.26459,0.41249 z m -11.64166,-0.2802 c 0,0.14552 0.17859,0.26458 0.39687,0.26458 0.21828,0 0.39688,-0.11906 0.39688,-0.26458 0,-0.14552 -0.1786,-0.26458 -0.39688,-0.26458 -0.21828,0 -0.39687,0.11906 -0.39687,0.26458 z m -1.5875,0.65215 c 0,0.0676 0.23812,0.25042 0.52916,0.40618 0.42236,0.22604 0.52917,0.20122 0.52917,-0.12298 0,-0.22979 -0.2298,-0.40618 -0.52917,-0.40618 -0.29104,0 -0.52916,0.0553 -0.52916,0.12298 z m 15.45056,2.98036 c 0.26895,0.26895 0.49087,-0.13597 0.2702,-0.49302 -0.1667,-0.26972 -0.22902,-0.26993 -0.31864,-0.001 -0.0613,0.18383 -0.0395,0.40617 0.0484,0.49409 z m -2.48598,-0.0282 c 0,0.58676 0.0613,0.64302 0.39687,0.36448 0.21829,-0.18116 0.39688,-0.49339 0.39688,-0.69385 0,-0.20047 -0.17859,-0.36448 -0.39688,-0.36448 -0.25188,0 -0.39687,0.25348 -0.39687,0.69385 z m -8.8419,-0.26867 c -0.66072,0.25354 -0.49759,0.89773 0.22732,0.89773 0.76958,0 1.15839,-0.49399 0.64483,-0.81928 -0.44164,-0.27973 -0.36549,-0.27288 -0.87215,-0.0785 z m -11.53102,0.22066 c 0,0.0642 0.11906,0.19026 0.26459,0.2802 0.14552,0.0899 0.26458,0.0374 0.26458,-0.11668 0,-0.15411 -0.11906,-0.2802 -0.26458,-0.2802 -0.14553,0 -0.26459,0.0525 -0.26459,0.11668 z m 28.20474,2.08831 c -0.11814,0.49177 -0.0854,0.69125 0.0951,0.57969 0.15136,-0.0935 0.27519,-0.48055 0.27519,-0.86001 0,-0.82936 -0.12673,-0.73341 -0.37026,0.28032 z m -57.57349,0.87179 c 0,0.63058 0.16276,0.96046 0.58551,1.18671 l 0.58551,0.31336 -0.58551,0.21659 c -0.53317,0.19723 -0.58551,0.39442 -0.58551,2.20595 v 1.98935 l 0.99219,0.43345 c 0.5457,0.23839 1.48949,0.41013 2.0973,0.38163 0.88183,-0.0413 1.16495,0.06 1.4013,0.50161 0.1629,0.30438 0.22398,0.67025 0.13573,0.81304 -0.27035,0.43745 0.99336,0.73724 3.33112,0.79022 2.90532,0.0659 2.82883,0.0788 3.01614,-0.51134 0.22188,-0.69909 2.66985,-2.23756 3.22275,-2.02539 0.39862,0.15296 0.3955,0.19779 -0.0357,0.51309 -0.45061,0.3295 -0.45108,0.37816 -0.0102,1.05106 0.57552,0.87836 0.85865,0.8884 1.24333,0.0441 0.36672,-0.80484 0.72506,-0.82961 1.63597,-0.11309 0.38343,0.30161 0.69715,0.43182 0.69715,0.28936 0,-0.14246 0.22595,-0.19993 0.50211,-0.12771 0.27617,0.0722 0.76143,-0.007 1.07836,-0.17709 0.51522,-0.27573 0.54989,-0.25724 0.32739,0.17465 -0.2735,0.53088 -0.14973,1.14451 0.23085,1.14451 0.13339,0 0.24254,-0.21163 0.24254,-0.4703 0,-0.25866 0.17389,-0.71857 0.38644,-1.02201 0.35147,-0.50181 0.32857,-0.60608 -0.25311,-1.15254 -0.61582,-0.57854 -0.62384,-0.63141 -0.2162,-1.42539 0.23284,-0.4535 0.67416,-1.07212 0.98071,-1.3747 0.30655,-0.30258 0.78682,-0.8346 1.06727,-1.18226 0.30137,-0.3736 0.55199,-0.50586 0.61281,-0.3234 0.0771,0.23134 0.26591,0.23445 0.75321,0.0124 0.66404,-0.30256 1.09016,-1.2749 0.7792,-1.77804 -0.17655,-0.28566 -3.89968,-0.40207 -4.17134,-0.13042 -0.37244,0.37244 -7.88494,0.12909 -12.639,-0.40941 -2.83765,-0.32143 -5.20741,-0.63092 -5.26612,-0.68777 -0.0587,-0.0569 -0.56473,-0.0854 -1.12448,-0.0635 -0.96698,0.0379 -1.01773,0.0834 -1.01773,0.91325 z m 36.13771,2.91422 c -0.21752,0.56685 -0.144,0.608 0.59023,0.3304 0.33677,-0.12733 0.5381,-0.35157 0.4474,-0.49832 -0.25479,-0.41228 -0.85208,-0.31562 -1.03763,0.16792 z m 12.81021,0.4913 c 0,0.22048 0.23518,0.39687 0.52917,0.39687 0.5856,0 0.71691,-0.40931 0.19843,-0.61852 -0.57575,-0.23232 -0.7276,-0.18606 -0.7276,0.22165 z m -15.875,0.39687 c 0,0.14552 0.11906,0.26458 0.26458,0.26458 0.14552,0 0.26459,-0.11906 0.26459,-0.26458 0,-0.14552 -0.11907,-0.26458 -0.26459,-0.26458 -0.14552,0 -0.26458,0.11906 -0.26458,0.26458 z m -1.97308,0.28287 c 0.19648,0.3179 0.91475,0.32086 0.91475,0.004 0,-0.28673 -0.57425,-0.52922 -0.86422,-0.36494 -0.11151,0.0632 -0.13425,0.22571 -0.0505,0.36118 z m 17.5835,0.62756 c 0,0.27926 0.50776,0.39658 0.65879,0.15222 0.0914,-0.14789 -0.0194,-0.2689 -0.2463,-0.2689 -0.22687,0 -0.41249,0.0525 -0.41249,0.11668 z m -3.45698,0.76552 c 0.22896,0.22895 0.36561,0.20657 0.55353,-0.0907 0.40568,-0.64169 0.29516,-0.83025 -0.29996,-0.51175 -0.41992,0.22473 -0.48252,0.37345 -0.25357,0.60241 z m -21.94302,2.83721 c 0,0.99309 0.11906,1.8792 0.26458,1.96913 0.14552,0.0899 0.26458,0.0412 0.26458,-0.10837 0,-0.14954 0.14883,-0.2164 0.33073,-0.14856 0.19754,0.0737 0.62677,-0.47449 1.06587,-1.36118 0.58203,-1.17534 0.66978,-1.56326 0.42132,-1.86264 -0.21772,-0.26234 -0.39828,-0.29368 -0.58962,-0.10234 -0.38635,0.38635 -0.69913,0.34326 -0.69913,-0.0963 0,-0.24185 -0.18525,-0.32367 -0.52917,-0.23373 -0.46395,0.12133 -0.52916,0.3609 -0.52916,1.94399 z m 7.67291,-1.36647 c 0,0.12996 0.18833,0.30855 0.41852,0.39688 0.64724,0.24837 0.73276,0.19452 0.37523,-0.23628 -0.36503,-0.43984 -0.79375,-0.52658 -0.79375,-0.1606 z m -2.04472,1.28508 c 0.10547,0.44098 0.12034,0.44098 0.31229,0 0.11085,-0.25466 0.11085,-0.67138 0,-0.92604 -0.19195,-0.44097 -0.20682,-0.44097 -0.31229,0 -0.0609,0.25466 -0.0609,0.67138 0,0.92604 z m -2.02204,-0.14552 c -0.56025,0.44723 -0.56046,0.45198 -0.0372,0.83643 0.72879,0.53545 0.93235,0.31776 0.90807,-0.97111 -0.0115,-0.60987 -0.0854,-0.93027 -0.16415,-0.71199 -0.0788,0.21829 -0.39682,0.59929 -0.70672,0.84667 z m -46.56108,-0.44132 c 0.13215,0.3444 0.62159,0.5631 0.62159,0.27775 0,-0.39309 -0.35769,-0.92136 -0.54533,-0.80539 -0.12392,0.0766 -0.15824,0.31402 -0.0763,0.52764 z m 10.27888,-0.14076 c -0.0899,0.14552 0.0746,0.26458 0.36565,0.26458 0.29104,0 0.60275,-0.11906 0.69269,-0.26458 0.0899,-0.14552 -0.0746,-0.26459 -0.36565,-0.26459 -0.29104,0 -0.60275,0.11907 -0.69269,0.26459 z m 52.0443,0.59679 c -0.15164,0.18272 -0.35772,0.65897 -0.45796,1.05833 -0.1627,0.64827 -0.11057,0.72613 0.48626,0.72613 1.49012,0 1.83081,-0.47619 1.09365,-1.52863 -0.46951,-0.67033 -0.72887,-0.72947 -1.12195,-0.25583 z m -30.42784,0.24987 c -0.17462,0.17463 -0.3175,0.41275 -0.3175,0.52917 0,0.34759 0.97039,0.23956 1.28823,-0.14341 0.52833,-0.6366 -0.36491,-0.99157 -0.97073,-0.38576 z m -11.47054,0.54155 c 0.27387,0.27387 0.83429,0.0584 0.83429,-0.32072 0,-0.12331 -0.24599,-0.15987 -0.54665,-0.0812 -0.3566,0.0933 -0.4566,0.23301 -0.28764,0.40197 z m 24.51647,0.95819 c -0.14093,0.4653 -0.0975,0.59628 0.1687,0.50877 0.19718,-0.0648 0.39743,-0.46586 0.445,-0.8912 0.0986,-0.88166 -0.30747,-0.6286 -0.6137,0.38243 z m 1.71782,0.0349 c 0,0.14552 0.11906,0.26458 0.26459,0.26458 0.14552,0 0.26458,-0.11906 0.26458,-0.26458 0,-0.14552 -0.11906,-0.26459 -0.26458,-0.26459 -0.14553,0 -0.26459,0.11907 -0.26459,0.26459 z m -50.20469,0.96051 c -0.6637,0.17787 -0.82361,1.16647 -0.26383,1.63105 0.36467,0.30264 1.39409,-0.24863 1.06982,-0.57291 -0.0979,-0.0979 0.11193,-0.14565 0.46627,-0.10613 0.49356,0.055 0.66424,-0.0674 0.72967,-0.52346 0.0714,-0.49745 -0.0372,-0.59472 -0.66061,-0.5917 -0.4103,0.002 -1.01389,0.0754 -1.34132,0.16315 z m 8.84134,2.02538 c -0.69407,-0.43393 -0.9,-0.25791 -0.87365,0.74677 0.0261,0.99513 0.0584,1.03005 0.95752,1.03615 0.51179,0.003 1.40677,0.13234 1.98886,0.28636 2.05554,0.54392 2.51376,0.58051 2.50949,0.20038 -0.002,-0.19842 -0.11489,-0.53602 -0.25035,-0.75022 -0.21111,-0.33381 -0.2712,-0.32458 -0.42055,0.0646 -0.23034,0.60025 -0.64797,0.3189 -0.64797,-0.43653 0,-0.78784 -1.44529,-1.52155 -2.33731,-1.18656 -0.33963,0.12755 -0.75635,0.14511 -0.92604,0.039 z m -2.81323,1.26475 c 0.58553,1.14774 1.12495,1.25613 1.27122,0.25546 0.0684,-0.46827 -0.009,-0.574 -0.33073,-0.45061 -0.29614,0.11364 -0.42016,0.007 -0.42016,-0.35963 0,-0.34622 -0.17923,-0.52086 -0.53454,-0.52086 -0.53401,0 -0.53399,0.001 0.0142,1.07564 z m 43.38283,0.24727 c 0,0.14553 0.11906,0.26459 0.26459,0.26459 0.14552,0 0.26458,-0.11906 0.26458,-0.26459 0,-0.14552 -0.11906,-0.26458 -0.26458,-0.26458 -0.14553,0 -0.26459,0.11906 -0.26459,0.26458 z m -14.81666,1.32292 c 0,0.14552 0.30468,0.26458 0.67707,0.26458 0.384,0 0.60629,-0.11452 0.51355,-0.26458 -0.0899,-0.14552 -0.39462,-0.26458 -0.67707,-0.26458 -0.28246,0 -0.51355,0.11906 -0.51355,0.26458 z m -35.0573,0.79375 c -0.0899,0.14552 -0.0374,0.26458 0.11668,0.26458 0.15411,0 0.2802,-0.11906 0.2802,-0.26458 0,-0.14552 -0.0525,-0.26458 -0.11668,-0.26458 -0.0642,0 -0.19026,0.11906 -0.2802,0.26458 z m 73.2662,2.04918 c 0.28903,0.28903 0.48722,-0.17062 0.27971,-0.6487 -0.19677,-0.45333 -0.21103,-0.45292 -0.32066,0.009 -0.0631,0.26605 -0.0447,0.55379 0.0409,0.63941 z m -24.97974,-0.32939 c 0,0.21828 0.17157,0.39688 0.38126,0.39688 0.44203,0 0.74041,-0.37764 0.49349,-0.62456 -0.31622,-0.31622 -0.87475,-0.17084 -0.87475,0.22768 z m 5.43405,0.67778 c 0.2441,0.39496 1.43642,0.81404 1.75531,0.61695 0.31185,-0.19273 -0.75519,-0.83424 -1.45029,-0.87191 -0.27435,-0.0149 -0.40454,0.094 -0.30502,0.25496 z m -3.53925,0.62185 c -0.13467,0.69458 0.20148,1.78692 0.49421,1.606 0.39731,-0.24556 0.32721,-2.3117 -0.0739,-2.17815 -0.1819,0.0606 -0.37104,0.31803 -0.42031,0.57215 z m 21.91115,0.3051 c -0.40712,1.07081 -0.32108,3.43753 0.13884,3.81923 0.32505,0.26976 0.39688,0.25168 0.39688,-0.0999 0,-0.53953 0.42185,-0.56141 0.62485,-0.0324 0.25241,0.65777 0.82723,0.44829 1.15537,-0.42105 0.17314,-0.45871 0.43134,-0.74216 0.58789,-0.64541 0.1951,0.12059 0.19282,0.33385 -0.008,0.7083 -0.38193,0.71365 -0.12992,0.90862 0.69099,0.53458 0.57881,-0.26372 0.63142,-0.38317 0.37762,-0.8574 -0.34769,-0.64967 -0.16176,-1.3034 0.37071,-1.3034 0.454,0 0.73953,-0.64244 0.52917,-1.19062 -0.19528,-0.50888 -0.74371,-0.50456 -1.53218,0.0121 -0.68542,0.44911 -2.00308,0.28306 -2.00308,-0.25242 0,-0.36111 -0.52899,-0.95027 -0.85322,-0.95027 -0.12002,0 -0.33433,0.3054 -0.47625,0.67868 z m -23.20735,0.80186 c 0.3364,0.3364 0.9889,-0.15009 0.9889,-0.73729 v -0.59626 l -0.58061,0.58061 c -0.31934,0.31934 -0.50307,0.65816 -0.40829,0.75294 z m -6.15485,-0.38051 c 0,0.19446 -0.123,0.1856 -0.37959,-0.0274 -0.53138,-0.441 -2.13395,-0.25308 -2.13395,0.25024 0,0.3145 0.45308,0.41283 2.18281,0.47372 1.20055,0.0423 2.18282,0.008 2.18282,-0.0754 0,-0.0838 -0.19077,-0.44345 -0.42393,-0.79929 -0.34295,-0.52341 -0.51981,-0.59566 -0.92604,-0.37825 -0.27616,0.1478 -0.50212,0.39817 -0.50212,0.55639 z m 9.96827,-0.39678 c -0.2003,0.2003 0.3005,0.88424 0.64746,0.88424 0.1277,0 0.23219,-0.23812 0.23219,-0.52916 0,-0.50844 -0.51743,-0.7173 -0.87965,-0.35508 z m -6.84177,0.41241 c 0.18985,0.18985 0.31309,0.20547 0.31309,0.0397 0,-0.35316 -0.3129,-0.66606 -0.48948,-0.48948 -0.0752,0.0752 0.004,0.27759 0.17639,0.4498 z m 16.18809,-0.0573 c 0,0.14552 0.12609,0.26458 0.28019,0.26458 0.15411,0 0.20662,-0.11906 0.11668,-0.26458 -0.0899,-0.14552 -0.21603,-0.26459 -0.2802,-0.26459 -0.0642,0 -0.11667,0.11907 -0.11667,0.26459 z m -6.52523,0.59531 c 0.0734,0.1819 0.13345,0.0331 0.13345,-0.33073 0,-0.3638 -0.06,-0.51263 -0.13345,-0.33073 -0.0734,0.1819 -0.0734,0.47956 0,0.66146 z m -1.41227,-0.4474 c 0,0.22687 0.11906,0.3389 0.26458,0.24896 0.14552,-0.0899 0.26458,-0.27555 0.26458,-0.41249 0,-0.13693 -0.11906,-0.24897 -0.26458,-0.24897 -0.14552,0 -0.26458,0.18563 -0.26458,0.4125 z m -23.6244,0.40083 c -0.34716,-0.0361 -0.23308,0.37471 0.17565,0.63253 0.56921,0.35905 0.79146,0.0286 0.56374,-0.83822 -0.16351,-0.62241 -0.22272,-0.66328 -0.37283,-0.25733 -0.0982,0.26543 -0.2631,0.47379 -0.36656,0.46302 z m 14.49627,0.24501 c 0.0899,0.14552 0.27556,0.26458 0.41249,0.26458 0.13693,0 0.24897,-0.11906 0.24897,-0.26458 0,-0.14552 -0.18562,-0.26459 -0.41249,-0.26459 -0.22687,0 -0.33891,0.11907 -0.24897,0.26459 z m 16.00729,0.52916 c 0,0.14553 0.12609,0.26459 0.2802,0.26459 0.15411,0 0.20661,-0.11906 0.11668,-0.26459 -0.0899,-0.14552 -0.21603,-0.26458 -0.2802,-0.26458 -0.0642,0 -0.11668,0.11906 -0.11668,0.26458 z m -52.12292,0.0324 c 0,0.21689 -0.0983,0.21538 -0.36455,-0.006 -0.28764,-0.23871 -0.40638,-0.17576 -0.56276,0.29833 l -0.1982,0.60089 -0.12272,-0.63821 c -0.19285,-1.00284 -0.58415,-0.10687 -0.41325,0.94623 0.11329,0.69818 0.053,0.88261 -0.28827,0.88261 -0.23732,0 -0.4315,0.11906 -0.4315,0.26459 0,0.14552 0.41672,0.26458 0.92605,0.26458 0.50932,0 0.92604,0.10029 0.92604,0.22287 0,0.12258 0.50601,0.21188 1.12448,0.19844 0.97203,-0.0211 1.11222,-0.0962 1.03409,-0.5536 -0.0497,-0.29104 -0.19833,-0.56879 -0.33027,-0.61721 -0.13194,-0.0484 -0.17195,-0.35873 -0.0889,-0.68957 0.0939,-0.37397 -0.0135,-0.76606 -0.28394,-1.03644 -0.50312,-0.50312 -0.92628,-0.56613 -0.92628,-0.13793 z m 67.60105,1.02956 c 0,0.56714 0.76879,0.48522 0.8803,-0.0938 0.0681,-0.35359 -0.0397,-0.46135 -0.39326,-0.39326 -0.26787,0.0516 -0.48704,0.27076 -0.48704,0.48705 z m -35.7134,-0.27687 c -0.087,0.14075 -0.48097,0.19687 -0.87551,0.12469 -0.62223,-0.11382 -0.77786,-1.8e-4 -1.17377,0.85703 -0.35081,0.75957 -0.38142,1.03589 -0.13229,1.19417 0.52221,0.33176 0.76145,0.24882 0.90893,-0.31514 0.0795,-0.30406 0.3609,-0.52917 0.66146,-0.52917 0.30297,0 0.58212,-0.22579 0.66339,-0.53658 0.0999,-0.38217 0.28318,-0.49125 0.63669,-0.37905 0.54558,0.17316 0.69741,-0.28207 0.16564,-0.49664 -0.51959,-0.20966 -0.68473,-0.19407 -0.85454,0.0807 z m -14.16056,0.0456 c 0,0.16586 -0.19662,0.44534 -0.43694,0.62106 -0.38746,0.28332 -0.39513,0.41393 -0.0677,1.15365 0.27359,0.61808 0.54097,0.8331 1.03225,0.8301 0.48683,-0.003 0.56488,-0.0662 0.29373,-0.23788 -0.37278,-0.23605 -0.30584,-0.55301 0.30145,-1.42721 0.27937,-0.40215 0.25045,-0.53939 -0.18117,-0.8599 -0.61852,-0.4593 -0.94162,-0.48668 -0.94162,-0.0798 z m 8.96641,0.63486 c -0.74795,0.2639 -1.18655,0.31047 -1.24594,0.13229 -0.14094,-0.42283 -0.50555,-0.32922 -1.06766,0.27413 -0.33314,0.35759 -0.5738,0.44835 -0.69005,0.26026 -0.21262,-0.34404 -0.6711,-0.11703 -0.6711,0.33229 0,0.33399 2.59563,1.6426 2.81767,1.42056 0.0712,-0.0712 -0.22957,-0.34143 -0.66829,-0.60059 -0.43872,-0.25916 -0.7413,-0.56243 -0.67239,-0.67393 0.17672,-0.28594 1.7233,-0.11145 2.44753,0.27615 0.73836,0.39515 1.19927,0.0922 1.59744,-1.05002 0.23565,-0.67597 0.20791,-0.77839 -0.21079,-0.77839 -0.26517,0 -1.00156,0.18326 -1.63642,0.40725 z m -34.58325,0.60567 c -0.10773,0.73212 0.61868,0.77769 1.00128,0.0628 0.37329,-0.69751 0.35851,-0.72878 -0.32142,-0.68006 -0.39131,0.0281 -0.62429,0.23956 -0.67986,0.61725 z m 81.97309,-0.1025 c 0,0.0642 0.11906,0.19027 0.26458,0.2802 0.14552,0.0899 0.26459,0.0374 0.26459,-0.11667 0,-0.15411 -0.11907,-0.2802 -0.26459,-0.2802 -0.14552,0 -0.26458,0.0525 -0.26458,0.11667 z m -8.36842,1.0198 c -0.32863,0.32863 0.7031,0.50997 1.88938,0.33208 1.08657,-0.16294 1.39938,-0.37461 1.05804,-0.71594 -0.17144,-0.17144 -2.72464,0.16108 -2.94742,0.38386 z m -33.39487,0.0404 c -0.0585,0.30163 0.0369,0.42885 0.26458,0.35303 0.1958,-0.0652 0.39714,-0.33075 0.44741,-0.59011 0.0585,-0.30163 -0.0369,-0.42885 -0.26458,-0.35303 -0.1958,0.0652 -0.39713,0.33075 -0.44741,0.59011 z m 38.39536,-0.22327 c 0.0879,0.0879 0.31613,0.0973 0.50712,0.0209 0.21107,-0.0845 0.14837,-0.14716 -0.15985,-0.15985 -0.27891,-0.0115 -0.43519,0.051 -0.34727,0.13896 z m -6.68624,0.6339 c 0,0.14552 0.24515,0.26458 0.54478,0.26458 0.29963,0 0.4712,-0.11906 0.38126,-0.26458 -0.0899,-0.14552 -0.33509,-0.26458 -0.54478,-0.26458 -0.20969,0 -0.38126,0.11906 -0.38126,0.26458 z m 9.6163,1.17921 c 0.17349,0.4521 1.23162,0.56824 1.23162,0.13518 0,-0.26929 -1.09743,-0.80845 -1.28946,-0.6335 -0.0543,0.0495 -0.0283,0.27376 0.0578,0.49832 z m -11.68225,-0.36562 c 0.0521,0.15644 0.20792,0.28443 0.34616,0.28443 0.13825,0 0.29402,-0.12799 0.34616,-0.28443 0.0522,-0.15643 -0.10362,-0.28442 -0.34616,-0.28442 -0.24254,0 -0.39831,0.12799 -0.34616,0.28442 z m -33.38821,0.37703 c 0.18115,0.21828 0.44843,0.39688 0.59396,0.39688 0.14759,0 0.11894,-0.17549 -0.0648,-0.39688 -0.18116,-0.21828 -0.44844,-0.39687 -0.59396,-0.39687 -0.14759,0 -0.11894,0.17549 0.0648,0.39687 z m -18.35194,0 c 0.0838,0.21828 0.2732,0.39688 0.42097,0.39688 0.15486,0 0.12915,-0.16812 -0.0607,-0.39688 -0.18116,-0.21828 -0.3706,-0.39687 -0.42097,-0.39687 -0.0504,0 -0.0231,0.17859 0.0607,0.39687 z m 16.86917,0.5898 c 0.26895,0.26896 0.49086,-0.13596 0.27019,-0.49301 -0.16669,-0.26973 -0.22902,-0.26994 -0.31863,-0.001 -0.0613,0.18383 -0.0395,0.40617 0.0484,0.49409 z m 48.53009,0.12899 c 0.18986,0.18985 0.31309,0.20547 0.31309,0.0397 0,-0.35316 -0.3129,-0.66606 -0.48948,-0.48948 -0.0752,0.0752 0.004,0.27759 0.17639,0.44979 z m -45.28084,0.3658 c 0.1018,0.26529 0.24581,0.31624 0.41518,0.14688 0.30299,-0.303 0.01,-0.91196 -0.33631,-0.69814 -0.12911,0.0798 -0.1646,0.32786 -0.0789,0.55126 z m -30.48802,-0.13549 c -0.0978,0.1582 -0.0563,0.40911 0.0922,0.55757 0.18353,0.18353 0.36546,0.0914 0.56834,-0.28764 0.24083,-0.44999 0.22305,-0.55757 -0.0922,-0.55757 -0.21481,0 -0.47056,0.12944 -0.56833,0.28764 z m -9.64305,0.50611 c 0,0.14552 0.18562,0.26459 0.41249,0.26459 0.22687,0 0.33891,-0.11907 0.24897,-0.26459 -0.0899,-0.14552 -0.27556,-0.26458 -0.41249,-0.26458 -0.13693,0 -0.24897,0.11906 -0.24897,0.26458 z m 83.07917,0.38126 c 0,0.20969 0.11906,0.45485 0.26458,0.54478 0.14552,0.0899 0.26459,-0.0816 0.26459,-0.38126 0,-0.29963 -0.11907,-0.54478 -0.26459,-0.54478 -0.14552,0 -0.26458,0.17157 -0.26458,0.38126 z m -76.64179,0.0177 c -0.0488,0.14666 0.16563,0.42552 0.47656,0.61969 0.4648,0.29028 0.60336,0.29149 0.7793,0.007 0.11918,-0.19283 0.0849,-0.50174 -0.0773,-0.69719 -0.32243,-0.3885 -1.04006,-0.34546 -1.17859,0.0707 z m 6.79179,0.27814 c 0,0.22687 0.121,0.3377 0.2689,0.2463 0.14789,-0.0914 0.2004,-0.27703 0.11667,-0.41249 -0.22681,-0.36699 -0.38557,-0.29856 -0.38557,0.16619 z m 70.95608,0.42038 c 0.10599,0.71247 0.79099,1.16009 1.41113,0.92212 0.43619,-0.16738 0.42525,-0.23157 -0.14245,-0.83586 -0.76724,-0.81669 -1.38359,-0.8586 -1.26868,-0.0863 z m -67.23923,0.37304 c 0.46722,0.56297 0.61926,0.27439 0.20496,-0.38901 -0.19151,-0.30665 -0.38961,-0.4333 -0.44023,-0.28145 -0.0506,0.15185 0.0553,0.45356 0.23527,0.67046 z m 61.45884,0.117 c 0,0.43656 0.0992,0.79375 0.22049,0.79375 0.12127,0 0.22049,-0.35719 0.22049,-0.79375 0,-0.43656 -0.0992,-0.79375 -0.22049,-0.79375 -0.12127,0 -0.22049,0.35719 -0.22049,0.79375 z m -46.33133,-0.41172 c -0.24773,0.24773 0.27254,0.67606 0.81657,0.67225 0.79561,-0.006 1.35054,-0.39865 1.11067,-0.78677 -0.17862,-0.28901 -1.60869,-0.20403 -1.92724,0.11452 z m -3.05664,0.25753 c -0.17408,0.45365 0.35171,0.68336 1.56413,0.68336 1.0831,0 1.20112,-0.45365 0.17679,-0.67956 -0.40018,-0.0883 -0.84666,-0.20019 -0.99218,-0.24874 -0.49625,-0.16554 -0.60486,-0.13001 -0.74874,0.24494 z m -34.49125,0.0345 c -0.22521,0.22521 -0.31946,0.4931 -0.20946,0.59531 0.11001,0.10221 0.25317,0.037 0.31813,-0.14489 0.065,-0.1819 0.34633,-0.33073 0.62524,-0.33073 0.27891,0 0.50712,-0.11906 0.50712,-0.26458 0,-0.40558 -0.78183,-0.3143 -1.24103,0.14489 z m 70.7402,0.97959 c 0.3594,0.67698 0.47805,0.7587 0.5578,0.38416 0.1055,-0.49541 -0.36108,-1.24406 -0.77533,-1.24406 -0.13144,0 -0.0335,0.38696 0.21753,0.8599 z m -39.18798,0.30186 c 0.0873,0.34793 0.0301,0.71214 -0.12725,0.80937 -0.15732,0.0972 -0.28603,0.83635 -0.28603,1.6425 0,1.28306 0.0976,1.55692 0.78325,2.19739 0.43078,0.40242 1.54132,1.10863 2.46786,1.56938 1.59063,0.79097 1.72775,0.81563 2.4579,0.44194 0.42531,-0.21767 0.95436,-0.71429 1.17568,-1.1036 0.5293,-0.93108 1.71694,-1.1 1.98147,-0.28183 0.15992,0.49461 0.20298,0.51011 0.30945,0.11137 0.0874,-0.32735 0.29464,-0.42028 0.70666,-0.31687 0.74441,0.18684 2.81774,-1.64284 2.81774,-2.4866 0,-0.31339 0.11906,-0.56981 0.26458,-0.56981 0.45489,0 0.28557,1.68266 -0.25126,2.49704 -0.2818,0.42748 -0.45258,0.87397 -0.37952,0.99219 0.20611,0.33349 1.53544,0.25335 2.05103,-0.12365 0.39544,-0.28916 0.41753,-0.45336 0.15132,-1.12448 -0.17202,-0.43366 -0.36702,-0.63692 -0.43508,-0.45351 -0.15371,0.41417 -0.60732,0.16353 -0.60732,-0.33558 0,-0.51304 1.59633,-1.21839 2.96132,-1.30848 1.5805,-0.10431 1.53659,-0.0855 1.53659,-0.65708 0,-0.28245 0.11906,-0.58714 0.26459,-0.67707 0.14552,-0.0899 0.26458,-0.31622 0.26458,-0.50284 0,-0.97374 -4.22102,0.79172 -4.23922,1.77307 -0.008,0.43159 -1.03916,-0.91301 -1.04656,-1.36469 -0.004,-0.21518 -0.17069,-0.29579 -0.41721,-0.20119 -0.22623,0.0868 -0.77391,-0.10881 -1.21706,-0.43472 l -0.80575,-0.59255 -0.80008,0.92604 c -0.66291,0.76727 -0.77605,0.82402 -0.65986,0.331 0.16962,-0.7198 -0.21926,-1.02455 -0.74773,-0.58596 -0.30541,0.25347 -0.38701,0.24448 -0.39364,-0.0434 -0.005,-0.21027 -0.28329,-0.0506 -0.66146,0.37923 l -0.6531,0.74236 v -0.67621 c 0,-0.7683 -0.18942,-0.83147 -0.93331,-0.31123 -0.57098,0.39931 -2.55281,0.16405 -4.35836,-0.51739 -1.27594,-0.48155 -1.35497,-0.46433 -1.17422,0.25583 z m 38.88138,0.96761 c 0.0946,0.29802 0.0318,0.71074 -0.13948,0.91714 -0.2232,0.26895 -0.23532,0.58397 -0.0427,1.11178 l 0.26871,0.7365 0.0209,-0.83158 c 0.0124,-0.4932 0.18826,-0.89582 0.4322,-0.98943 0.36346,-0.13947 0.35577,-0.23415 -0.0661,-0.81374 -0.58531,-0.80407 -0.69693,-0.83488 -0.47343,-0.13067 z m -45.64466,0.13521 c 0,0.38962 0.31523,0.507 0.59914,0.2231 0.2385,-0.23851 -0.0899,-0.91908 -0.36227,-0.75075 -0.13028,0.0805 -0.23687,0.31795 -0.23687,0.52765 z m -4.23333,-0.29582 c 0,0.0642 0.11906,0.19026 0.26458,0.2802 0.14553,0.0899 0.26459,0.0374 0.26459,-0.11668 0,-0.1541 -0.11906,-0.28019 -0.26459,-0.28019 -0.14552,0 -0.26458,0.0525 -0.26458,0.11667 z m 68.04008,0.78106 c -0.0753,0.3948 0.0217,0.4702 0.45812,0.35607 0.39704,-0.10382 0.74141,0.0783 1.21732,0.64392 0.63326,0.7526 0.66365,0.7613 0.66365,0.19015 0,-1.36019 -2.10259,-2.43 -2.33909,-1.19014 z m -64.75618,0.3577 c 0.28903,0.28903 0.48723,-0.17062 0.27972,-0.64871 -0.19677,-0.45333 -0.21103,-0.45292 -0.32066,0.009 -0.0631,0.26605 -0.0447,0.55378 0.0409,0.63941 z m -7.25265,-0.87418 c 0,0.0642 0.11906,0.19027 0.26458,0.2802 0.14553,0.0899 0.26459,0.0374 0.26459,-0.11667 0,-0.15411 -0.11906,-0.2802 -0.26459,-0.2802 -0.14552,0 -0.26458,0.0525 -0.26458,0.11667 z m 55.29792,1.22564 c 0,0.88675 0.0821,1.06066 0.46302,0.98135 0.51339,-0.10688 0.53027,-1.10297 0.0289,-1.70706 -0.43829,-0.5281 -0.49194,-0.44896 -0.49194,0.72571 z m -46.01794,0.28174 c 0.34733,0.64898 0.77419,0.62883 0.77419,-0.0366 0,-0.29104 -0.11533,-0.52917 -0.25628,-0.52917 -0.14095,0 -0.19077,-0.20836 -0.11069,-0.46302 0.12804,-0.40723 0.0964,-0.40282 -0.26264,0.0365 -0.29834,0.3651 -0.33726,0.63216 -0.14458,0.99219 z m 44.16586,3.652 c 0,0.13693 0.11906,0.32255 0.26458,0.41249 0.14552,0.0899 0.26458,-0.0221 0.26458,-0.24897 0,-0.22687 -0.11906,-0.41249 -0.26458,-0.41249 -0.14552,0 -0.26458,0.11204 -0.26458,0.24897 z m -38.89376,0.2865 c 0,0.3084 1.05552,0.87846 1.25577,0.67822 0.22088,-0.22089 -0.75453,-1.22766 -1.02654,-1.05954 -0.12607,0.0779 -0.22923,0.24951 -0.22923,0.38132 z m 11.37709,3.83671 c 0,0.48922 -1.39554,1.09849 -1.5379,0.67141 -0.13158,-0.39472 -1.01741,-0.35206 -1.03063,0.0496 -0.006,0.1819 -0.0946,0.6434 -0.19684,1.02556 -0.17058,0.63734 -0.12955,0.68404 0.49596,0.56446 0.37505,-0.0717 0.68191,-0.23553 0.68191,-0.36409 0,-0.12856 0.23439,-0.23374 0.52086,-0.23374 0.35429,0 0.47216,-0.12692 0.36857,-0.39688 -0.16892,-0.44018 0.30712,-0.5508 0.56622,-0.13157 0.21472,0.34742 1.19018,-0.15955 1.19018,-0.61857 0,-0.37362 -0.52044,-0.96965 -0.84666,-0.96965 -0.11642,0 -0.21167,0.18154 -0.21167,0.40343 z m 20.76979,0.39032 c -0.0899,0.14552 -0.0445,0.26459 0.10106,0.26459 0.14552,0 0.33817,-0.11907 0.42811,-0.26459 0.0899,-0.14552 0.0445,-0.26458 -0.10107,-0.26458 -0.14552,0 -0.33816,0.11906 -0.4281,0.26458 z m -19.09845,0.3142 c 0.0845,0.21106 0.14716,0.14837 0.15985,-0.15986 0.0115,-0.27891 -0.051,-0.43518 -0.13896,-0.34726 -0.0879,0.0879 -0.0973,0.31612 -0.0209,0.50712 z m -5.52767,0.0676 c -0.21214,0.84523 0.16166,1.51167 0.44379,0.79122 0.28932,-0.73881 0.27863,-1.43764 -0.022,-1.43764 -0.14275,0 -0.33255,0.29089 -0.42179,0.64642 z m 14.57195,-0.11725 c -0.0899,0.14552 -0.0374,0.26458 0.11668,0.26458 0.15411,0 0.2802,-0.11906 0.2802,-0.26458 0,-0.14553 -0.0525,-0.26459 -0.11668,-0.26459 -0.0642,0 -0.19026,0.11906 -0.2802,0.26459 z m -4.6249,1.19702 c 0.18408,0.22179 0.40357,0.33438 0.48776,0.25019 0.0842,-0.0842 -0.0221,-0.26384 -0.23614,-0.39922 -0.56012,-0.35422 -0.63331,-0.31088 -0.25162,0.14903 z m -22.32599,0.52277 c -0.0838,0.21828 -0.40288,0.39687 -0.70916,0.39687 -0.69232,0 -0.61181,0.87527 0.093,1.011 0.65719,0.12656 1.24102,-0.42653 1.24102,-1.17568 0,-0.70115 -0.38937,-0.84583 -0.62485,-0.23219 z m 4.5936,0.79375 c 0,0.21828 0.11906,0.39687 0.26458,0.39687 0.14553,0 0.26459,-0.17859 0.26459,-0.39687 0,-0.21828 -0.11906,-0.39688 -0.26459,-0.39688 -0.14552,0 -0.26458,0.1786 -0.26458,0.39688 z m 47.62744,0.5321 c -0.43192,-0.52043 -1.56234,-0.515 -1.76322,0.008 -0.21157,0.55133 -0.0755,0.64135 0.98549,0.6518 1.5513,0.0153 2.22337,-0.0909 2.41925,-0.38231 0.2931,-0.43601 -0.67645,-0.67601 -1.01381,-0.25096 -0.25333,0.31916 -0.34364,0.31527 -0.62771,-0.027 z m -3.05215,0.60742 c 0.0815,0.0815 0.29496,1.7e-4 0.47444,-0.18065 0.25936,-0.26131 0.22897,-0.2917 -0.14812,-0.14811 -0.26094,0.0994 -0.40778,0.2473 -0.32632,0.32876 z m -52.45911,0.17381 c -0.25683,0.25683 0.26549,2.03151 0.64023,2.17531 0.58432,0.22423 1.68734,-0.4538 1.68734,-1.0372 0,-0.27602 -0.13004,-0.74484 -0.28898,-1.04182 -0.23049,-0.43067 -0.4542,-0.50693 -1.10519,-0.37673 -0.44891,0.0898 -0.86894,0.21598 -0.9334,0.28044 z m -3.22868,0.89462 c 0,0.33805 0.94573,1.12375 1.13038,0.9391 0.23349,-0.2335 -0.40357,-1.16268 -0.79715,-1.16268 -0.18328,0 -0.33323,0.10061 -0.33323,0.22358 z m 1.82591,1.25598 c -0.26923,0.33268 -0.046,0.63711 0.46715,0.63711 0.38468,0 0.46389,-0.73255 0.16215,-1.49971 -0.17875,-0.4545 -0.19699,-0.45172 -0.29305,0.0445 -0.0563,0.29104 -0.20765,0.65918 -0.33625,0.8181 z m 12.0565,-0.43451 c 0.0974,0.15757 0.30062,0.21014 0.45162,0.11682 0.17777,-0.10987 0.15071,-0.24622 -0.0768,-0.3868 -0.4246,-0.26242 -0.61787,-0.12322 -0.37486,0.26998 z m -7.79699,-0.26691 c 0,0.31217 0.51603,0.64611 0.70555,0.45659 0.18953,-0.18953 -0.14441,-0.70556 -0.45658,-0.70556 -0.13694,0 -0.24897,0.11203 -0.24897,0.24897 z m 28.9891,2.6549 c -0.48118,0.18294 -0.67868,0.45243 -0.67868,0.92604 0,0.56584 -0.1214,0.66801 -0.79375,0.66801 -0.90254,0 -1.59051,0.5818 -2.07712,1.7566 -0.40004,0.96576 -0.15062,2.31138 0.38997,2.10394 0.2881,-0.11056 0.36423,0.25148 0.36423,1.73208 0,1.69679 0.0772,1.96934 0.82562,2.91428 0.73327,0.92584 0.87384,1.00018 1.25677,0.66468 0.59072,-0.51755 1.62178,-0.81082 1.62178,-0.46129 0,0.15361 0.50038,0.3593 1.11196,0.4571 0.70764,0.11315 1.35704,0.43896 1.78594,0.89599 1.19856,1.27719 2.39376,1.60919 2.39376,0.66493 0,-0.19412 -0.16154,-0.41494 -0.35897,-0.4907 -0.19744,-0.0758 -0.42684,-0.64374 -0.50979,-1.26217 -0.083,-0.61843 -0.38218,-1.43239 -0.66495,-1.80879 -0.55468,-0.73832 -1.22806,-0.8103 -3.83818,-0.41027 l -1.27084,0.19478 0.17505,-0.69746 c 0.11709,-0.46652 0.0688,-0.69745 -0.14599,-0.69745 -0.17657,0 -0.0406,-0.2956 0.30205,-0.65689 0.34269,-0.36129 0.82889,-0.65894 1.08043,-0.66146 0.74437,-0.007 0.0271,-1.22861 -0.95469,-1.62531 -1.08491,-0.43838 -1.26238,-0.74635 -0.80576,-1.39825 0.20738,-0.29609 0.37706,-0.82275 0.37706,-1.17037 0,-0.58346 0.0739,-0.61817 0.9615,-0.45165 0.82524,0.15481 0.93773,0.11842 0.79375,-0.25678 -0.0923,-0.24044 -0.16775,-0.60601 -0.16775,-0.81239 0,-0.44222 -0.25226,-0.46742 -1.1734,-0.1172 z m -6.36723,0.53571 c 0.0899,0.14552 0.28259,0.26459 0.42811,0.26459 0.14552,0 0.191,-0.11907 0.10106,-0.26459 -0.0899,-0.14552 -0.28258,-0.26458 -0.4281,-0.26458 -0.14552,0 -0.191,0.11906 -0.10107,0.26458 z m 13.36146,1.03003 c 0,0.53767 0.49017,0.82285 1.4107,0.82074 0.52915,-10e-4 0.51207,-0.0518 -0.22007,-0.65194 -0.96325,-0.78957 -1.19063,-0.8218 -1.19063,-0.1688 z m -53.04896,0.29289 c -0.0899,0.14552 -0.0374,0.26458 0.11668,0.26458 0.15411,0 0.2802,-0.11906 0.2802,-0.26458 0,-0.14552 -0.0525,-0.26458 -0.11668,-0.26458 -0.0642,0 -0.19026,0.11906 -0.2802,0.26458 z m 42.15254,1.11566 c 0.18985,0.18985 0.31309,0.20548 0.31309,0.0397 0,-0.15038 -0.0794,-0.35278 -0.17639,-0.44979 -0.097,-0.097 -0.2379,-0.11488 -0.31309,-0.0397 -0.0752,0.0752 0.004,0.27759 0.17639,0.44979 z m 13.80684,1.79476 c 0,0.14552 0.12609,0.26458 0.2802,0.26458 0.15411,0 0.20661,-0.11906 0.11667,-0.26458 -0.0899,-0.14552 -0.21602,-0.26459 -0.2802,-0.26459 -0.0642,0 -0.11667,0.11907 -0.11667,0.26459 z m -4.23333,0 c 0,0.14552 0.17859,0.26458 0.39687,0.26458 0.21828,0 0.39688,-0.11906 0.39688,-0.26458 0,-0.14552 -0.1786,-0.26459 -0.39688,-0.26459 -0.21828,0 -0.39687,0.11907 -0.39687,0.26459 z m 5.15092,0.5558 c -0.10044,0.31646 -0.0384,0.68675 0.1442,0.85989 0.24807,0.2353 0.27991,0.16942 0.14074,-0.29121 -0.10812,-0.35788 -0.0672,-0.59532 0.10256,-0.59532 0.15532,0 0.28241,-0.11906 0.28241,-0.26458 0,-0.48562 -0.49111,-0.27213 -0.66991,0.29122 z m -59.07301,0.29086 c -0.46559,0.4656 -0.38819,0.94897 0.20258,1.26514 0.44129,0.23617 0.58156,0.15941 0.92604,-0.50672 0.22328,-0.43178 0.40596,-0.8505 0.40596,-0.93049 0,-0.27947 -1.21982,-0.14269 -1.53458,0.17207 z m 76.44967,0.63452 c 0.41213,0.41213 0.88655,0.64073 1.18461,0.57081 0.42571,-0.0999 0.39628,-0.1583 -0.20472,-0.40653 -0.38605,-0.15945 -0.78003,-0.41631 -0.87551,-0.57081 -0.0955,-0.1545 -0.31271,-0.2809 -0.48271,-0.2809 -0.17001,0 2.4e-4,0.30934 0.37833,0.68743 z m -18.82342,-0.15827 c 0,0.29104 0.11204,0.52917 0.24897,0.52917 0.35516,0 0.60542,-0.48158 0.41249,-0.79375 -0.27652,-0.44742 -0.66146,-0.29344 -0.66146,0.26458 z m -77.12604,0 c -0.0899,0.14552 -0.0445,0.26459 0.10106,0.26459 0.14552,0 0.33817,-0.11907 0.42811,-0.26459 0.0899,-0.14552 0.0444,-0.26458 -0.10107,-0.26458 -0.14552,0 -0.33816,0.11906 -0.4281,0.26458 z m 18.38854,1.19063 c 0,0.21828 0.17859,0.39687 0.39688,0.39687 0.41316,0 0.52492,-0.31292 0.22048,-0.61736 -0.30444,-0.30444 -0.61736,-0.19268 -0.61736,0.22049 z m 60.58959,0.92604 c 0,0.14552 0.12609,0.26458 0.28019,0.26458 0.15411,0 0.20662,-0.11906 0.11668,-0.26458 -0.0899,-0.14552 -0.21603,-0.26458 -0.2802,-0.26458 -0.0642,0 -0.11667,0.11906 -0.11667,0.26458 z m -18.78542,0 c 0,0.14552 0.11906,0.26458 0.26458,0.26458 0.14552,0 0.26459,-0.11906 0.26459,-0.26458 0,-0.14552 -0.11907,-0.26458 -0.26459,-0.26458 -0.14552,0 -0.26458,0.11906 -0.26458,0.26458 z m 28.575,0.52917 c 0,0.14552 0.0525,0.26458 0.11667,0.26458 0.0642,0 0.19027,-0.11906 0.2802,-0.26458 0.0899,-0.14552 0.0374,-0.26459 -0.11667,-0.26459 -0.15411,0 -0.2802,0.11907 -0.2802,0.26459 z m -71.83438,0.26458 c -0.0899,0.14552 0.0151,0.26458 0.23336,0.26458 0.21828,0 0.47046,-0.11906 0.56039,-0.26458 0.0899,-0.14552 -0.0151,-0.26458 -0.23335,-0.26458 -0.21828,0 -0.47046,0.11906 -0.5604,0.26458 z m 66.45435,0.33073 c 0.1141,0.1819 0.17096,0.5521 0.12637,0.82267 -0.0493,0.29888 0.0312,0.42255 0.20504,0.31511 0.31638,-0.19553 0.38604,-1.01581 0.10973,-1.29212 -0.31002,-0.31002 -0.6564,-0.18883 -0.44114,0.15434 z m -9.3128,0.22507 c -0.097,0.30569 -0.0455,0.68669 0.11446,0.84667 0.21144,0.21143 0.29087,0.17405 0.29087,-0.13688 0,-0.23526 0.14014,-0.47446 0.31143,-0.53155 0.33532,-0.11177 0.0732,-0.73404 -0.30922,-0.73404 -0.12712,0 -0.31052,0.25011 -0.40754,0.5558 z m -24.63124,0.77354 c -0.35237,0.88067 -0.49211,1.00991 -0.80824,0.74754 -0.32385,-0.26877 -0.35331,-0.19904 -0.19294,0.4566 0.1041,0.4256 0.40762,1.0557 0.67449,1.40022 0.51081,0.65946 0.41595,1.311 -0.12644,0.86845 -0.35396,-0.28881 -4.93739,0.20584 -4.93739,0.53284 0,0.11256 0.14883,0.15066 0.33073,0.0847 0.18201,-0.066 0.5092,0.26059 0.72761,0.72634 0.28648,0.6109 0.65447,0.91045 1.32291,1.07687 0.50933,0.12681 1.13701,0.41982 1.39485,0.65113 0.42898,0.38485 0.54967,0.38202 1.42043,-0.0332 l 0.95162,-0.4538 -0.16163,0.64396 c -0.13431,0.53515 -0.0449,0.67325 0.52903,0.81731 0.80248,0.2014 1.12031,0.005 0.6891,-0.42653 -0.45688,-0.45687 0.10539,-1.34483 0.7267,-1.14763 0.26993,0.0857 0.57094,0.0261 0.6689,-0.13243 0.11585,-0.18744 0.2855,-0.19906 0.48529,-0.0333 0.16894,0.14021 0.42326,0.25613 0.56514,0.25759 0.14188,0.002 0.30063,0.13065 0.35278,0.28708 0.0521,0.15644 -0.19001,0.28443 -0.53813,0.28443 -0.34811,0 -0.84309,0.15367 -1.09995,0.34148 -0.39915,0.29187 -0.42026,0.44408 -0.1453,1.04755 0.26651,0.58494 0.40775,0.66001 0.82331,0.43761 0.27588,-0.14765 0.72555,-0.19738 0.99926,-0.1105 0.34147,0.10837 0.53629,0.009 0.62077,-0.31608 0.0989,-0.3808 0.12915,-0.36042 0.15381,0.10358 0.0524,0.98661 3.05622,3.16135 3.96717,2.87223 0.32056,-0.10175 0.88639,0.20907 1.72598,0.94811 0.90597,0.79747 1.32876,1.0198 1.53918,0.80938 0.21041,-0.21041 0.19785,-0.40125 -0.0457,-0.69475 -0.35845,-0.43191 -0.16053,-1.85737 0.22482,-1.61921 0.25101,0.15513 0.92686,-0.55408 1.16183,-1.21918 0.0977,-0.27645 0.34307,-0.39364 0.65401,-0.31233 0.73189,0.19139 1.23629,-0.52196 0.86268,-1.22006 -0.31373,-0.58621 -0.79883,-0.50217 -0.79883,0.13841 0,0.20969 -0.1871,0.38126 -0.41578,0.38126 -0.22867,0 -0.59436,0.17859 -0.81264,0.39687 -0.57838,0.57838 -1.12325,0.48671 -1.45667,-0.24507 -0.36733,-0.8062 -0.087,-2.00388 0.46896,-2.00388 0.33985,0 0.38919,-0.20119 0.25955,-1.05834 -0.0881,-0.58208 -0.23252,-1.56435 -0.32104,-2.18281 -0.20716,-1.44733 -0.79608,-2.13331 -1.64792,-1.91951 -0.45577,0.11439 -0.82525,-0.0118 -1.2767,-0.43587 -0.61315,-0.57602 -0.67424,-0.58248 -1.75143,-0.18514 -0.61387,0.22643 -1.35425,0.35913 -1.64529,0.29489 -0.29104,-0.0642 -0.80035,-0.14516 -1.13179,-0.17982 -0.33144,-0.0347 -0.74221,-0.20261 -0.91281,-0.37321 -0.17061,-0.17061 -0.6138,-0.31098 -0.98488,-0.31194 -0.37108,-0.001 -1.03187,-0.2383 -1.46844,-0.52742 -0.43656,-0.28912 -0.88401,-0.52647 -0.99433,-0.52742 -0.11032,-10e-4 -0.39229,0.47739 -0.62661,1.06301 z m -19.30728,1.38094 c -0.16248,1.38245 -0.1235,1.55773 0.45335,2.03815 0.66876,0.55698 2.20651,0.72636 2.48617,0.27386 0.10376,-0.16788 0.43361,-0.0834 0.87551,0.22412 1.0956,0.76254 2.31515,1.11142 2.66437,0.76221 0.2151,-0.2151 0.29361,-0.20872 0.29361,0.0239 0,0.17462 0.23813,0.3175 0.52917,0.3175 0.39884,0 0.53124,-0.17919 0.53758,-0.7276 0.008,-0.66145 0.0404,-0.68551 0.3599,-0.26459 0.40887,0.53862 0.9797,0.59668 1.43085,0.14552 0.37248,-0.37247 0.43145,-3.28501 0.071,-3.50777 -0.13556,-0.0838 -0.42635,0.10448 -0.6462,0.41836 -0.32788,0.46811 -0.57226,0.54269 -1.35961,0.41492 -0.52794,-0.0857 -1.24497,-0.0474 -1.59339,0.0851 -0.39319,0.14949 -0.69316,0.14433 -0.79077,-0.0136 -0.0865,-0.13996 -0.61777,-0.25447 -1.18059,-0.25447 -0.75211,0 -1.05539,0.12271 -1.14432,0.46302 -0.0666,0.25466 -0.13481,0.0735 -0.15169,-0.40255 -0.0243,-0.68424 -0.18313,-0.92573 -0.7583,-1.15274 -0.40018,-0.15795 -0.9062,-0.38119 -1.12448,-0.49609 -0.58834,-0.30971 -0.75566,-0.0193 -0.95218,1.6528 z m 15.23968,-0.7583 c 0,0.20046 0.20089,0.52788 0.44641,0.7276 0.39298,0.31966 0.42465,0.30511 0.26459,-0.12153 -0.10001,-0.26657 -0.18183,-0.59399 -0.18183,-0.72761 0,-0.13361 -0.11906,-0.24294 -0.26459,-0.24294 -0.14552,0 -0.26458,0.16401 -0.26458,0.36448 z m 42.86313,0.41792 c 0.12385,0.22452 0.40871,0.64635 0.63303,0.93739 0.30534,0.39617 0.40905,0.42942 0.41265,0.13229 0.011,-0.90721 -0.32305,-1.5493 -0.78775,-1.51429 -0.35269,0.0266 -0.42232,0.14659 -0.25793,0.44461 z m 9.52437,0.40822 c 0,0.20111 0.11906,0.43923 0.26459,0.52917 0.15065,0.0931 0.26458,-0.13475 0.26458,-0.52917 0,-0.39441 -0.11393,-0.62227 -0.26458,-0.52916 -0.14553,0.0899 -0.26459,0.32806 -0.26459,0.52916 z m -20.10833,1.53826 c 0,0.42993 0.92145,0.0354 1.01169,-0.43314 0.0809,-0.42002 0.0265,-0.43558 -0.45998,-0.13175 -0.30344,0.1895 -0.55171,0.4437 -0.55171,0.56489 z m 4.54466,0.26961 c -0.064,0.33019 0.10782,0.44109 0.68351,0.44109 1.03265,0 1.24851,-0.27817 0.52495,-0.67652 -0.73722,-0.40586 -1.09771,-0.33564 -1.20846,0.23543 z m 6.87758,0.26972 c -0.0673,0.34954 0.0413,0.45812 0.3908,0.3908 0.2662,-0.0513 0.52595,-0.31102 0.57722,-0.57722 0.0673,-0.34954 -0.0413,-0.45812 -0.3908,-0.3908 -0.2662,0.0513 -0.52596,0.31102 -0.57722,0.57722 z m -19.35974,1.02134 c 0,0.1146 -0.1786,0.20837 -0.39688,0.20837 -0.21828,0 -0.39687,0.19133 -0.39687,0.42518 0,0.25614 -0.14756,0.36856 -0.37116,0.28275 -0.62093,-0.23827 -1.3056,0.44609 -1.09864,1.09817 0.2162,0.68119 0.81489,0.75285 1.15861,0.13866 0.16509,-0.29501 0.44013,-0.38526 0.84858,-0.27845 1.2775,0.33407 3.31824,-1.14443 2.58782,-1.87485 -0.32461,-0.32461 -2.33146,-0.32446 -2.33146,1.7e-4 z m 19.05405,0.67139 c 0.01,0.47143 1.05428,1.18133 1.05428,0.71643 0,-0.2224 -0.63783,-0.89354 -0.85989,-0.90481 -0.10914,-0.006 -0.19662,0.0792 -0.19439,0.18838 z m -51.17356,0.33073 c -0.42002,0 -0.72479,0.28094 -1.05426,0.97184 -0.41721,0.87491 -0.4221,0.99497 -0.049,1.20377 0.22794,0.12756 0.41443,0.45583 0.41443,0.72948 0,0.41618 0.11899,0.46396 0.72761,0.29216 0.40018,-0.11296 0.88036,-0.15295 1.06706,-0.0889 0.1867,0.0641 0.52141,0.0467 0.7438,-0.0386 0.35511,-0.13627 0.34673,-0.25268 -0.0689,-0.95623 -0.26026,-0.44059 -0.62092,-0.74438 -0.80147,-0.6751 -0.57047,0.21891 -0.61883,-0.2899 -0.0744,-0.78261 0.62729,-0.56769 0.68772,-1.04025 0.10442,-0.81641 -0.23019,0.0883 -0.68439,0.1606 -1.00933,0.1606 z m 50.37576,0.26458 c 0,0.14552 0.11906,0.26458 0.26458,0.26458 0.14552,0 0.26459,-0.11906 0.26459,-0.26458 0,-0.14552 -0.11907,-0.26458 -0.26459,-0.26458 -0.14552,0 -0.26458,0.11906 -0.26458,0.26458 z m -13.23629,1.65365 c -0.28073,0.61846 -0.51304,1.49685 -0.51623,1.95198 -0.003,0.45512 -0.18441,0.97571 -0.40269,1.15687 -0.32064,0.26611 -0.39687,0.25821 -0.39687,-0.0411 0,-0.50779 -1.13143,-1.45942 -1.26363,-1.06283 -0.0556,0.1667 -0.3061,0.55634 -0.55674,0.86587 -0.38012,0.46942 -0.76537,0.56915 -2.3226,0.60124 -1.91187,0.0394 -2.7362,0.39204 -2.7362,1.17054 0,0.33394 -0.11114,0.31054 -0.59531,-0.12533 -0.32743,-0.29476 -0.75602,-0.62754 -0.95244,-0.73951 -0.59972,-0.34187 0.12157,0.79898 0.88462,1.39919 0.36472,0.28689 0.66495,0.68308 0.66718,0.88042 0.009,0.81621 0.39422,1.03835 1.27029,0.73295 0.46328,-0.1615 0.84233,-0.43448 0.84233,-0.60662 0,-0.17214 0.3707,-0.45291 0.82378,-0.62393 0.80133,-0.30246 1.38161,-0.19908 3.15097,0.5614 0.27297,0.11732 0.55509,-0.0845 0.87486,-0.62582 0.25958,-0.43944 0.64383,-0.79898 0.85389,-0.79898 0.23098,0 0.38191,-0.2614 0.38191,-0.66146 0,-0.39513 0.15133,-0.66146 0.37585,-0.66146 0.21084,0 0.45466,-0.37754 0.55535,-0.85989 0.0987,-0.47295 0.43132,-1.05823 0.73911,-1.30063 0.51816,-0.40808 0.53096,-0.49631 0.17269,-1.19063 -0.76505,-1.48265 -1.18494,-1.48771 -1.85012,-0.0223 z m -41.21496,0.25135 c -0.43395,0.43394 -0.39882,1.13772 0.0765,1.53216 0.21668,0.17983 0.31712,0.45129 0.22321,0.60325 -0.11035,0.17855 0.0545,0.21602 0.46593,0.10592 0.35018,-0.0937 0.72599,-0.17198 0.83513,-0.17397 0.24547,-0.004 0.26505,-1.96547 0.022,-2.20847 -0.28748,-0.28748 -1.28054,-0.20113 -1.62278,0.14111 z m -7.73609,0.1925 c 0.15012,0.2805 0.2011,0.69722 0.11329,0.92604 -0.0878,0.22882 -0.0406,0.41604 0.10493,0.41604 0.31165,0 0.58578,-0.62922 0.58578,-1.34455 0,-0.33407 -0.18404,-0.50753 -0.53847,-0.50753 -0.44974,0 -0.4935,0.084 -0.26553,0.51 z m -8.721,-0.24542 c 0,0.14552 0.11907,0.26459 0.26459,0.26459 0.14552,0 0.26458,-0.11907 0.26458,-0.26459 0,-0.14552 -0.11906,-0.26458 -0.26458,-0.26458 -0.14552,0 -0.26459,0.11906 -0.26459,0.26458 z m 56.1964,0.98668 c 0.26896,0.26895 0.49087,-0.13597 0.2702,-0.49302 -0.1667,-0.26972 -0.22902,-0.26993 -0.31864,-10e-4 -0.0613,0.18383 -0.0395,0.40617 0.0484,0.49409 z m -42.1905,-0.27307 c -1.04698,0.61846 -1.16967,1.10277 -0.35758,1.41153 1.04919,0.3989 1.42576,0.30944 1.69664,-0.40305 0.26978,-0.70956 0.10693,-1.4575 -0.31734,-1.4575 -0.14387,0 -0.60365,0.20206 -1.02172,0.44902 z m 4.63298,0.58626 c 0.0978,0.1582 0.35353,0.28763 0.56834,0.28763 0.31521,0 0.333,-0.10757 0.0922,-0.55757 -0.20288,-0.37908 -0.38482,-0.47116 -0.56834,-0.28764 -0.14847,0.14847 -0.18994,0.39937 -0.0922,0.55758 z m -8.2692,0.94909 c 0.0339,0.90158 0.28723,1.18458 0.60301,0.67363 0.20598,-0.33329 -0.11858,-1.59967 -0.40998,-1.59967 -0.12531,0 -0.21218,0.41672 -0.19303,0.92604 z m 35.93646,0.47864 c -0.002,0.11773 0.11501,0.14047 0.26053,0.0505 0.14552,-0.0899 0.26276,-0.36486 0.26053,-0.61093 -0.003,-0.38557 -0.0395,-0.39255 -0.26053,-0.0505 -0.14106,0.21828 -0.2583,0.4932 -0.26053,0.61093 z m -34.66447,-0.63924 c 0,0.2974 0.68821,0.57482 0.90017,0.36286 0.3185,-0.3185 0.14472,-0.59913 -0.371,-0.59913 -0.29104,0 -0.52917,0.10632 -0.52917,0.23627 z m -4.49792,0.82206 c 0,0.14552 0.0525,0.26458 0.11668,0.26458 0.0642,0 0.19026,-0.11906 0.2802,-0.26458 0.0899,-0.14552 0.0374,-0.26458 -0.11668,-0.26458 -0.15411,0 -0.2802,0.11906 -0.2802,0.26458 z m 57.67917,0.26458 c 0,0.14552 0.18562,0.26459 0.41249,0.26459 0.22687,0 0.33891,-0.11907 0.24897,-0.26459 -0.0899,-0.14552 -0.27556,-0.26458 -0.41249,-0.26458 -0.13693,0 -0.24897,0.11906 -0.24897,0.26458 z m -3.63802,0.59787 c -0.58855,0.28206 -0.868,1.5188 -0.34318,1.5188 0.59695,0 1.56286,-0.63417 1.81766,-1.1934 0.43841,-0.96222 0.0385,-1.05048 -1.47448,-0.3254 z m -15.79694,1.45265 c -0.15669,0.51861 -0.0838,0.59578 0.56557,0.59893 0.40999,0.002 1.01332,0.0754 1.34075,0.16315 0.50633,0.13569 0.59531,0.0561 0.59531,-0.53278 0,-0.6739 -0.19412,-0.79911 -1.10104,-0.71012 -0.24177,0.0237 -0.5231,-0.092 -0.62518,-0.25717 -0.22387,-0.36224 -0.53145,-0.0695 -0.77541,0.73799 z m 13.04453,0.33073 c -0.27846,0 -0.29814,0.98138 -0.0231,1.15137 0.21973,0.13579 1.91562,-0.51258 1.91562,-0.73239 0,-0.0746 -0.2679,-0.41011 -0.59532,-0.74546 -0.55226,-0.56564 -0.61258,-0.57588 -0.83418,-0.14162 -0.13138,0.25746 -0.33974,0.4681 -0.46302,0.4681 z m -11.73353,1.05834 c 0.0899,0.14552 0.28259,0.26458 0.42811,0.26458 0.14552,0 0.191,-0.11906 0.10106,-0.26458 -0.0899,-0.14552 -0.28258,-0.26459 -0.4281,-0.26459 -0.14552,0 -0.191,0.11907 -0.10107,0.26459 z m -5.36332,2.06705 c -0.0576,0.17281 0.0838,0.3142 0.31419,0.3142 0.23041,0 0.41893,0.1389 0.41893,0.30868 0,0.16977 0.0704,0.23828 0.15645,0.15223 0.086,-0.0861 0.0759,-0.4101 -0.0225,-0.72012 -0.18413,-0.58014 -0.68155,-0.61168 -0.86711,-0.055 z m 27.45603,0.57878 c 0,0.14552 0.12609,0.26458 0.2802,0.26458 0.15411,0 0.20661,-0.11906 0.11668,-0.26458 -0.0899,-0.14552 -0.21603,-0.26458 -0.2802,-0.26458 -0.0642,0 -0.11668,0.11906 -0.11668,0.26458 z m 4.23334,0.66146 c 0,0.68829 -0.39763,0.90631 -0.60319,0.33073 -0.065,-0.1819 -0.22194,-0.23329 -0.34882,-0.1142 -0.261,0.24496 0.95693,1.26686 1.27534,1.07008 0.30369,-0.18769 0.2506,-1.94807 -0.0588,-1.94807 -0.14552,0 -0.26458,0.29766 -0.26458,0.66146 z m -31.35313,1.45521 c 0,0.6103 1.55429,0.53168 1.67298,-0.0846 0.0771,-0.40039 -0.056,-0.46725 -0.79013,-0.39688 -0.57076,0.0547 -0.88285,0.22492 -0.88285,0.4815 z m 15.74271,1.5875 c 0,0.14552 0.17859,0.26458 0.39687,0.26458 0.21828,0 0.39688,-0.11906 0.39688,-0.26458 0,-0.14552 -0.1786,-0.26459 -0.39688,-0.26459 -0.21828,0 -0.39687,0.11907 -0.39687,0.26459 z m 5.5811,0.95599 c 0.38445,0.46323 0.62993,0.28216 0.40658,-0.29989 -0.0897,-0.23378 -0.28879,-0.34738 -0.44241,-0.25244 -0.19181,0.11854 -0.18058,0.29156 0.0358,0.55233 z m 1.56265,0.77428 c 0,0.35406 0.98684,0.81067 1.2289,0.56861 0.0719,-0.0719 -0.0179,-0.36853 -0.19939,-0.65922 -0.3497,-0.55995 -1.02951,-0.50012 -1.02951,0.0906 z m -35.71875,1.70931 c 0,0.29104 0.0456,0.52917 0.10143,0.52917 0.0558,0 0.1637,-0.23813 0.23981,-0.52917 0.0761,-0.29104 0.0305,-0.52917 -0.10143,-0.52917 -0.1319,0 -0.23981,0.23813 -0.23981,0.52917 z m -21.65145,-0.18577 c -0.21793,0.26259 -0.10504,0.41131 0.47975,0.63205 0.61902,0.23365 0.79335,0.21409 0.91491,-0.10269 0.0826,-0.21524 0.0832,-0.49966 0.001,-0.63205 -0.21936,-0.35493 -1.06809,-0.2925 -1.39606,0.10269 z m 35.1452,0.43474 c 0,0.28245 0.10659,0.57943 0.23686,0.65994 0.28432,0.17572 0.62115,-0.59088 0.40984,-0.93279 -0.26067,-0.42178 -0.6467,-0.25891 -0.6467,0.27285 z m 3.90371,1.56664 c -0.76728,0.47737 -0.93754,0.71225 -0.754,1.04022 0.14177,0.25333 0.13505,0.69194 -0.0167,1.09113 -0.3267,0.85928 0.13345,1.21632 2.09149,1.62281 1.51613,0.31474 1.97758,0.27297 3.50677,-0.31744 1.11801,-0.43166 1.36918,-0.72388 1.20514,-1.4021 -0.0686,-0.28347 -0.005,-0.65983 0.1417,-0.83634 0.18195,-0.21924 0.16572,-0.38314 -0.0512,-0.51721 -0.37848,-0.23392 -1.03104,0.56758 -1.03104,1.26636 0,1.06868 -0.81446,0.80849 -2.26245,-0.72277 -0.79294,-0.83854 -1.44171,-1.63744 -1.44171,-1.77533 0,-0.29426 -0.0824,-0.26156 -1.38796,0.55067 z m -19.24955,-0.24373 c 0,0.31218 0.51604,0.64612 0.70556,0.45659 0.18953,-0.18952 -0.14442,-0.70555 -0.45659,-0.70555 -0.13693,0 -0.24897,0.11203 -0.24897,0.24896 z m 3.44547,0.21406 c 0.003,0.10914 0.21965,0.47633 0.48093,0.81598 0.34716,0.45129 0.6839,0.59375 1.25088,0.52917 0.96164,-0.10954 1.02187,-0.74204 0.11439,-1.20115 -0.72828,-0.36845 -1.85546,-0.45637 -1.8462,-0.144 z m 11.80225,0.46937 c -0.0851,0.22178 -0.42265,0.50234 -0.75009,0.62347 -0.58083,0.21487 -0.57484,0.23085 0.24558,0.65511 1.08575,0.56146 1.06039,0.56854 1.26267,-0.35243 0.24871,-1.13237 -0.38294,-1.90396 -0.75816,-0.92615 z m -32.57605,0.38749 c -0.0927,0.14999 0.0135,0.19434 0.24897,0.10399 0.45837,-0.17589 0.54223,-0.36554 0.16165,-0.36554 -0.13694,0 -0.32172,0.1177 -0.41062,0.26155 z m -5.47114,1.49925 c -0.26613,0.24083 -0.48386,0.7096 -0.48386,1.0417 0,0.54919 0.0898,0.58965 0.99219,0.44724 1.06269,-0.16769 1.37858,-0.44766 1.38501,-1.22753 0.003,-0.33607 -0.1257,-0.44153 -0.40657,-0.33375 -0.23545,0.0904 -0.34166,0.046 -0.24896,-0.10399 0.26829,-0.43411 -0.71864,-0.29352 -1.23781,0.17633 z m 27.94398,2.94273 c 0.22082,0.22082 0.67616,-0.24567 0.66791,-0.68425 -0.007,-0.39281 -0.0555,-0.38519 -0.39414,0.0625 -0.21215,0.28042 -0.33534,0.56023 -0.27377,0.6218 z m -34.4601,0.11375 c -0.0435,0.22429 0.10531,0.47858 0.33073,0.56508 0.30411,0.1167 0.40986,-0.0169 0.40986,-0.51792 0,-0.72758 -0.60112,-0.76586 -0.74059,-0.0472 z m 54.45101,-0.0548 c 0,0.14552 0.12609,0.26458 0.2802,0.26458 0.15411,0 0.20661,-0.11906 0.11668,-0.26458 -0.0899,-0.14552 -0.21603,-0.26458 -0.2802,-0.26458 -0.0642,0 -0.11668,0.11906 -0.11668,0.26458 z m 12.8184,0.8841 c -0.23322,-0.0895 -0.37671,0.15482 -0.43947,0.74828 l -0.0932,0.88116 -0.36763,-0.73445 c -0.37468,-0.74855 -0.81133,-0.83588 -1.02183,-0.20437 -0.0697,0.20925 0.004,0.27641 0.1819,0.16629 0.43075,-0.26622 0.36811,0.4237 -0.099,1.09063 -0.3735,0.53324 -0.34973,0.59218 0.38704,0.95973 0.72806,0.3632 0.79666,0.35478 0.94615,-0.11623 0.0887,-0.2793 0.27189,-0.4394 0.40721,-0.35577 0.32025,0.19793 0.80496,-1.07928 0.60618,-1.59728 -0.0842,-0.21954 -0.0214,-0.39917 0.13971,-0.39917 0.1611,0 0.2929,-0.20241 0.2929,-0.44979 0,-0.33244 -0.0774,-0.37235 -0.29683,-0.15297 -0.16325,0.16325 -0.45265,0.23703 -0.64311,0.16394 z m -30.2809,2.3233 c 0,0.7141 0.11521,1.02593 0.37905,1.02593 0.50445,0 0.76022,-0.88128 0.54291,-1.87067 -0.14309,-0.65149 -0.24524,-0.74283 -0.54888,-0.49082 -0.20519,0.17029 -0.37308,0.77129 -0.37308,1.33556 z m -34.13125,-1.35532 c 0,0.14552 0.12609,0.26459 0.2802,0.26459 0.15411,0 0.20661,-0.11907 0.11668,-0.26459 -0.0899,-0.14552 -0.21603,-0.26458 -0.2802,-0.26458 -0.0642,0 -0.11668,0.11906 -0.11668,0.26458 z m 32.3433,0.30629 c -0.23199,0.23199 -0.40527,0.22413 -0.71438,-0.0324 -0.22445,-0.18627 -0.40809,-0.22639 -0.40809,-0.0891 0,0.14726 -0.56907,0.17654 -1.38843,0.0714 -1.03882,-0.13327 -1.45582,-0.0859 -1.65607,0.1879 -0.1472,0.20131 -0.5642,0.33257 -0.92667,0.2917 -0.55999,-0.0632 -0.64804,0.0237 -0.58588,0.57812 0.13541,1.20784 0.79716,1.90075 1.72907,1.81051 0.50226,-0.0486 0.81684,-0.21552 0.77746,-0.41243 -0.0364,-0.1819 0.17198,-0.33073 0.46302,-0.33073 0.29105,0 0.52917,0.12899 0.52917,0.28664 0,0.15764 0.14883,0.23459 0.33073,0.17098 0.1819,-0.0636 0.29574,-0.31165 0.25298,-0.55121 -0.0518,-0.2902 0.10676,-0.43557 0.47505,-0.43557 0.57218,0 1.85166,-1.08864 1.85166,-1.57548 0,-0.36565 -0.34846,-0.35148 -0.72962,0.0297 z m 16.60462,8.67034 c 0,0.33838 1.31288,1.34212 1.75547,1.34212 0.56332,0 0.4245,-0.7194 -0.22684,-1.17562 -0.6489,-0.4545 -1.52863,-0.55032 -1.52863,-0.1665 z m -39.85109,0.16536 c 0.20969,0.54643 -0.57326,1.71116 -1.03194,1.53515 -0.19902,-0.0764 -0.39839,-0.29886 -0.44306,-0.49441 -0.0579,-0.25329 -0.2965,-0.16918 -0.82974,0.29242 l -0.74854,0.64798 0.74854,1.18484 c 0.76928,1.21767 0.99423,1.37986 1.2777,0.9212 0.0899,-0.14552 0.28925,-0.26458 0.44292,-0.26458 0.16521,0 0.12253,0.24331 -0.10442,0.59531 -0.2111,0.32742 -0.45306,0.86816 -0.5377,1.20163 -0.13719,0.54055 -0.0414,0.50467 0.88331,-0.33072 0.57047,-0.51538 1.15593,-0.93706 1.30103,-0.93706 0.1451,0 0.26382,-0.28313 0.26382,-0.62918 0,-0.35784 0.25517,-0.79862 0.59168,-1.02205 0.51108,-0.33934 0.54271,-0.45186 0.23219,-0.82602 -0.52185,-0.62879 -0.77453,-0.53959 -1.20876,0.42673 l -0.3864,0.8599 0.0363,-0.92604 c 0.0672,-1.71275 -0.0569,-2.64584 -0.35167,-2.64584 -0.16109,0 -0.22196,0.18484 -0.13528,0.41074 z m 29.00407,0.33426 c -5.3e-4,0.046 0.12783,0.32407 0.28516,0.61805 0.23559,0.44019 0.50404,0.52025 1.52136,0.45373 0.69672,-0.0456 1.51627,0.0754 1.87977,0.27747 0.59087,0.32845 0.69708,0.29709 1.27686,-0.37695 0.45151,-0.52491 0.54217,-0.79094 0.31697,-0.93013 -0.29605,-0.18297 -5.27817,-0.22276 -5.28012,-0.0422 z m 0.13139,2.43 c -0.26339,0.29105 -0.43067,0.53737 -0.37173,0.5474 1.5639,0.26607 2.02346,0.0818 1.7264,-0.69236 -0.20724,-0.54005 -0.7913,-0.47755 -1.35467,0.14496 z m 9.39271,0.67708 c 0,0.22687 0.12101,0.3377 0.2689,0.2463 0.14789,-0.0914 0.2004,-0.27702 0.11668,-0.41249 -0.22681,-0.36699 -0.38558,-0.29856 -0.38558,0.16619 z m -35.45417,0.10398 c 0,0.26567 0.81473,0.60908 1.00162,0.42219 0.21063,-0.21063 -0.50748,-0.94824 -0.76701,-0.78784 -0.12903,0.0797 -0.23461,0.24429 -0.23461,0.36565 z m 30.95626,0.1606 c 0,0.22687 0.121,0.33771 0.26889,0.2463 0.1479,-0.0914 0.2004,-0.27702 0.11668,-0.41249 -0.22681,-0.36699 -0.38557,-0.29856 -0.38557,0.16619 z m -13.61475,0.0984 c -0.0837,0.13546 -0.0312,0.32108 0.11668,0.41249 0.14789,0.0914 0.2689,-0.0194 0.2689,-0.2463 0,-0.46475 -0.15877,-0.53318 -0.38558,-0.16619 z m 15.34584,1.05833 c -0.19568,0.3166 0.30205,0.6303 0.65447,0.41249 0.2959,-0.18288 0.10165,-0.65879 -0.2689,-0.65879 -0.12834,0 -0.30185,0.11083 -0.38557,0.2463 z m 3.5119,4.36893 c -0.26765,0.18316 -0.36328,0.43799 -0.2395,0.63826 0.16144,0.26122 0.41532,0.23356 1.17314,-0.12782 1.15363,-0.55012 1.30385,-1.1456 0.23951,-0.94944 -0.40018,0.0738 -0.9281,0.27131 -1.17315,0.439 z m -1.40654,1.24511 c -0.43099,0.082 -0.52916,0.31068 -0.52916,1.23244 0,0.97446 0.0884,1.15396 0.63626,1.29177 0.85227,0.21437 1.49598,-0.24777 1.41188,-1.01366 -0.10175,-0.92669 -0.64833,-2.15232 -0.83087,-1.86311 -0.0874,0.13851 -0.39706,0.29716 -0.68811,0.35256 z m 2.75828,0.827 c 0.0327,0.31636 0.39563,0.2551 0.50933,-0.086 0.0582,-0.17462 -0.037,-0.26987 -0.21167,-0.21166 -0.17462,0.0582 -0.30857,0.19215 -0.29766,0.29765 z m -13.91038,3.77149 c -0.21211,0.55274 0.47224,3.52897 0.89144,3.87688 0.51047,0.42365 1.05734,-0.16456 1.1872,-1.27694 0.0826,-0.70732 -0.0104,-1.02106 -0.36901,-1.245 -0.27466,-0.17153 -0.4794,-0.6112 -0.4794,-1.0295 0,-0.55748 -0.12708,-0.73011 -0.53747,-0.73011 -0.29561,0 -0.60735,0.1821 -0.69276,0.40467 z m -26.01419,0.11417 c -0.21407,0.13538 -0.3085,0.32686 -0.20985,0.42551 0.24212,0.24212 0.99593,-0.0658 0.99593,-0.40688 0,-0.33604 -0.27392,-0.34254 -0.78608,-0.0186 z m 26.71525,5.83947 c 0,0.29561 0.1786,0.606 0.39688,0.68976 0.61353,0.23544 0.47286,0.5466 -0.3818,0.84453 -0.84729,0.29537 -2.091,2.30815 -1.68011,2.71904 0.13018,0.13018 0.6266,0.0172 1.14429,-0.26045 1.30167,-0.69809 2.29604,-3.44297 1.52616,-4.21285 -0.48945,-0.48945 -1.00542,-0.37656 -1.00542,0.21997 z m -6.0453,0.90796 c -0.11369,0.58651 0.38514,0.92643 1.36735,0.93177 0.62321,0.003 0.73209,-0.0939 0.66146,-0.59126 -0.0602,-0.424 -0.25586,-0.58927 -0.67986,-0.57431 -0.32742,0.0116 -0.59532,-0.0877 -0.59532,-0.22048 0,-0.43209 -0.65879,-0.035 -0.75363,0.45428 z m -9.30053,0.14207 c 0,0.14552 0.11203,0.26458 0.24897,0.26458 0.13693,0 0.32255,-0.11906 0.41249,-0.26458 0.0899,-0.14552 -0.0221,-0.26458 -0.24897,-0.26458 -0.22687,0 -0.41249,0.11906 -0.41249,0.26458 z m 18.25625,1.47082 c 0,0.22687 0.11906,0.33891 0.26458,0.24897 0.15006,-0.0927 0.26459,0.12955 0.26459,0.51355 0,0.37239 0.11906,0.67708 0.26458,0.67708 0.44325,0 0.29489,-1.10928 -0.19844,-1.48377 -0.58991,-0.44781 -0.59531,-0.44741 -0.59531,0.0442 z m -6.71027,1.04272 c -0.17025,0.44369 -0.12663,0.46558 0.47092,0.23628 0.51691,-0.19836 0.55121,-0.63315 0.0499,-0.63315 -0.20272,0 -0.4371,0.17859 -0.52087,0.39687 z m 3.87151,1.0859 c 0.0879,0.0879 0.31612,0.0973 0.50712,0.0209 0.21106,-0.0845 0.14837,-0.14716 -0.15986,-0.15985 -0.27891,-0.0115 -0.43518,0.0511 -0.34726,0.13896 z m -1.59849,1.43276 c -0.0418,0.2211 0.0988,0.63781 0.31239,0.92604 0.34445,0.4648 0.43184,0.47918 0.773,0.12718 0.21156,-0.21829 0.46763,-0.67311 0.56905,-1.01072 0.16996,-0.56579 0.11539,-0.60722 -0.69704,-0.52917 -0.5299,0.0509 -0.91174,0.245 -0.9574,0.48667 z m 12.96455,0.73902 c -0.0576,0.17281 0.0838,0.3142 0.31419,0.3142 0.23041,0 0.41893,-0.18852 0.41893,-0.41893 0,-0.46723 -0.56959,-0.38586 -0.73312,0.10473 z m -8.95248,-0.061 c 0.0883,0.23018 0.1606,0.52784 0.1606,0.66146 0,0.13362 0.11906,0.24294 0.26458,0.24294 0.29558,0 0.36266,-0.87205 0.0882,-1.14652 -0.33486,-0.33487 -0.6735,-0.17516 -0.51337,0.24212 z m 9.15643,0.9044 c 0,0.14552 0.11906,0.26459 0.26458,0.26459 0.14552,0 0.26459,-0.11907 0.26459,-0.26459 0,-0.14552 -0.11907,-0.26458 -0.26459,-0.26458 -0.14552,0 -0.26458,0.11906 -0.26458,0.26458 z m -17.59479,0.52917 c -0.0899,0.14552 -0.0445,0.26458 0.10106,0.26458 0.14552,0 0.33817,-0.11906 0.4281,-0.26458 0.0899,-0.14552 0.0445,-0.26458 -0.10106,-0.26458 -0.14552,0 -0.33817,0.11906 -0.4281,0.26458 z m -9.59115,2.46557 c -0.33645,0.49422 -0.59531,1.27577 -0.59531,1.79736 0,0.5076 -0.14373,1.06663 -0.31939,1.24229 -0.4738,0.4738 0.3464,1.22042 1.08363,0.98643 0.56707,-0.17998 0.79196,-0.9354 0.27848,-0.9354 -0.15411,0 -0.20542,-0.12101 -0.11401,-0.2689 0.0914,-0.14789 0.27786,-0.19988 0.41436,-0.11552 0.43137,0.2666 0.58248,-0.65155 0.24236,-1.47265 -0.25567,-0.61724 -0.25727,-0.87316 -0.007,-1.17429 0.30547,-0.36807 0.18051,-0.93939 -0.20464,-0.93558 -0.10055,0.001 -0.45071,0.39531 -0.77813,0.87626 z m -2.01627,1.79494 c -0.18885,0.94427 0.0457,1.53919 0.39165,0.99326 0.29816,-0.47056 0.30116,-1.81419 0.004,-1.81419 -0.12734,0 -0.3054,0.36942 -0.3957,0.82093 z m -3.60613,-0.0272 c 0,0.14552 0.12609,0.26459 0.2802,0.26459 0.15411,0 0.20662,-0.11907 0.11668,-0.26459 -0.0899,-0.14552 -0.21603,-0.26458 -0.2802,-0.26458 -0.0642,0 -0.11668,0.11906 -0.11668,0.26458 z m 17.7324,1.46161 c 0.18407,0.22179 0.38917,0.34878 0.45576,0.28218 0.18349,-0.18349 -0.18932,-0.68545 -0.50908,-0.68545 -0.17545,0 -0.15537,0.15181 0.0533,0.40327 z m 1.13687,0.70467 c 0.0845,0.21106 0.14715,0.14837 0.15985,-0.15985 0.0115,-0.27892 -0.0511,-0.43519 -0.13897,-0.34727 -0.0879,0.0879 -0.0973,0.31612 -0.0209,0.50712 z m -20.53169,0.5457 c -0.84183,0.39237 -1.43587,1.73045 -0.86541,1.94936 0.57236,0.21963 2.02758,-0.65042 1.94149,-1.16078 -0.051,-0.30261 0.22168,-0.54855 0.85093,-0.76739 l 0.92604,-0.32205 -1.07173,-0.0149 c -0.58945,-0.008 -1.39105,0.13389 -1.78132,0.31579 z m 4.17035,5.28255 c 0.11425,1.53177 0.62443,1.60761 0.60148,0.0894 -0.0118,-0.78261 -0.13499,-1.20478 -0.35144,-1.20478 -0.22837,0 -0.30705,0.35097 -0.25004,1.11536 z m 0.22149,5.40641 c 0.10256,0.10256 0.36004,-0.043 0.5722,-0.32338 0.59532,-0.78689 0.47212,-1.09389 -0.17806,-0.4437 -0.31934,0.31933 -0.4967,0.66452 -0.39414,0.76708 z m 8.42983,-0.26596 c 0.0471,0.23924 0.40747,0.6751 0.80093,0.96858 0.57941,0.43217 0.79016,0.47155 1.10875,0.20714 0.45298,-0.37595 0.28014,-1.08153 -0.26494,-1.08153 -0.20271,0 -0.36857,-0.11906 -0.36857,-0.26458 0,-0.14552 -0.30639,-0.26459 -0.68086,-0.26459 -0.49001,0 -0.65688,0.12193 -0.59531,0.43498 z m -6.34383,2.79294 c -0.40511,0.40511 -0.4113,1.44538 -0.0101,1.69336 0.17399,0.10753 0.51685,-0.0686 0.78991,-0.40583 0.36699,-0.45322 0.41784,-0.71661 0.21242,-1.10043 -0.31305,-0.58494 -0.54979,-0.62958 -0.99227,-0.1871 z"
       id="path4518" />
  </g>
  <inkscape:templateinfo>
    <inkscape:name>Map Maker Prototype</inkscape:name>
    <inkscape:author>Footlose</inkscape:author>
    <inkscape:date>2020-09-15</inkscape:date>
  </inkscape:templateinfo>
</svg>
