<?xml version="1.0" encoding="UTF-8" standalone="no"?>
<svg
   xmlns:dc="http://purl.org/dc/elements/1.1/"
   xmlns:cc="http://creativecommons.org/ns#"
   xmlns:rdf="http://www.w3.org/1999/02/22-rdf-syntax-ns#"
   xmlns:svg="http://www.w3.org/2000/svg"
   xmlns="http://www.w3.org/2000/svg"
   xmlns:sodipodi="http://sodipodi.sourceforge.net/DTD/sodipodi-0.dtd"
   xmlns:inkscape="http://www.inkscape.org/namespaces/inkscape"
   width="210mm"
   height="297mm"
   viewBox="0 0 210 297"
   version="1.1"
   id="svg1177"
   inkscape:version="1.0 (4035a4fb49, 2020-05-01)"
   sodipodi:docname="TreeClean.svg">
  <defs
     id="defs1171">
    <inkscape:path-effect
       back_thickness="0.25"
       front_thickness="1"
       stroke_width_bottom="1"
       stroke_width_top="1"
       fat_output="true"
       bottom_smth_variation="0;1"
       top_smth_variation="0;1"
       scale_tb="1"
       scale_tf="1"
       scale_bb="1"
       scale_bf="1"
       top_tgt_variation="0;1"
       bottom_tgt_variation="0;1"
       top_edge_variation="5.0591072;1"
       bottom_edge_variation="5.0591072;1"
       bender="137.74469,97.978783 , 5,0"
       do_bend="true"
       growth="0"
       dist_rdm="75;1"
       direction="137.74469,92.978783 , 24.246161,0"
       lpeversion="1"
       is_visible="true"
       id="path-effect4372"
       effect="rough_hatches" />
    <inkscape:path-effect
       back_thickness="0.25"
       front_thickness="1"
       stroke_width_bottom="1"
       stroke_width_top="1"
       fat_output="true"
       bottom_smth_variation="0;1"
       top_smth_variation="0;1"
       scale_tb="1"
       scale_tf="1"
       scale_bb="1"
       scale_bf="1"
       top_tgt_variation="0;1"
       bottom_tgt_variation="0;1"
       top_edge_variation="3.1537803;1"
       bottom_edge_variation="3.1537803;1"
       bender="103.56547,140.98511 , 5,0"
       do_bend="true"
       growth="0"
       dist_rdm="75;1"
       direction="103.56547,135.98511 , 7.8844507,0"
       lpeversion="1"
       is_visible="true"
       id="path-effect3734"
       effect="rough_hatches" />
    <inkscape:path-effect
       close="true"
       join="true"
       fuse="false"
       reversesecond="false"
       secondpath=""
       linkedpath=""
       lpeversion="1"
       is_visible="true"
       id="path-effect3730"
       effect="fill_between_strokes" />
    <inkscape:path-effect
       back_thickness="0.25"
       front_thickness="1"
       stroke_width_bottom="1"
       stroke_width_top="1"
       fat_output="true"
       bottom_smth_variation="0;1"
       top_smth_variation="0;1"
       scale_tb="1"
       scale_tf="1"
       scale_bb="1"
       scale_bf="1"
       top_tgt_variation="0;1"
       bottom_tgt_variation="0;1"
       top_edge_variation="6.5617528;1"
       bottom_edge_variation="6.5617528;1"
       bender="120.9604,223.28488 , 5,0"
       do_bend="true"
       growth="0"
       dist_rdm="75;1"
       direction="120.9604,218.28488 , 26.753216,0"
       lpeversion="1"
       is_visible="true"
       id="path-effect3728"
       effect="rough_hatches" />
    <inkscape:path-effect
       scale_y_rel="false"
       prop_scale="1"
       strokepath="M0,0 L1,0"
       endpoint_spacing_variation="0;1"
       endpoint_edge_variation="0;1"
       startpoint_spacing_variation="0;1"
       startpoint_edge_variation="0;1"
       count="5"
       lpeversion="1"
       is_visible="true"
       id="path-effect3726"
       effect="curvestitching" />
    <inkscape:path-effect
       update_on_knot_move="true"
       attempt_force_join="true"
       miter_limit="4"
       offset="0"
       unit="mm"
       linejoin_type="miter"
       lpeversion="1"
       is_visible="true"
       id="path-effect3724"
       effect="offset" />
    <inkscape:path-effect
       back_thickness="0.25"
       front_thickness="1"
       stroke_width_bottom="1"
       stroke_width_top="1"
       fat_output="true"
       bottom_smth_variation="0;1"
       top_smth_variation="0;1"
       scale_tb="1"
       scale_tf="1"
       scale_bb="1"
       scale_bf="1"
       top_tgt_variation="0;1"
       bottom_tgt_variation="0;1"
       top_edge_variation="6.5617528;1"
       bottom_edge_variation="6.5617528;1"
       bender="120.9604,223.28488 , 5,0"
       do_bend="true"
       growth="0"
       dist_rdm="75;1"
       direction="120.9604,218.28488 , 26.753216,0"
       lpeversion="1"
       is_visible="true"
       id="path-effect3722"
       effect="rough_hatches" />
    <marker
       id="CheckToolsAndOPMarker"
       orient="auto"
       refX="-4"
       refY="-1.687441"
       style="overflow:visible">
      <path
         d="m 4.588864,-1.687441 0.0,0.0 L 9.177728,0.0 c -0.73311,-0.996261 -0.728882,-2.359329 0.0,-3.374882"
         style="fill:#000044;fill-rule:evenodd;stroke:none"
         id="path3754" />
    </marker>
    <marker
       id="DrawCurveMarker"
       orient="auto"
       refX="-4"
       refY="-1.687441"
       style="overflow:visible">
      <path
         d="m 4.588864,-1.687441 0.0,0.0 L 9.177728,0.0 c -0.73311,-0.996261 -0.728882,-2.359329 0.0,-3.374882"
         style="fill:#000044;fill-rule:evenodd;stroke:none"
         id="path3757" />
    </marker>
    <marker
       id="DrawCurveMarker_r"
       orient="auto"
       refX="4"
       refY="-1.687441"
       style="overflow:visible">
      <path
         d="m -4.588864,-1.687441 0.0,0.0 L -9.177728,0.0 c 0.73311,-0.996261 0.728882,-2.359329 0.0,-3.374882"
         style="fill:#000044;fill-rule:evenodd;stroke:none"
         id="path3760" />
    </marker>
    <marker
       id="InOutPathMarker"
       orient="auto"
       refX="-4"
       refY="-1.687441"
       style="overflow:visible">
      <path
         d="m 4.588864,-1.687441 0.0,0.0 L 9.177728,0.0 c -0.73311,-0.996261 -0.728882,-2.359329 0.0,-3.374882"
         style="fill:#0072a7;fill-rule:evenodd;stroke:none"
         id="path3763" />
    </marker>
  </defs>
  <sodipodi:namedview
     inkscape:window-maximized="1"
     inkscape:window-y="-9"
     inkscape:window-x="2391"
     inkscape:window-height="1001"
     inkscape:window-width="1920"
     showgrid="false"
     inkscape:document-rotation="0"
     inkscape:current-layer="layer1"
     inkscape:document-units="mm"
     inkscape:cy="160.54437"
     inkscape:cx="1020.0156"
     inkscape:zoom="0.24148325"
     inkscape:pageshadow="2"
     inkscape:pageopacity="0.0"
     borderopacity="1.0"
     bordercolor="#666666"
     pagecolor="#ffffff"
     id="base" />
  <metadata
     id="metadata1174">
    <rdf:RDF>
      <cc:Work
         rdf:about="">
        <dc:format>image/svg+xml</dc:format>
        <dc:type
           rdf:resource="http://purl.org/dc/dcmitype/StillImage" />
        <dc:title></dc:title>
      </cc:Work>
    </rdf:RDF>
  </metadata>
  <g
     id="layer1"
     inkscape:groupmode="layer"
     inkscape:label="Layer 1">
    <g
       id="g4003" />
    <g
       id="g4335" />
    <g
       id="g4513" />
    <path
       sodipodi:nodetypes="cssssssscccssssssssssssscsssssssscsssssssssssscscsssssssssscsssssssssssssssssssssssssssssscsssssssssssssssssssssssssssccsssssssssssssscsssssssssssscssscsssssssssssssssssssssssssssssssccsscssssssssssssssssscsssssssssssssssssssssssscssssssssssssssscsssccsssssssssssssssssssssssssssscsssscssssssscsscsssssssssssssssssssssssssssssssssssscssssscsssscscssscsssscsssssssssssssssssssscsssssssssssssssccssssscssssscsssssssssssssssscsssssscsssssssssssssssssssssssssssssssssssssscssssssssssssscsscsscsssssssssssssssssssssssscssscsssssscssssssssssssscsscsssssssssssssssssssssssssscsssssscssscsssssssssssssssssssssscsssssssssscssssssssscssssssssssssssssssssssssscsscsscssssssssssssssssssssssssssssssssssssssssscsssssssscsssscsssssssscscsssssssssssssssssssssssssssssssssssssssssscsssssssccscssssscssssssssssssssssssssssssssssssssssssssssssssssssssssssssssscsssssssssssscsssssssssssssssssssscsssssssssssscsscsscssscssccccsscsscssssssssssssssssssssssssssssscssssscsssssssccssssssssss"
       id="path5573"
       d="m 107.14033,22.867838 c 1.92556,0.37719 3.6274,0.81219 3.78187,0.96666 0.1974,0.19742 0.33322,3.41241 0.4572,10.82331 0.097,5.79836 0.23628,11.31115 0.30951,12.25065 0.0732,0.9395 0.2369,6.43009 0.36372,12.2013 0.12684,5.77122 0.33931,11.42653 0.47217,12.56734 0.36675,3.14937 0.82469,19.92073 0.64965,23.792547 -0.1542,3.41084 0.23642,20.950665 0.5489,24.646645 l 0.16506,1.95221 1.34213,0.12873 1.34215,0.12873 -1.34215,0.23837 c -1.17632,0.20892 -1.34998,0.31361 -1.40562,0.84737 -0.0509,0.48831 0.11837,0.69967 0.85409,1.06648 0.97835,0.48779 1.31529,0.54754 7.78786,1.38093 3.8304,0.4932 4.25018,0.50696 4.94153,0.16208 0.68333,-0.34089 0.75553,-0.34043 0.75553,0.005 0,0.59826 4.0419,0.30143 4.52177,-0.33207 0.45439,-0.59986 0.45045,-1.3072 -0.007,-1.3072 -0.20132,0 -0.36603,0.13333 -0.36603,0.29631 0,0.18469 -0.15796,0.13836 -0.4193,-0.12298 -0.39639,-0.39638 -0.39181,-0.4468 0.0838,-0.92236 0.27668,-0.27669 0.65754,-0.52642 0.84634,-0.55495 0.18881,-0.0285 0.47695,-0.13543 0.64033,-0.23752 0.1791,-0.11192 0.41736,0.007 0.60004,0.29952 0.2934,0.46981 0.33603,0.45806 1.34878,-0.37181 1.01874,-0.83478 1.65501,-0.93112 1.37776,-0.20859 -0.22976,0.59874 0.61793,0.41455 1.2548,-0.27266 0.41783,-0.45084 0.72788,-0.58542 1.08647,-0.47161 0.29243,0.0928 0.50179,0.0506 0.50179,-0.1012 0,-0.61401 0.46245,-0.17278 0.99535,0.94965 0.53192,1.12039 0.60575,1.18186 0.9956,0.82905 0.37159,-0.33629 0.54218,-0.34071 1.45161,-0.0375 l 1.03053,0.34351 0.78693,-0.85869 c 0.65939,-0.71952 0.84709,-0.80876 1.1581,-0.55064 0.47988,0.39827 0.72403,0.0197 0.51764,-0.80255 -0.12959,-0.51635 -0.0703,-0.62129 0.35091,-0.62129 0.37728,0 0.46843,-0.10918 0.35658,-0.42705 -0.12266,-0.3486 -0.0899,-0.37101 0.17848,-0.12201 0.42877,0.39784 0.98172,0.39317 0.82816,-0.007 -0.0658,-0.17161 0.0348,-0.52335 0.22363,-0.78162 0.30544,-0.41771 0.44598,-0.43811 1.27189,-0.18463 0.61728,0.18945 1.02611,0.20397 1.21969,0.0434 0.20107,-0.16687 0.33536,-0.12646 0.43401,0.13062 0.21787,0.56776 0.79697,0.44701 1.59433,-0.33244 l 0.7209,-0.7047 0.14138,0.56329 c 0.0777,0.30982 0.0816,0.71916 0.008,0.90964 -0.0731,0.19049 0.0255,0.47778 0.21906,0.63843 0.19357,0.16066 0.29557,0.50768 0.22667,0.77117 -0.0693,0.26487 -0.004,0.47909 0.14721,0.47909 0.14988,0 0.2725,-0.27453 0.2725,-0.61006 0,-0.33555 0.10636,-0.61007 0.23637,-0.61007 0.13,0 0.17315,-0.16472 0.0959,-0.36604 -0.10629,-0.27697 0.0441,-0.36604 0.61772,-0.36604 0.63616,0 0.75819,0.0936 0.75819,0.58161 0,0.37637 -0.17222,0.62664 -0.48806,0.70923 -0.67016,0.17525 -0.61853,0.71126 0.061,0.63332 0.30198,-0.0347 0.79198,0.0184 1.0889,0.11806 0.80779,0.27092 2.03202,-0.5819 3.03384,-2.1134 0.0872,-0.13319 0.55354,0.1557 1.04525,0.64741 0.48836,0.48836 1.09044,0.88793 1.33797,0.88793 0.24752,0 0.57626,0.15209 0.73054,0.33799 0.37329,0.44979 3.72039,0.76623 4.37861,0.41395 0.73923,-0.39562 1.25531,-0.0649 1.76909,1.13372 0.6155,1.43589 0.5857,1.92794 -0.14579,2.40724 -0.49691,0.32559 -0.61006,0.59781 -0.61006,1.4677 0,0.7809 -0.1233,1.14499 -0.45866,1.35443 -0.41918,0.26178 -0.31286,0.41423 1.23539,1.77126 1.5306,1.34156 1.68052,1.5539 1.55388,2.20088 -0.15556,0.79468 -0.78079,1.60218 -1.24055,1.60218 -0.16415,0 -0.44911,-0.22111 -0.63325,-0.49135 -0.24028,-0.35266 -0.63417,-0.50199 -1.39527,-0.52898 -0.63917,-0.0227 -1.11099,-0.16924 -1.18762,-0.36896 -0.10209,-0.26603 -0.1992,-0.27155 -0.49266,-0.028 -0.30062,0.24949 -0.44719,0.20247 -0.8256,-0.26483 -0.25304,-0.31249 -0.46008,-0.77564 -0.46008,-1.0292 0,-0.25356 -0.15849,-0.46101 -0.3522,-0.46101 -0.19371,0 -0.51266,-0.2291 -0.70879,-0.5091 -0.29661,-0.42348 -0.44259,-0.46308 -0.86793,-0.23545 -0.31573,0.16898 -0.51134,0.51388 -0.51134,0.9016 0,0.56261 -0.0695,0.61047 -0.66862,0.46012 -0.36775,-0.0923 -0.73681,-0.27813 -0.82014,-0.41295 -0.0877,-0.14191 -0.21329,-0.0841 -0.29824,0.13724 -0.0854,0.22253 -0.30362,0.32218 -0.52201,0.23838 -0.23649,-0.0907 -0.37528,-0.006 -0.37528,0.2278 0,0.2045 -0.11433,0.40993 -0.25408,0.45651 -0.24195,0.0806 0.37883,1.66416 0.6524,1.66416 0.0652,0 0.0644,-0.0876 -0.002,-0.19467 -0.0662,-0.10707 -0.0289,-0.3427 0.083,-0.52361 0.31065,-0.50263 0.96694,-0.11575 1.34711,0.79411 0.24582,0.58834 0.61575,0.92293 1.33112,1.20394 0.7781,0.30564 0.99069,0.51587 0.99069,0.97967 0,0.3947 -0.2044,0.68366 -0.61637,0.87137 -0.55135,0.25121 -0.64558,0.21673 -0.89326,-0.32687 -0.1523,-0.33424 -0.4256,-0.6077 -0.60735,-0.6077 -0.18175,0 -0.53106,-0.32987 -0.77624,-0.73303 -0.43376,-0.71327 -0.45706,-0.72058 -0.86389,-0.27103 -0.28578,0.31578 -0.91594,0.51533 -1.9909,0.63044 -0.86502,0.0926 -1.57277,0.26078 -1.57277,0.37365 0,0.11287 -0.32944,0.27757 -0.73208,0.366 -0.40264,0.0884 -0.73208,0.2646 -0.73208,0.39147 0,0.41793 1.18009,0.7098 1.84608,0.45659 0.34427,-0.13089 1.08623,-0.23799 1.64879,-0.23799 0.56256,0 1.37751,-0.10172 1.81101,-0.22605 0.8833,-0.25333 1.25953,0.0321 0.78926,0.59873 -0.23599,0.28435 -0.18185,0.40098 0.28402,0.61193 2.03096,0.91962 2.51716,1.35047 2.69418,2.38741 0.0963,0.56406 0.3602,1.33896 0.58648,1.722 0.39466,0.66812 0.3902,0.71765 -0.10973,1.21758 -0.28669,0.28661 -0.6859,0.52112 -0.88723,0.52112 -0.60042,0 -0.41634,0.48188 0.35269,0.92325 1.19737,0.68719 1.16793,1.5197 -0.0704,1.99051 -0.89258,0.33936 -0.78979,1.08191 0.16498,1.19164 0.52711,0.0606 0.71794,-0.0389 0.81945,-0.42705 0.15868,-0.60678 1.29554,-0.72431 1.29554,-0.13393 0,0.55975 1.20159,0.94044 1.85857,0.58884 0.54735,-0.29294 1.06974,-0.15089 1.06974,0.29089 0.69381,1.54028 2.73094,3.44328 1.80645,4.80869 -0.52459,0.74896 -0.0629,1.99236 0.73983,1.99236 0.46202,0 0.54253,0.14809 0.59115,1.08743 0.043,0.8301 -0.0653,1.209 -0.45746,1.60117 -0.28256,0.28257 -0.47954,0.68962 -0.43773,0.90458 0.083,0.42675 -1.05045,1.77539 -1.4921,1.77539 -0.15079,0 -0.37855,-0.27452 -0.50611,-0.61006 -0.27937,-0.73481 -0.40026,-0.7458 -1.34214,-0.12201 -0.92845,0.61488 -1.26946,0.61344 -1.46613,-0.006 -0.1529,-0.48172 -0.17545,-0.47862 -0.88926,0.12201 -0.40282,0.33895 -0.95295,0.61627 -1.22254,0.61627 -0.26958,0 -0.83043,0.38434 -1.24631,0.85409 -0.41589,0.46975 -0.95041,0.85409 -1.18783,0.85409 -0.23742,0 -0.70813,0.12597 -1.04604,0.27992 -0.53558,0.24404 -0.67683,0.20492 -1.10148,-0.30503 -0.26791,-0.32172 -0.49076,-0.72222 -0.49523,-0.88999 -0.005,-0.16776 -0.15998,-0.30503 -0.34559,-0.30503 -0.63298,0 -0.31042,1.34185 0.52286,2.17513 0.69475,0.69476 0.79072,0.94934 0.79072,2.09765 0,1.12744 0.0729,1.33006 0.53046,1.47529 0.36493,0.11582 0.62637,0.0373 0.83777,-0.25189 0.26536,-0.3629 0.426,-0.38109 1.17696,-0.13324 0.47831,0.15785 1.03351,0.52093 1.23377,0.80685 0.33308,0.47554 0.31487,0.57271 -0.21383,1.14044 -0.31787,0.34134 -0.70676,1.02405 -0.8642,1.51714 -0.24216,0.75843 -0.45929,0.95547 -1.40975,1.27933 -0.8359,0.28482 -1.20744,0.31316 -1.45137,0.11071 -0.25828,-0.21435 -0.32786,-0.15315 -0.32786,0.28837 v 0.56047 l -0.56479,-0.53059 c -0.63779,-0.59918 -1.14827,-0.67212 -1.59281,-0.2276 -0.2413,0.24131 -0.34984,0.22889 -0.53312,-0.061 -0.12656,-0.2002 -0.23181,-0.25968 -0.23385,-0.13217 -0.002,0.1275 -0.13552,0.10005 -0.29657,-0.061 -0.22776,-0.22775 -0.22776,-0.35789 0,-0.58566 0.48053,-0.48053 0.35914,-0.98124 -0.19523,-0.80528 -0.27997,0.0888 -0.48805,0.0438 -0.48805,-0.10557 0,-0.14326 -0.16471,-0.26047 -0.36603,-0.26047 -0.20133,0 -0.36605,0.16472 -0.36605,0.36604 0,0.20132 -0.16471,0.36604 -0.36603,0.36604 -0.20336,0 -0.36605,0.21691 -0.36605,0.48805 0,0.51667 -0.59103,0.66967 -0.86631,0.22425 -0.0897,-0.14509 -0.42558,-0.1979 -0.74647,-0.11736 -0.36059,0.0905 -0.58345,0.0398 -0.58345,-0.13274 0,-0.18005 -0.25993,-0.22719 -0.73208,-0.13277 -0.60266,0.12054 -0.73208,0.0665 -0.73208,-0.30566 0,-0.59661 0.56472,-1.06963 0.88938,-0.74497 0.16171,0.16171 0.65359,0.11078 1.46682,-0.15187 1.01793,-0.32875 1.2735,-0.53332 1.52083,-1.2173 0.2254,-0.62335 0.49926,-0.87792 1.13255,-1.05277 0.45938,-0.12684 1.03439,-0.17855 1.27778,-0.1149 0.254,0.0664 0.63652,-0.0986 0.89783,-0.38734 0.25039,-0.27668 0.60296,-0.50306 0.78348,-0.50306 0.43547,0 0.4312,-1.31894 -0.005,-1.68132 -0.25379,-0.21062 -0.40698,-0.18857 -0.63995,0.0921 -0.16844,0.20298 -0.50674,0.36905 -0.75176,0.36905 -0.38969,0 -0.41329,-0.0923 -0.18849,-0.73717 0.26743,-0.76714 -0.0889,-1.60742 -0.55859,-1.31715 -0.35823,0.22139 -0.94987,-1.4268 -0.64434,-1.79498 0.46258,-0.55742 -0.01,-0.6089 -0.75024,-0.0817 -0.39754,0.28308 -0.8431,0.51467 -0.99015,0.51467 -0.14705,0 -0.26736,0.25258 -0.26736,0.56126 0,1.14791 -0.85548,1.32554 -1.78374,0.37037 -0.24288,-0.24991 -0.55386,-0.385 -0.69108,-0.3002 -0.14736,0.091 0.008,0.42373 0.38136,0.81265 l 0.63085,0.65847 -0.50004,0.53674 c -0.34109,0.3661 -0.67333,0.49324 -1.04519,0.39991 -0.44979,-0.1129 -0.5972,0.007 -0.84287,0.68656 -0.43538,1.20404 -0.38374,2.79057 0.0996,3.06108 0.27169,0.15205 0.31028,0.27621 0.12202,0.39257 -0.15145,0.0936 -0.27537,0.39247 -0.27537,0.66417 0,0.65406 -0.58666,0.45209 -0.68804,-0.23687 -0.0885,-0.60149 -0.48033,-0.70475 -0.68181,-0.17969 -0.1119,0.2916 -0.26387,0.27132 -0.90744,-0.1211 -0.42517,-0.25925 -1.10312,-0.47177 -1.50655,-0.47227 -0.5833,-7.3e-4 -0.80128,-0.15402 -1.06447,-0.7486 -0.2258,-0.51011 -0.44979,-0.70209 -0.70493,-0.60418 -0.20568,0.0789 -0.57491,-0.0384 -0.82052,-0.26063 -0.41949,-0.37963 -0.46029,-0.36889 -0.67315,0.17714 -0.31015,0.79561 -1.87882,2.26004 -2.20499,2.05845 -0.51266,-0.31684 -0.20241,0.65318 0.65405,2.04492 0.0358,0.0582 0.19119,-0.0204 0.34535,-0.17452 0.21101,-0.21102 0.35961,-0.17685 0.60136,0.13828 0.28128,0.36667 0.35145,0.37318 0.56601,0.0525 0.13472,-0.20133 0.25121,-0.80529 0.25889,-1.34215 l 0.0139,-0.9761 0.46761,0.85409 c 0.25718,0.46975 0.47219,0.71683 0.47782,0.54906 0.0173,-0.51444 0.49828,-0.33775 0.49828,0.18302 0,0.26842 0.1163,0.48805 0.25843,0.48805 0.14214,0 0.19056,-0.10981 0.10761,-0.24402 -0.0829,-0.13422 -0.04,-0.24403 0.0955,-0.24403 0.13547,0 0.35473,0.19217 0.48726,0.42704 0.19299,0.34205 0.30227,0.36633 0.54898,0.12201 0.4137,-0.40967 0.69847,-0.3848 0.69847,0.061 0,0.43295 0.11773,0.4508 0.74812,0.11342 0.63894,-0.34195 0.63596,-1.05244 -0.004,-0.84947 -0.54775,0.17386 -1.59177,-0.71045 -1.33302,-1.1291 0.10827,-0.1752 0.22834,-0.15289 0.36471,0.0678 0.11182,0.18093 0.34517,0.34064 0.51856,0.35492 0.17339,0.0143 0.50742,0.0427 0.7423,0.0632 0.30148,0.0263 0.42705,0.24819 0.42705,0.75485 0,0.90054 0.2164,1.03434 1.21133,0.749 0.72359,-0.20753 0.78163,-0.18473 0.66504,0.26112 -0.10193,0.3898 -0.0332,0.46181 0.34008,0.35645 0.2573,-0.0726 0.68746,-0.19434 0.95588,-0.2705 0.37533,-0.10648 0.48806,-0.022 0.48806,0.36604 0,0.29893 0.15846,0.5045 0.38888,0.5045 0.21389,0 0.44632,0.21962 0.51652,0.48805 0.17121,0.65474 1.26884,0.64553 2.11202,-0.0177 l 0.64297,-0.50576 v 0.50576 c 0,0.27818 0.10981,0.50577 0.24402,0.50577 0.13422,0 0.24404,0.16472 0.24404,0.36604 0,0.47367 0.22058,0.4629 0.77386,-0.0378 0.41525,-0.37579 0.44626,-0.37579 0.44626,0 0,0.48507 0.9727,0.55227 1.43045,0.0988 0.24688,-0.24456 0.44745,-0.13572 1.0118,0.54907 0.62521,0.75863 0.75953,0.81999 1.20173,0.54905 0.67639,-0.41442 1.16854,-0.3832 1.43391,0.0909 0.20357,0.36377 0.37459,0.36482 2.10008,0.0129 1.03317,-0.2107 2.03701,-0.32225 2.23078,-0.24789 0.56839,0.21811 0.41467,0.99052 -0.22929,1.15214 -0.73521,0.18452 -2.1027,1.4466 -2.1027,1.94061 0,0.48217 0.43978,0.60337 2.75402,0.75903 1.04497,0.0703 2.09058,0.22982 2.32358,0.35451 0.23301,0.12471 0.92563,0.21915 1.53915,0.20987 1.3824,-0.0208 1.68013,0.15432 1.68014,0.98878 1e-5,0.65359 0.8413,1.52204 2.15006,2.21943 0.31013,0.16526 0.52011,0.43032 0.46663,0.58899 -0.0936,0.27771 0.48328,0.87481 0.86068,0.89081 0.10066,0.005 0.1847,-0.23931 0.18675,-0.54129 0.003,-0.37721 0.0659,-0.45099 0.20253,-0.23576 0.24458,0.38546 1.01387,0.12793 1.01387,-0.33941 0,-0.18696 0.0928,-0.33993 0.2062,-0.33993 0.32344,0 1.01393,0.85378 1.01393,1.25371 0,0.19865 0.15216,0.56929 0.33814,0.82362 0.39649,0.54224 0.1082,1.45986 -0.65778,2.09375 -0.29872,0.2472 -0.41687,0.5581 -0.32462,0.85409 0.19504,0.62577 -0.08,1.00297 -0.87723,1.20306 -0.56016,0.14059 -0.70857,0.0652 -0.96074,-0.48827 -0.16403,-0.36002 -0.73146,-0.87557 -1.26095,-1.1457 -0.81804,-0.41734 -1.04919,-0.44487 -1.53808,-0.18322 -0.31646,0.16936 -0.57536,0.45408 -0.57536,0.63272 0,0.17865 -0.10416,0.32481 -0.23147,0.32481 -0.45138,0 -1.41898,1.11545 -2.04889,2.36198 -0.35128,0.69514 -0.7262,1.31796 -0.83317,1.38407 -0.10695,0.0661 -0.46054,-0.0805 -0.78572,-0.32579 -0.44953,-0.33906 -0.58516,-0.66115 -0.56581,-1.34359 0.0235,-0.82958 -0.0189,-0.8865 -0.559,-0.75093 -0.32144,0.0807 -0.98137,-0.0192 -1.46651,-0.22187 -0.48514,-0.2027 -0.97263,-0.31259 -1.08331,-0.24418 -0.11068,0.0684 -0.26575,0.02 -0.34459,-0.10757 -0.0789,-0.12756 -0.51105,-0.17227 -0.96046,-0.0993 -0.63515,0.10307 -0.89285,0.0244 -1.15721,-0.35297 -0.18705,-0.26705 -0.55857,-0.53062 -0.82559,-0.5857 -0.34894,-0.0719 -0.46812,-0.26895 -0.42374,-0.70022 0.0452,-0.43885 0.002,-0.50735 -0.16119,-0.25497 -0.1226,0.18981 -0.16347,0.7114 -0.0908,1.15912 0.15503,0.95528 0.044,0.99113 -0.90243,0.2914 l -0.70689,-0.52262 -0.77517,0.65226 c -0.50235,0.4227 -0.94045,0.61064 -1.23544,0.50618 -0.48842,-0.17295 -0.0902,-0.0928 -0.22071,0.85457 -0.0515,0.37347 0.14649,0.48332 -0.12201,0.58636 -0.47096,0.18071 -0.46862,1.34843 0.003,1.52944 0.20055,0.0769 0.29926,0.24571 0.21934,0.37501 -0.0799,0.1293 -0.2989,0.17614 -0.48664,0.1041 -0.47638,-0.1828 -0.42628,0.19164 0.0857,0.64053 0.83804,0.73479 1.96923,1.16197 2.69342,1.01713 0.58548,-0.1171 0.73894,-0.0503 0.84876,0.3697 0.0896,0.34249 0.26104,0.4639 0.51663,0.36582 0.34135,-0.13098 0.34378,-0.22187 0.0226,-0.84298 -0.43854,-0.84805 -0.44507,-0.96325 -0.055,-0.96865 0.16777,-0.002 0.55615,-0.26907 0.86308,-0.59278 0.42773,-0.45114 0.51875,-0.74514 0.38975,-1.25909 l -0.16828,-0.67051 0.74603,0.53122 c 0.41032,0.29218 0.8546,0.53122 0.98729,0.53122 0.5124,0 0.54618,0.84448 0.06,1.50196 -0.66235,0.89588 -0.63211,1.19136 0.23339,2.28045 0.96855,1.21876 1.01946,2.69527 0.12201,3.53837 -0.33553,0.31523 -0.61007,0.71017 -0.61007,0.87765 0,0.16748 0.49095,0.72486 1.09098,1.2386 1.13538,0.97211 1.50143,1.94046 0.86124,2.27836 -0.20132,0.10626 -1.06255,0.39632 -1.91385,0.6446 -1.20045,0.35008 -1.62628,0.60199 -1.89747,1.12246 -0.44839,0.86054 -0.69328,0.84657 -1.06921,-0.061 -0.16678,-0.40264 -0.39232,-0.73208 -0.50121,-0.73208 -0.10888,0 -0.27119,-0.23068 -0.36067,-0.51262 -0.25963,-0.81799 -0.69344,-0.14545 -0.84009,1.3024 -0.12103,1.1948 -0.19217,1.30533 -1.26738,1.969 -1.56347,0.96505 -2.21264,0.7666 -2.10832,-0.64448 0.0528,-0.71338 -0.0158,-0.998 -0.2299,-0.95518 -0.16776,0.0336 -0.44229,0.0884 -0.61006,0.12202 -0.16776,0.0336 -0.30503,-0.10024 -0.30503,-0.29731 0,-0.2267 0.38096,-0.43367 1.03711,-0.56343 1.1121,-0.21992 1.4323,-0.85079 0.54906,-1.08177 -0.30082,-0.0787 -0.48806,-0.33286 -0.48806,-0.66259 0,-0.29423 -0.14304,-0.73058 -0.31787,-0.96968 -0.25931,-0.35465 -0.36347,-0.37448 -0.56542,-0.10765 -0.4908,0.64847 -1.00808,2.36548 -0.89339,2.96542 0.0856,0.44773 -0.0208,0.68667 -0.39523,0.88701 -0.69614,0.37257 -1.45123,-0.0514 -1.7821,-1.00048 -0.18202,-0.52213 -0.33024,-0.65648 -0.51758,-0.46914 -0.14438,0.14437 -0.48213,0.26251 -0.75056,0.26251 -0.3796,0 -0.42298,0.0651 -0.19522,0.29283 0.16106,0.16105 0.29283,0.53043 0.29283,0.82081 0,0.29039 0.28514,0.81313 0.63364,1.16162 0.3485,0.3485 0.58486,0.77527 0.52526,0.94837 -0.0596,0.17311 0.14941,0.69713 0.46448,1.16448 0.34073,0.50541 0.57285,1.20987 0.57285,1.7385 0,0.48883 0.15985,1.34183 0.35522,1.89557 l 0.35521,1.00678 h -0.82886 c -1.1415,0 -1.25371,0.34885 -0.36648,1.13937 0.58133,0.51797 0.73578,0.839 0.67961,1.41264 -0.0663,0.67749 -0.15208,0.74388 -0.98153,0.75987 -0.53232,0.0102 -1.12274,0.2111 -1.42514,0.48477 -0.28397,0.25699 -0.69481,0.46872 -0.91299,0.47053 -0.26947,0.002 -0.46131,0.329 -0.59818,1.0189 -0.24588,1.23934 -0.74425,1.74675 -1.2794,1.30263 -0.20132,-0.16709 -0.36603,-0.55572 -0.36603,-0.86364 0,-0.30792 -0.12556,-0.6017 -0.27902,-0.65285 -0.20749,-0.0692 -0.20881,-0.22419 -0.005,-0.60478 0.34233,-0.63965 0.0221,-0.94112 -1.17772,-1.10878 -0.60123,-0.084 -0.94224,-0.004 -1.15928,0.27438 -0.27801,0.35567 -0.35219,0.34073 -0.7735,-0.15567 -0.53096,-0.62561 -0.80686,-0.67245 -1.48095,-0.25147 -0.4083,0.25499 -0.57876,0.19961 -1.19099,-0.38696 l -0.7145,-0.68453 -0.29377,0.89014 c -0.18043,0.54672 -0.5154,0.9744 -0.86823,1.10855 -0.31595,0.12012 -0.74726,0.55256 -0.95845,0.96096 -0.48049,0.92918 -1.20646,0.96609 -2.0072,0.10207 l -0.59358,-0.64048 0.0776,0.94242 c 0.0683,0.82896 0.20555,1.01283 1.14077,1.52726 1.20671,0.66378 1.65213,1.49448 2.01735,3.76235 0.19631,1.21898 0.17074,1.52478 -0.15792,1.88794 -0.25909,0.28628 -0.30397,0.48785 -0.13225,0.59398 0.40582,0.25081 0.30674,0.55073 -0.22813,0.69059 -0.51973,0.13592 -0.61925,0.56432 -0.26212,1.1285 0.1791,0.28293 0.35101,0.23355 0.95441,-0.27419 0.54573,-0.45919 0.66492,-0.69033 0.46109,-0.89415 -0.20383,-0.20383 -0.19468,-0.27488 0.0354,-0.27488 0.17065,0 0.47498,-0.16473 0.6763,-0.36605 0.23126,-0.23126 0.83202,-0.36603 1.63152,-0.36603 1.24057,0 1.27867,0.0218 1.93478,1.10806 0.77218,1.27838 0.82479,1.732 0.2718,2.34306 -0.38216,0.42228 -0.42126,0.42053 -1.01376,-0.0456 -0.55341,-0.43531 -0.65795,-0.44703 -1.02487,-0.11498 -0.58116,0.52595 -1.40541,0.46426 -1.59054,-0.11903 -0.13769,-0.43381 -0.19619,-0.44775 -0.52005,-0.12388 -0.40763,0.40763 -0.26683,0.75964 0.56919,1.42299 0.45459,0.36071 0.51158,0.53455 0.30299,0.92432 -0.39692,0.74164 -0.0597,1.43646 0.70166,1.44548 0.36004,0.005 0.82993,0.14153 1.04417,0.30503 0.61324,0.46798 1.23326,1.85252 1.15027,2.56863 -0.0878,0.75766 -0.88461,1.04298 -1.22317,0.438 -0.12039,-0.21511 -0.37016,-0.39111 -0.55507,-0.39111 -0.38335,0 -1.59176,2.39686 -1.59176,3.15722 0,0.67492 -0.61584,0.6416 -1.32935,-0.0719 -0.57234,-0.57234 -2.24956,-1.13309 -3.3891,-1.13309 -0.62769,0 -0.89416,-0.39703 -0.89416,-1.33223 0,-1.22651 -1.37094,-1.38283 -1.51094,-0.17229 -0.0661,0.57176 -0.18275,0.65042 -0.96431,0.65042 -0.5026,0 -1.09345,0.1848 -1.35922,0.4251 -0.44754,0.40468 -0.49277,0.40319 -0.94111,-0.0311 -0.25904,-0.25089 -0.66208,-0.68926 -0.89564,-0.97416 -0.58808,-0.71732 -1.35769,-0.67158 -1.54936,0.0921 -0.16384,0.65282 -0.57765,0.76351 -1.33638,0.35746 -0.34958,-0.18709 -0.47412,-0.51939 -0.48012,-1.28114 l -0.008,-1.02852 -0.47993,0.57609 c -0.56305,0.67586 -0.61608,1.32537 -0.14044,1.72012 0.56239,0.46675 0.62553,1.7413 0.1117,2.25512 -1.04202,1.04202 -0.003,2.00168 1.38666,1.28073 0.74578,-0.38692 2.22054,-0.0104 1.57025,0.40087 -0.19678,0.12446 -0.614,0.22797 -0.92717,0.23003 -0.34724,0.002 -0.52881,0.12274 -0.46537,0.30876 0.11331,0.33225 1.13761,0.27658 1.51062,-0.0821 0.1275,-0.12261 0.43596,-0.22293 0.68547,-0.22293 0.2495,0 0.38578,-0.10981 0.30283,-0.24403 -0.29651,-0.47976 1.30718,-0.35622 1.81973,0.14019 0.52136,0.50493 -9.2e-4,0.9775 -0.67937,0.6145 -1.15531,-0.6183 -1.04745,-0.0285 0.14078,0.76987 1.14008,0.76599 2.64612,1.0381 2.84707,0.51441 0.17437,-0.4544 0.9673,-0.23781 1.65797,0.45286 0.4625,0.46249 0.49234,0.82524 0.18645,2.26668 -0.15056,0.70951 0.0573,1.32554 0.49407,1.46416 0.69268,0.21985 0.64494,1.72383 -0.10634,3.34995 -0.32691,0.7076 -0.6529,1.47872 -0.72442,1.71359 -0.18579,0.61014 -0.84713,0.528 -0.98231,-0.12201 -0.0628,-0.30198 -0.18355,-1.2913 -0.26834,-2.19849 -0.0914,-0.97814 -0.25128,-1.58939 -0.39281,-1.50192 -0.13125,0.0812 -0.17243,0.44897 -0.0915,0.81745 0.099,0.4506 0.0238,0.77238 -0.22974,0.98275 -0.20728,0.17204 -0.37689,0.46865 -0.37689,0.65916 0,0.1905 -0.21415,0.57623 -0.4759,0.85718 -0.26174,0.28096 -0.54663,0.83283 -0.63306,1.22636 -0.0864,0.39356 -0.31086,1.01014 -0.49871,1.37019 -0.18783,0.36004 -0.34221,0.88408 -0.34303,1.16452 -0.002,0.59994 -1.26109,1.32395 -1.42863,0.82133 -0.054,-0.16176 -0.30645,-0.50252 -0.56118,-0.75725 -0.35781,-0.35782 -0.56921,-0.40638 -0.92956,-0.21353 -0.64067,0.34288 -0.69177,0.32953 -1.3156,-0.34358 -0.30236,-0.32627 -0.83589,-0.66503 -1.1856,-0.75279 -0.54289,-0.13627 -0.72783,-0.0243 -1.26515,0.76651 l -0.62931,0.92612 1.06063,0.66014 c 0.89437,0.55667 1.35307,1.21151 1.36904,1.95447 0.002,0.0852 -0.26441,0.33039 -0.59164,0.54481 -0.55506,0.36368 -0.66131,0.35444 -1.58317,-0.13762 -0.54351,-0.29011 -1.06034,-0.45532 -1.14851,-0.36715 -0.0882,0.0882 -0.21248,0.73925 -0.27623,1.44682 -0.0917,1.01709 -0.26311,1.42415 -0.81879,1.94382 -0.42178,0.39446 -0.70286,0.90822 -0.70286,1.28473 0,0.79476 -1.36585,1.73768 -1.88862,1.30382 -0.59233,-0.49159 -0.94382,0.15396 -0.60062,1.10309 0.45559,1.2599 0.35358,1.86534 -0.43909,2.60579 -0.40264,0.37612 -0.73208,0.90171 -0.73208,1.16796 0,0.53993 -0.9562,1.2723 -1.66117,1.2723 -0.26866,0 -0.63874,-0.33523 -0.89463,-0.8104 -0.35471,-0.65865 -0.38257,-0.91106 -0.14878,-1.34791 0.23242,-0.43428 0.21549,-0.60967 -0.0882,-0.91333 -0.50619,-0.5062 -0.86764,-0.23049 -0.86764,0.66182 0,0.40355 -0.11367,0.94613 -0.25261,1.20573 -0.25878,0.48354 -0.86255,0.63939 -1.00818,0.26024 -0.14736,-0.38362 -1.17765,-0.58269 -1.19926,-0.23172 -0.0109,0.17681 -0.0384,0.74939 -0.0611,1.2724 -0.0364,0.84036 -0.15123,1.00816 -0.98747,1.44325 -1.04318,0.54275 -1.55535,0.40741 -1.97891,-0.52293 -0.31693,-0.69614 -0.5254,-0.66813 -0.71727,0.0964 -0.12616,0.50267 -0.28333,0.61045 -0.80064,0.54906 -0.92975,-0.11035 -1.88409,-1.87746 -1.67135,-3.0948 0.0851,-0.48731 0.24172,-1.54488 0.3479,-2.35017 0.10618,-0.80528 0.23916,-1.62235 0.29551,-1.8157 0.06,-0.20606 -0.0995,-0.39132 -0.3856,-0.44763 -0.26842,-0.0528 -0.61688,-0.26099 -0.77433,-0.46254 -0.33157,-0.42442 -0.17049,-1.83753 0.32071,-2.8136 0.38398,-0.76302 0.43583,-1.81011 0.0999,-2.01772 -0.12742,-0.0788 -0.3007,0.27165 -0.38505,0.77869 -0.21994,1.32219 -0.32646,1.58107 -0.5848,1.42141 -0.12588,-0.0778 -0.29785,-0.0299 -0.38216,0.10655 -0.0843,0.13641 -0.40729,0.248 -0.71775,0.248 -0.47019,0 -0.59064,-0.16361 -0.72111,-0.97953 -0.0861,-0.53874 -0.38458,-1.20749 -0.66318,-1.48609 l -0.50656,-0.50655 -0.5513,0.51792 c -0.39009,0.36647 -0.91524,0.53344 -1.79593,0.57099 -1.47938,0.0631 -2.03157,-0.30588 -1.56821,-1.04782 0.16441,-0.26327 0.29891,-0.65089 0.29891,-0.8614 0,-0.39906 1.76753,-3.14133 2.19506,-3.40555 0.7036,-0.43485 -0.0329,-3.279 -0.98047,-3.7861 -0.76272,-0.4082 -1.14972,0.0257 -0.76872,0.86192 0.15742,0.34549 0.28621,0.65952 0.28621,0.69785 0,0.0384 -0.43827,0.42189 -0.97392,0.85236 -0.80669,0.64827 -1.05811,0.73762 -1.46416,0.52031 -0.26962,-0.1443 -0.49023,-0.37917 -0.49023,-0.52193 0,-0.14276 -0.17316,-0.62449 -0.38481,-1.07049 -0.29184,-0.615 -0.32116,-0.92988 -0.12135,-1.30321 0.1742,-0.32549 0.18055,-0.54351 0.0187,-0.6435 -0.44039,-0.27218 -0.26685,-1.31352 0.26646,-1.59894 0.28113,-0.15046 0.77634,-0.85284 1.10049,-1.56086 l 0.58935,-1.28731 1.38642,-0.14308 c 1.95648,-0.20193 3.34452,-1.38729 2.55225,-2.17955 -0.17173,-0.17173 -0.47294,-0.007 -0.95528,0.52048 -0.70037,0.76682 -0.70703,0.76845 -1.14689,0.28242 -0.24597,-0.2718 -0.45501,-0.89773 -0.47076,-1.40967 -0.0199,-0.64684 -0.1617,-0.97523 -0.47658,-1.10378 -0.24653,-0.10065 -0.56954,-0.5044 -0.71782,-0.89724 -0.34127,-0.90412 -1.17298,-1.31081 -2.0212,-0.98832 -1.55846,0.59252 -2.30333,0.0936 -2.30333,-1.54288 0,-1.00192 0.72408,-2.00702 1.60516,-2.22816 0.5936,-0.14898 0.62989,-0.23772 0.5352,-1.30856 -0.0559,-0.6318 -0.18771,-1.3409 -0.29298,-1.57578 -0.14807,-0.33035 -0.0777,-0.42705 0.31062,-0.42705 0.27613,0 0.58985,-0.14554 0.69719,-0.32344 0.10732,-0.17788 0.38731,-0.39406 0.62218,-0.48039 0.27572,-0.10134 0.42705,-0.41397 0.42705,-0.88229 0,-0.89065 0.40526,-1.18554 0.92079,-0.67002 0.32111,0.32112 0.33613,0.49513 0.0895,1.03652 -0.34744,0.76255 -0.20056,1.02945 0.32601,0.59244 0.20456,-0.16977 0.37194,-0.62883 0.37194,-1.02012 0,-0.59591 0.0892,-0.70002 0.54905,-0.64119 0.55677,0.0712 0.67107,-0.0349 0.67107,-0.62278 0,-0.50725 -1.75474,-0.97817 -2.96727,-0.79634 -0.85556,0.1283 -1.13634,0.0729 -1.44243,-0.28459 -0.6786,-0.79255 -0.72536,-1.27519 -0.21959,-2.26659 0.26993,-0.52909 0.38496,-0.96199 0.25563,-0.96199 -0.42868,0 -0.99491,1.07252 -0.99491,1.88449 v 0.79844 h -1.46655 c -1.16456,0 -1.55258,0.1005 -1.88442,0.48806 -0.56559,0.66056 -0.80709,0.62039 -1.88808,-0.31406 l -0.9279,-0.8021 0.40546,-0.78406 c 0.22299,-0.43125 0.51244,-0.78407 0.64321,-0.78407 0.13077,0 0.23776,-0.25257 0.23776,-0.56126 0,-0.3087 0.12956,-0.69082 0.2879,-0.84917 0.22119,-0.22117 0.21561,-0.42297 -0.0241,-0.87082 -0.52542,-0.98176 -0.23669,-1.45003 1.3959,-2.26394 l 1.53114,-0.76331 0.35677,0.68993 c 0.19622,0.37945 0.35677,1.12722 0.35677,1.66169 0,0.78768 -0.10197,1.00415 -0.53827,1.14262 -0.29797,0.0946 -0.57424,0.0629 -0.61886,-0.0709 -0.0444,-0.13299 -0.25033,-0.44955 -0.45776,-0.70346 -0.33103,-0.40518 -0.36074,-0.40941 -0.24289,-0.0346 0.0861,0.27382 0.006,0.42705 -0.2241,0.42705 -0.19711,0 -0.35838,0.16471 -0.35838,0.36604 0,0.20132 0.10981,0.36604 0.24402,0.36604 0.13422,0 0.24403,0.38152 0.24403,0.84782 0,0.69205 0.13229,0.91624 0.71996,1.22013 0.96753,0.50033 0.98823,0.49122 0.98823,-0.43514 0,-0.4441 0.16122,-1.02062 0.35827,-1.28114 0.19705,-0.26052 0.36177,-0.77566 0.36604,-1.14475 0.005,-0.43038 0.13905,-0.67108 0.3738,-0.67108 0.23155,0 0.37374,0.24657 0.38701,0.67108 l 0.0209,0.67107 0.22372,-0.73208 c 0.12304,-0.40264 0.15816,-1.04144 0.078,-1.41954 -0.16018,-0.75604 0.42184,-1.63079 1.08506,-1.63079 0.28904,0 0.31004,-0.067 0.0899,-0.28706 -0.22007,-0.22007 -0.40232,-0.18278 -0.78089,0.15983 -0.61372,0.55541 -0.65212,0.16198 -0.10518,-1.0777 0.35577,-0.80637 0.47444,-0.88136 1.40315,-0.88668 2.62915,-0.015 3.57677,-0.47535 3.57677,-1.73743 0,-0.63394 0.42777,-0.76047 0.64623,-0.19117 0.11015,0.28708 0.2201,0.30816 0.4804,0.0921 0.26157,-0.21708 0.33753,-0.19864 0.33753,0.0819 0,0.30313 0.17701,0.32157 1.08721,0.11328 0.91166,-0.20861 1.11188,-0.36109 1.23996,-0.94427 0.1646,-0.74936 0.91275,-1.29942 1.47431,-1.08393 0.20776,0.0797 0.34697,0.47311 0.34697,0.9805 0,1.01119 0.36014,1.3271 0.72842,0.63895 0.34269,-0.64033 1.53096,-0.66145 1.98711,-0.0353 0.40833,0.56051 1.89714,0.8913 2.03115,0.4513 0.0503,-0.16543 0.15466,-0.66465 0.23173,-1.10937 0.1499,-0.86496 0.22419,-0.84129 -1.27876,-0.40756 -0.53663,0.15485 -0.56585,0.10852 -0.48805,-0.77372 0.0804,-0.91159 0.0618,-0.93637 -0.64932,-0.86584 -0.40265,0.0399 -1.03588,0.19128 -1.40719,0.33631 -0.3713,0.14504 -1.04467,0.20372 -1.49637,0.13042 -0.47668,-0.0774 -0.94207,-0.0136 -1.10918,0.15174 -0.22015,0.21793 -0.44786,0.0897 -0.9675,-0.54469 l -0.67959,-0.82972 -1.01383,0.56981 c -0.60782,0.34161 -0.98927,0.72276 -0.9525,0.95173 0.063,0.39243 -0.11107,0.41891 -0.85375,0.12986 -0.2985,-0.11616 -0.42705,-0.0481 -0.42705,0.22596 0,0.22376 -0.20081,0.39214 -0.4677,0.39214 -0.25723,0 -0.68704,0.3011 -0.95511,0.66911 l -0.48741,0.66912 -0.83335,-0.85807 c -1.05207,-1.08328 -1.83504,-1.19167 -2.03651,-0.28191 -0.27226,1.22944 -0.9525,2.71217 -1.61254,3.51491 l -0.65888,0.80132 -0.54308,-0.53723 c -0.53766,-0.53187 -0.53869,-0.54695 -0.10349,-1.51203 0.43363,-0.96163 0.38772,-1.73314 -0.10311,-1.73314 -0.13843,0 -0.25169,0.15859 -0.25169,0.35243 0,0.93001 -2.96132,2.9734 -3.26443,2.25254 -0.078,-0.1856 -0.28785,-0.0964 -0.59489,0.25304 -0.45106,0.51331 -0.49339,0.51869 -0.86353,0.10968 -0.32258,-0.35643 -0.34376,-0.59511 -0.12374,-1.39386 0.14602,-0.53007 0.45699,-1.2383 0.69106,-1.57383 0.23406,-0.33554 0.53011,-0.93166 0.65789,-1.32472 0.26847,-0.82575 1.0536,-1.42046 1.23111,-0.93253 0.18197,0.50019 0.55414,0.3479 0.81287,-0.33263 0.19282,-0.50714 0.3664,-0.61396 0.84805,-0.52189 0.71705,0.13707 0.77269,-0.0778 0.16304,-0.62948 -0.29882,-0.27043 -0.52286,-0.32024 -0.68976,-0.15335 -0.13595,0.13594 -0.82504,0.31562 -1.53131,0.39926 -0.73345,0.0869 -1.33837,0.29339 -1.41057,0.48157 -0.19378,0.50496 -0.54359,0.39346 -0.84569,-0.26959 -0.3387,-0.74336 0.15875,-2.18527 0.68433,-1.98358 0.39713,0.15239 0.41413,0.0213 0.0786,-0.60574 -0.29762,-0.55609 0.0762,-1.4481 0.60688,-1.4481 0.1854,0 0.56241,0.30198 0.83778,0.67106 0.45818,0.61413 0.50132,0.62781 0.5084,0.16119 0.009,-0.59 0.89967,-1.07629 1.97142,-1.07629 0.47603,0 0.7206,-0.12352 0.7206,-0.36397 0,-0.20018 0.21963,-0.50112 0.48805,-0.66876 0.26843,-0.16764 0.49154,-0.52545 0.49581,-0.79515 0.0104,-0.65849 0.45076,-1.19052 1.33395,-1.61174 0.44999,-0.21462 0.73182,-0.53563 0.73208,-0.83391 2.5e-4,-0.33513 0.18892,-0.50737 0.6105,-0.55748 1.04463,-0.12416 2.184,-0.86111 2.82209,-1.82532 0.33688,-0.50906 0.54764,-1.03055 0.46834,-1.15885 -0.0793,-0.12831 0.0539,-0.49987 0.29591,-0.82569 l 0.44009,-0.59241 0.5202,0.64405 c 0.44671,0.55304 0.57562,0.59804 0.91242,0.31853 0.21571,-0.17902 0.32905,-0.42769 0.25187,-0.55257 -0.0772,-0.12488 -0.006,-0.38833 0.15708,-0.58543 0.33802,-0.4073 0.96473,-0.062 0.96473,0.53164 0,0.39905 0.52691,0.44372 0.89478,0.0758 0.18439,-0.1844 0.68368,-0.17287 1.71208,0.0396 1.36357,0.28164 1.52491,0.2641 2.6558,-0.28875 0.66221,-0.32374 1.24064,-0.67097 1.28538,-0.77163 0.0447,-0.10066 0.42907,-0.1847 0.85409,-0.18675 0.99577,-0.005 1.45298,-0.3041 1.34372,-0.8796 -0.13063,-0.6881 -1.34089,-0.73484 -2.2189,-0.0857 -0.68532,0.50668 -0.77183,0.51515 -1.66776,0.16322 -0.51972,-0.20416 -1.15737,-0.31564 -1.41702,-0.24774 -0.3086,0.0807 -0.5627,-0.0459 -0.73379,-0.36559 -0.1748,-0.32661 -0.42345,-0.44675 -0.74863,-0.36172 -0.36798,0.0962 -0.55107,-0.0415 -0.74967,-0.56382 -0.14453,-0.38013 -0.21167,-0.88658 -0.14921,-1.12544 0.14984,-0.57299 -0.54497,-0.58003 -0.71459,-0.007 -0.0695,0.23488 -0.34656,0.84346 -0.61559,1.3524 -0.29902,0.56568 -0.42665,1.12229 -0.32834,1.43202 0.11549,0.36388 0.0676,0.47572 -0.16983,0.39686 -0.18185,-0.0604 -0.43604,-0.43029 -0.56487,-0.82196 -0.12883,-0.39168 -0.27507,-0.76688 -0.32499,-0.83377 -0.173,-0.23187 -0.78292,0.82755 -0.78292,1.35993 0,0.61945 -0.71374,0.90192 -1.25609,0.49713 -0.1999,-0.14921 -0.51209,-0.61026 -0.69375,-1.02455 -0.18167,-0.41431 -0.55786,-0.85356 -0.83598,-0.97611 -0.27813,-0.12255 -0.54443,-0.44245 -0.59179,-0.71088 -0.1296,-0.73438 -0.38603,-0.89532 -1.03613,-0.65028 -0.7165,0.27008 -1.68691,-0.0496 -1.68691,-0.55571 0,-0.20221 -0.32205,-0.53417 -0.71566,-0.73773 -0.48241,-0.24946 -0.74089,-0.5895 -0.79308,-1.04337 -0.0558,-0.48481 -0.21407,-0.6733 -0.56548,-0.6733 -0.39102,0 -0.49231,0.16981 -0.50944,0.85409 -0.0118,0.46976 -0.0392,0.99136 -0.061,1.15913 -0.0483,0.37184 -1.65176,0.41383 -1.87714,0.0492 -0.10922,-0.17671 -0.25875,-0.17239 -0.48333,0.014 -0.23785,0.19739 -0.44503,0.19593 -0.77136,-0.006 -0.37707,-0.2327 -0.63095,-0.10258 -1.63917,0.84008 -1.66749,1.55903 -2.64045,1.42479 -3.24112,-0.44719 l -0.22733,-0.70852 -1.03933,1.10887 c -1.31343,1.40134 -1.89236,1.34354 -2.12566,-0.21224 -0.22856,-1.52409 -1.37055,-1.97029 -2.20262,-0.8606 -0.14741,0.1966 -0.39173,0.28098 -0.54293,0.18753 -0.3469,-0.2144 -0.10357,-2.3667 0.30648,-2.71095 0.15988,-0.13422 0.36547,-0.44316 0.45686,-0.68654 0.0914,-0.24338 0.2726,-0.37673 0.40268,-0.29634 0.36026,0.22265 2.10528,-1.59517 2.54766,-2.65393 0.47045,-1.12596 0.47011,-1.12147 0.0866,-1.12258 -0.34348,-9.2e-4 -0.43798,-2.35636 -0.11455,-2.8552 0.10476,-0.1616 0.12104,-0.5705 0.0361,-0.90867 -0.13058,-0.52027 -0.0191,-0.69465 0.72461,-1.13345 0.48342,-0.28521 0.87894,-0.61331 0.87894,-0.7291 0,-0.30172 1.82367,-0.75138 2.30236,-0.56769 0.23424,0.0898 0.37265,0.36611 0.33116,0.66094 -0.0549,0.39031 0.0967,0.54166 0.66083,0.65966 0.40264,0.0842 0.98566,0.28937 1.29558,0.45586 0.45742,0.24573 0.55354,0.24223 0.51057,-0.0186 -0.0914,-0.55494 0.29358,-1.15033 0.65431,-1.0119 0.19021,0.0729 0.34583,0.0112 0.34583,-0.13743 0,-0.14857 -0.21961,-0.27013 -0.48804,-0.27013 -0.26843,0 -0.48806,-0.15398 -0.48806,-0.34217 0,-0.40253 -1.31795,-0.91875 -1.83707,-0.71954 -0.19754,0.0758 -0.35916,0.009 -0.35916,-0.14765 0,-0.15701 -0.23687,-0.25112 -0.52638,-0.20913 -0.2895,0.042 -0.57318,-0.061 -0.63039,-0.22869 -0.0572,-0.16777 0.0746,-0.30503 0.29304,-0.30503 0.21839,0 0.37925,-0.13727 0.35746,-0.30504 -0.14043,-1.08149 0.51498,-1.25705 1.13878,-0.30503 0.21984,0.33554 0.55182,0.61007 0.7377,0.61007 0.3886,0 0.44028,-0.28511 0.11279,-0.62226 -0.3699,-0.38082 -0.39278,-2.46555 -0.0318,-2.90045 0.44027,-0.5305 0.11067,-0.80413 -0.50528,-0.41947 -0.35362,0.22084 -0.5857,0.23542 -0.8082,0.0507 -0.17168,-0.14247 -0.85119,-0.29115 -1.51002,-0.3304 -0.65884,-0.0393 -1.32831,-0.15196 -1.48773,-0.25047 -0.68894,-0.4258 -2.55793,0.53228 -3.17093,1.62548 -0.48884,0.87177 -0.39196,1.21119 0.29638,1.03842 0.36179,-0.0907 0.61007,-0.0484 0.61007,0.10415 0,0.42758 -0.76765,1.46022 -1.08551,1.46022 -0.16352,0 -0.3076,0.13726 -0.32018,0.30503 -0.0279,0.37165 -0.76477,2.33167 -0.77984,2.07422 -0.006,-0.10066 -0.23032,0.0366 -0.49876,0.30504 -0.60821,0.60821 -1.14504,0.61478 -2.0397,0.0249 -0.65158,-0.42958 -0.74283,-0.43391 -1.38445,-0.0657 -0.63707,0.36563 -0.72064,0.3637 -1.15186,-0.0266 -0.25573,-0.23143 -0.68508,-0.42077 -0.95412,-0.42077 -0.26905,0 -0.55778,-0.0686 -0.64162,-0.15245 -0.0838,-0.0838 -0.98065,-0.19185 -1.99288,-0.24001 -1.8207,-0.0866 -1.84043,-0.0811 -1.84043,0.51849 0,0.77678 -0.48812,0.77518 -1.22014,-0.004 -0.6695,-0.71265 -1.13098,-0.76639 -1.75234,-0.20406 -0.38755,0.35073 -0.53176,0.36151 -1.0592,0.0792 -0.45548,-0.24377 -0.57239,-0.45537 -0.46026,-0.83306 0.30353,-1.02251 0.83195,-1.5583 1.85664,-1.88252 0.97211,-0.30758 1.04933,-0.39465 1.05194,-1.18603 0.002,-0.46976 0.0904,-0.99136 0.19742,-1.15914 0.10703,-0.16776 0.14129,-0.3913 0.0761,-0.49676 -0.0652,-0.10546 0.39504,-0.22994 1.02271,-0.27664 1.76303,-0.13116 2.28412,-0.0962 3.33744,0.22372 0.74184,0.22534 1.14696,0.22944 1.68797,0.0171 0.70413,-0.27638 0.70632,-0.28328 0.20233,-0.63629 -0.28023,-0.19628 -0.58183,-0.68617 -0.67024,-1.08865 -0.12847,-0.58497 -0.28845,-0.73178 -0.79741,-0.73178 h -0.63669 l 0.53406,-0.49755 c 0.29375,-0.27366 0.53903,-0.63055 0.54508,-0.79309 0.006,-0.16254 0.14332,-0.0209 0.30503,0.31454 0.31749,0.65875 1.14812,0.89841 1.14812,0.33126 0,-0.19062 0.15481,-0.40599 0.34402,-0.47859 0.18921,-0.0726 0.41092,-0.39859 0.49269,-0.72442 0.11728,-0.46727 0.30794,-0.59241 0.90258,-0.59241 0.69944,0 0.74205,0.0485 0.59009,0.67107 -0.0901,0.3691 -0.43415,1.26682 -0.7646,1.99495 -0.63451,1.39813 -0.51784,1.98508 0.3029,1.5238 0.27144,-0.15256 0.45057,-0.52641 0.45057,-0.94039 0,-0.62539 0.0874,-0.69427 0.97301,-0.76634 0.53515,-0.0435 1.10189,-0.18615 1.25941,-0.31688 0.18792,-0.15596 0.34216,-0.14749 0.44854,0.0246 0.0892,0.1443 0.29112,0.24212 0.44877,0.21739 0.15765,-0.0247 0.47082,0.036 0.69593,0.13484 0.71715,0.31504 1.54292,0.0641 1.54292,-0.46886 0,-0.31582 -0.14091,-0.465 -0.39929,-0.42272 -0.6078,0.0994 -0.76002,-0.62548 -0.19486,-0.92794 0.65021,-0.34798 0.37233,-0.72356 -0.53535,-0.72356 -0.62228,0 -0.72272,-0.084 -0.65667,-0.54906 0.10706,-0.75382 0.99751,-0.84235 1.6312,-0.16216 0.475,0.50985 0.5311,0.51671 1.11209,0.13602 0.97675,-0.63999 1.11709,-0.50641 1.11709,1.06325 0,0.80529 0.10637,1.46416 0.23638,1.46416 0.12999,0 0.16628,-0.19217 0.0806,-0.42705 -0.14068,-0.38575 -0.10499,-0.3825 0.36912,0.0337 0.39701,0.34851 0.60464,0.39449 0.85247,0.18882 0.2414,-0.20035 0.40162,-0.19789 0.60887,0.009 0.21234,0.21234 0.40228,0.17174 0.77508,-0.16563 0.33017,-0.2988 0.49382,-0.3436 0.49382,-0.13517 0,0.24758 0.0743,0.25003 0.36123,0.0119 0.27683,-0.22974 0.71872,-0.23851 1.8912,-0.0375 1.50916,0.25867 2.46197,0.15533 3.92511,-0.42572 0.37783,-0.15004 1.0127,-0.27281 1.41081,-0.27281 0.39812,0 0.78018,-0.14677 0.84902,-0.32616 0.0808,-0.21043 0.40277,-0.29038 0.90743,-0.22533 2.99007,0.38543 3.53607,0.35998 4.08655,-0.1905 0.40682,-0.40682 0.92613,-0.5703 2.11465,-0.6657 1.17895,-0.0946 1.64661,-0.24047 1.85834,-0.57951 0.15561,-0.24918 0.42125,-0.45306 0.59028,-0.45306 0.16904,0 0.30733,-0.10981 0.30733,-0.24402 0,-0.13422 0.11191,-0.24403 0.24869,-0.24403 0.14386,0 0.18735,0.28284 0.10319,0.67107 l -0.14547,0.67107 0.76425,-0.81188 c 0.62984,-0.6691 0.82786,-0.75907 1.12604,-0.51161 0.29214,0.24245 0.59886,0.18924 1.59307,-0.27644 1.14935,-0.53832 1.22169,-0.62463 1.08722,-1.29701 -0.13721,-0.68607 -0.12277,-0.70104 0.30398,-0.31483 0.60558,0.54803 0.66633,0.52555 1.04749,-0.38761 0.75851,-1.81723 0.14443,-7.3344 -0.72012,-6.46985 -0.21569,0.21569 -0.28557,0.16961 -0.2912,-0.19206 -0.006,-0.44021 -0.0261,-0.44387 -0.25615,-0.0488 -0.3787,0.65017 -1.84634,0.53311 -3.28862,-0.26233 l -1.23395,-0.68053 -0.41323,0.54784 c -0.22728,0.30132 -0.41324,0.66446 -0.41324,0.80697 0,0.49569 -0.5016,0.25524 -0.73208,-0.35093 -0.33849,-0.89033 -1.3254,-0.83109 -1.7395,0.10441 -0.17395,0.39296 -0.39356,0.6667 -0.48803,0.60832 -0.0945,-0.0584 -0.42806,-0.0116 -0.74131,0.10388 -2.12592,0.78402 -2.41927,0.47431 -1.05758,-1.11651 0.46974,-0.5488 0.85409,-1.11762 0.85409,-1.26405 0,-0.14644 0.11629,-0.26625 0.25842,-0.26625 0.14214,0 0.18614,-0.11696 0.0978,-0.25992 -0.10529,-0.17037 -0.31887,-0.11673 -0.61989,0.15569 -0.38402,0.34754 -0.52252,0.3631 -0.84555,0.095 -0.24187,-0.20073 -0.33448,-0.52707 -0.24771,-0.87281 0.14365,-0.57231 -0.28739,-1.07069 -0.56155,-0.6493 -0.0857,0.13166 -0.84598,0.30039 -1.68962,0.37495 -0.84364,0.0746 -1.798,0.30863 -2.1208,0.52014 -0.32281,0.21151 -1.22483,0.45911 -2.0045,0.55021 -1.31441,0.1536 -1.39269,0.13552 -1.07575,-0.24851 0.28472,-0.345 0.28853,-0.51374 0.0228,-1.01028 -0.29551,-0.55218 -0.34263,-0.56505 -0.63909,-0.17471 -0.17603,0.23178 -0.33,0.64104 -0.34217,0.90947 -0.0205,0.45165 -0.0434,0.45654 -0.30874,0.0655 -0.25799,-0.38038 -0.32362,-0.34557 -0.65673,0.34831 -0.48174,1.00351 -0.90423,1.11798 -1.25829,0.34091 -0.15681,-0.34419 -0.54273,-0.7946 -0.85759,-1.00089 -0.51741,-0.33903 -0.57245,-0.33798 -0.57245,0.011 0,0.21234 -0.10102,0.32364 -0.22448,0.24734 -0.12347,-0.0763 -0.45903,0.15942 -0.74569,0.52385 -0.45747,0.58158 -0.58171,0.6248 -1.01616,0.35348 -0.27223,-0.17001 -0.78864,-0.24462 -1.14757,-0.16578 -0.57006,0.12521 -0.70979,0.0267 -1.10482,-0.7782 -0.91126,-1.85696 -1.09176,-2.11681 -1.60141,-2.30533 -0.41427,-0.15325 -0.57509,-0.0705 -0.79316,0.40811 -0.21911,0.48088 -0.39431,0.57004 -0.88037,0.44804 -0.33374,-0.0837 -0.83083,-0.16403 -1.10462,-0.17837 -0.75028,-0.0393 -1.00708,-1.25988 -0.39404,-1.87291 0.76022,-0.76023 2.66763,-0.48046 2.66763,0.39127 0,0.56241 1.11982,0.42712 1.81762,-0.21959 0.75005,-0.69512 0.78133,-1.0279 0.1346,-1.4318 -0.55946,-0.34938 -0.61225,-0.90743 -0.19501,-2.06126 0.30394,-0.84053 0.63617,-1.00372 1.09969,-0.5402 0.19762,0.19763 0.34418,0.13205 0.54544,-0.24402 0.15138,-0.28284 0.40863,-0.51772 0.57167,-0.52196 0.69761,-0.0182 1.57356,-1.14825 1.73752,-2.24164 0.19521,-1.30173 0.91524,-2.12978 1.45933,-1.67824 0.19812,0.16443 0.61721,0.22046 0.97577,0.13047 0.53881,-0.13524 0.59146,-0.22694 0.36894,-0.64271 -0.18725,-0.34988 -0.17764,-0.68271 0.0345,-1.1949 0.2538,-0.61272 0.42473,-0.70994 1.24823,-0.70994 0.60904,0 1.00333,-0.12816 1.09013,-0.35435 0.1945,-0.50686 -0.12636,-0.94618 -0.47806,-0.65454 -0.19191,0.15914 -0.50725,0.0422 -0.97747,-0.36235 -0.57826,-0.49756 -0.64288,-0.65911 -0.38701,-0.96742 0.25032,-0.30162 0.23357,-0.44373 -0.0905,-0.76782 -0.36759,-0.36759 -0.41377,-0.35426 -0.60993,0.17598 -0.13868,0.37492 -0.2734,0.47467 -0.38881,0.28793 -0.0971,-0.15716 -0.39124,-0.28574 -0.65356,-0.28574 -0.26234,0 -0.68696,-0.13115 -0.94363,-0.29143 -0.35589,-0.22227 -0.61368,-0.22445 -1.0861,-0.009 -0.3638,0.16577 -0.6766,0.18973 -0.75796,0.0581 -0.0762,-0.12329 -0.31563,-0.15622 -0.53206,-0.0731 -0.234,0.0898 -0.52257,-0.0255 -0.71188,-0.28439 -0.27536,-0.37656 -0.21287,-0.56719 0.46233,-1.41058 0.94372,-1.1788 1.52764,-1.43231 2.33467,-1.01361 0.33401,0.17328 0.70232,0.25631 0.81848,0.18452 0.11617,-0.0717 0.37486,0.006 0.57487,0.17128 0.44023,0.36536 1.48069,-0.0901 1.64977,-0.72214 0.0884,-0.33014 0.10926,-0.32459 0.13312,0.0353 0.0276,0.41605 0.30226,0.5598 0.56589,0.29617 0.22969,-0.22969 -0.47966,-1.94335 -0.80442,-1.94335 -0.17171,0 -0.40328,0.35149 -0.5146,0.78108 -0.35991,1.38891 -0.71443,1.20918 -0.63456,-0.32168 0.0669,-1.28236 0.13123,-1.4288 0.68392,-1.55715 0.43662,-0.1014 0.63201,-0.3297 0.68728,-0.80309 0.0592,-0.50757 0.20928,-0.66142 0.64496,-0.66142 0.57205,0 0.86399,0.40698 0.86399,1.20445 0,0.23785 0.26526,0.71868 0.58946,1.0685 0.32421,0.34983 0.75303,0.86956 0.95294,1.15496 l 0.36346,0.51892 0.16158,-0.50908 c 0.13282,-0.41849 0.24639,-0.46368 0.63828,-0.25395 0.61636,0.32987 0.88045,0.1499 1.07416,-0.73204 0.18668,-0.84998 -0.17354,-1.62651 -0.85485,-1.84274 -0.64202,-0.20377 -0.38159,-0.60902 0.39138,-0.60902 0.36164,0 0.65619,0.17106 0.73529,0.42704 0.27027,0.87465 0.5343,1.15993 1.10094,1.18953 1.46425,0.0765 2.6898,0.43051 2.90909,0.84025 0.34431,0.64337 0.2923,0.76653 -0.25088,0.59414 -0.42376,-0.1345 -0.45918,-0.0819 -0.2764,0.41061 0.1153,0.31066 0.41235,0.56514 0.66011,0.5655 0.29855,4.9e-4 0.52711,0.26788 0.67774,0.79308 0.12499,0.43584 0.31774,0.79244 0.42834,0.79244 0.11058,0 0.13054,0.18379 0.0444,0.4084 -0.12083,0.31489 -0.0587,0.37077 0.27165,0.24404 0.23559,-0.0904 0.52919,-0.16439 0.65242,-0.16439 0.12324,0 0.22407,-0.16471 0.22407,-0.36603 0,-0.67088 0.69091,-0.37696 0.85343,0.36306 0.17525,0.79789 1.01161,1.5661 2.28383,2.09775 0.84249,0.35206 1.58608,0.22023 0.97623,-0.17307 -0.49126,-0.31682 0.18685,-0.69317 1.25739,-0.69784 0.95459,-0.005 1.76878,-0.80984 1.08396,-1.07264 -0.1952,-0.0749 -0.53981,-0.52391 -0.76579,-0.9978 -0.42909,-0.89982 -0.96834,-1.12098 -1.20834,-0.49557 -0.146,0.38049 -0.74544,0.4731 -1.41043,0.21792 -0.485,-0.18611 -0.49088,-0.51392 -0.0177,-0.9871 0.20256,-0.20256 0.29343,-0.48941 0.20194,-0.63744 -0.10617,-0.17179 -0.22149,-0.11198 -0.31877,0.16534 -0.13921,0.39685 -0.18066,0.40047 -0.47833,0.0418 -0.23952,-0.2886 -0.40986,-0.32304 -0.64257,-0.12991 -0.23726,0.19691 -0.38453,0.13591 -0.5875,-0.24333 -0.23429,-0.43776 -0.18579,-0.53846 0.35915,-0.74565 0.88594,-0.33683 3.99444,-0.21007 4.31481,0.17595 0.14252,0.17173 0.49275,0.31054 0.7783,0.30849 1.14453,-0.008 1.17243,-0.13408 1.11406,-5.02551 -0.0606,-5.07854 -0.0638,-4.9257 0.15174,-7.17206 0.0874,-0.91088 -0.009,-3.04352 -0.22676,-5.00932 -0.23947,-2.1629 -0.47625,-8.04736 -0.64315,-15.98371 -0.14529,-6.908305 -0.37006,-14.976412 -0.49949,-17.929132 -0.12941,-2.95271 -0.23056,-5.75292 -0.22477,-6.22267 0.006,-0.46974 -0.1665,-3.43466 -0.3829,-6.5887 -0.21639,-3.15404 -0.48472,-7.87594 -0.5963,-10.49312 -0.11158,-2.61718 -0.37268,-5.80172 -0.58021,-7.07676 -0.71986,-4.42254 -1.13085,-8.92507 -1.13603,-12.44533 -0.003,-1.9461 -0.10365,-4.19724 -0.22398,-5.00253 -0.24899,-1.66636 -1.35126,-8.39228 -1.80964,-11.04218 l -0.30603,-1.76919 0.62308,0.021 c 0.34268,0.0117 2.19853,0.3297 4.12408,0.70692 z m 6.38203,104.356662 c 0,0.58158 0.15012,0.88583 0.54002,1.09451 l 0.54002,0.28901 -0.54002,0.19976 c -0.49174,0.18191 -0.54002,0.36378 -0.54002,2.03455 v 1.83479 l 0.9151,0.39977 c 0.5033,0.21988 1.37377,0.37827 1.93435,0.35198 0.81332,-0.0382 1.07444,0.0553 1.29243,0.46264 0.15024,0.28074 0.2101,0.61246 0.13304,0.73717 -0.2698,0.43654 0.75345,0.69548 2.92754,0.74084 2.84123,0.0593 2.74552,0.0747 2.9187,-0.47092 0.20464,-0.64478 2.46241,-2.06372 2.97235,-1.86804 0.36765,0.14109 0.36477,0.18244 -0.0329,0.47324 -0.4156,0.30389 -0.41603,0.34877 -0.009,0.96938 0.53081,0.81012 0.79194,0.81938 1.14673,0.0407 0.31342,-0.68788 0.60735,-0.75333 1.30445,-0.29046 0.69891,0.46407 1.8168,0.47298 2.50815,0.02 0.59679,-0.39103 0.5984,-0.38993 0.2207,0.14931 -0.377,0.53825 -0.32289,1.21928 0.0969,1.21928 0.11985,0 0.21792,-0.19519 0.21792,-0.43375 0,-0.23857 0.16038,-0.66274 0.35642,-0.94261 0.32416,-0.46282 0.30304,-0.55899 -0.23345,-1.063 -0.56797,-0.53358 -0.57537,-0.58234 -0.1994,-1.31463 0.21475,-0.41827 0.62178,-0.98883 0.90451,-1.2679 0.28273,-0.27907 0.72569,-0.76975 0.98435,-1.0904 0.27795,-0.34457 0.5091,-0.46656 0.5652,-0.29826 0.0711,0.21335 0.24525,0.21623 0.69468,0.0114 0.61245,-0.27905 1.00546,-1.17585 0.71866,-1.63989 -0.16283,-0.26347 -3.59669,-0.37084 -3.84724,-0.1203 -0.33608,0.33608 -7.28286,0.11519 -11.65126,-0.37048 -2.61403,-0.29062 -4.79967,-0.57529 -4.85697,-0.63259 -0.0573,-0.0573 -0.52658,-0.0876 -1.04284,-0.0674 -0.89185,0.035 -0.93865,0.0769 -0.93865,0.84229 z m 44.65074,18.28652 c -0.37549,0.98762 -0.29613,3.17045 0.12805,3.52249 0.2998,0.24881 0.36605,0.23214 0.36605,-0.0921 0,-0.49761 0.38907,-0.51778 0.5763,-0.0299 0.2328,0.60668 0.76296,0.41346 1.0656,-0.38833 0.15969,-0.42306 0.39783,-0.6845 0.54221,-0.59526 0.17994,0.11121 0.17784,0.30791 -0.007,0.65326 -0.35225,0.6582 -0.11982,0.83802 0.6373,0.49305 0.53384,-0.24323 0.58237,-0.3534 0.34828,-0.79079 -0.32067,-0.59919 -0.14919,-1.20212 0.34191,-1.20212 0.41873,0 0.68207,-0.59253 0.48806,-1.09812 -0.18306,-0.47705 -0.79285,-0.46654 -1.33378,0.023 -0.49011,0.44354 -1.9268,0.26638 -1.9268,-0.2376 0,-0.33884 -0.48513,-0.88351 -0.78693,-0.88351 -0.1107,0 -0.30836,0.28168 -0.43925,0.62596 z m -58.23887,12.1092 c 0.0779,0.19467 0.13572,0.13684 0.14743,-0.14743 0.0106,-0.25725 -0.047,-0.40138 -0.12817,-0.32029 -0.0811,0.0811 -0.0897,0.29157 -0.0193,0.46772 z m 62.14934,35.09399 c 0,0.13421 0.11629,0.24402 0.25842,0.24402 0.14213,0 0.19056,-0.10981 0.10761,-0.24402 -0.0829,-0.13421 -0.19925,-0.24402 -0.25843,-0.24402 -0.0592,0 -0.1076,0.10981 -0.1076,0.24402 z"
       style="fill:none;stroke:#000000;stroke-width:0.244026;stroke-opacity:1" />
  </g>
</svg>
