<?xml version="1.0" encoding="UTF-8" standalone="no"?>
<svg
   xmlns:dc="http://purl.org/dc/elements/1.1/"
   xmlns:cc="http://creativecommons.org/ns#"
   xmlns:rdf="http://www.w3.org/1999/02/22-rdf-syntax-ns#"
   xmlns:svg="http://www.w3.org/2000/svg"
   xmlns="http://www.w3.org/2000/svg"
   xmlns:sodipodi="http://sodipodi.sourceforge.net/DTD/sodipodi-0.dtd"
   xmlns:inkscape="http://www.inkscape.org/namespaces/inkscape"
   sodipodi:docname="TreeClean.svg"
   inkscape:version="1.0 (4035a4fb49, 2020-05-01)"
   id="svg1177"
   version="1.1"
   viewBox="0 0 210 297"
   height="297mm"
   width="210mm">
  <defs
     id="defs1171">
    <inkscape:path-effect
       effect="rough_hatches"
       id="path-effect4372"
       is_visible="true"
       lpeversion="1"
       direction="137.74469,92.978783 , 24.246161,0"
       dist_rdm="75;1"
       growth="0"
       do_bend="true"
       bender="137.74469,97.978783 , 5,0"
       bottom_edge_variation="5.0591072;1"
       top_edge_variation="5.0591072;1"
       bottom_tgt_variation="0;1"
       top_tgt_variation="0;1"
       scale_bf="1"
       scale_bb="1"
       scale_tf="1"
       scale_tb="1"
       top_smth_variation="0;1"
       bottom_smth_variation="0;1"
       fat_output="true"
       stroke_width_top="1"
       stroke_width_bottom="1"
       front_thickness="1"
       back_thickness="0.25" />
    <inkscape:path-effect
       effect="rough_hatches"
       id="path-effect3734"
       is_visible="true"
       lpeversion="1"
       direction="103.56547,135.98511 , 7.8844507,0"
       dist_rdm="75;1"
       growth="0"
       do_bend="true"
       bender="103.56547,140.98511 , 5,0"
       bottom_edge_variation="3.1537803;1"
       top_edge_variation="3.1537803;1"
       bottom_tgt_variation="0;1"
       top_tgt_variation="0;1"
       scale_bf="1"
       scale_bb="1"
       scale_tf="1"
       scale_tb="1"
       top_smth_variation="0;1"
       bottom_smth_variation="0;1"
       fat_output="true"
       stroke_width_top="1"
       stroke_width_bottom="1"
       front_thickness="1"
       back_thickness="0.25" />
    <inkscape:path-effect
       effect="fill_between_strokes"
       id="path-effect3730"
       is_visible="true"
       lpeversion="1"
       linkedpath=""
       secondpath=""
       reversesecond="false"
       fuse="false"
       join="true"
       close="true" />
    <inkscape:path-effect
       effect="rough_hatches"
       id="path-effect3728"
       is_visible="true"
       lpeversion="1"
       direction="120.9604,218.28488 , 26.753216,0"
       dist_rdm="75;1"
       growth="0"
       do_bend="true"
       bender="120.9604,223.28488 , 5,0"
       bottom_edge_variation="6.5617528;1"
       top_edge_variation="6.5617528;1"
       bottom_tgt_variation="0;1"
       top_tgt_variation="0;1"
       scale_bf="1"
       scale_bb="1"
       scale_tf="1"
       scale_tb="1"
       top_smth_variation="0;1"
       bottom_smth_variation="0;1"
       fat_output="true"
       stroke_width_top="1"
       stroke_width_bottom="1"
       front_thickness="1"
       back_thickness="0.25" />
    <inkscape:path-effect
       effect="curvestitching"
       id="path-effect3726"
       is_visible="true"
       lpeversion="1"
       count="5"
       startpoint_edge_variation="0;1"
       startpoint_spacing_variation="0;1"
       endpoint_edge_variation="0;1"
       endpoint_spacing_variation="0;1"
       strokepath="M0,0 L1,0"
       prop_scale="1"
       scale_y_rel="false" />
    <inkscape:path-effect
       effect="offset"
       id="path-effect3724"
       is_visible="true"
       lpeversion="1"
       linejoin_type="miter"
       unit="mm"
       offset="0"
       miter_limit="4"
       attempt_force_join="true"
       update_on_knot_move="true" />
    <inkscape:path-effect
       effect="rough_hatches"
       id="path-effect3722"
       is_visible="true"
       lpeversion="1"
       direction="120.9604,218.28488 , 26.753216,0"
       dist_rdm="75;1"
       growth="0"
       do_bend="true"
       bender="120.9604,223.28488 , 5,0"
       bottom_edge_variation="6.5617528;1"
       top_edge_variation="6.5617528;1"
       bottom_tgt_variation="0;1"
       top_tgt_variation="0;1"
       scale_bf="1"
       scale_bb="1"
       scale_tf="1"
       scale_tb="1"
       top_smth_variation="0;1"
       bottom_smth_variation="0;1"
       fat_output="true"
       stroke_width_top="1"
       stroke_width_bottom="1"
       front_thickness="1"
       back_thickness="0.25" />
    <marker
       style="overflow:visible"
       refY="-1.687441"
       refX="-4"
       orient="auto"
       id="CheckToolsAndOPMarker">
      <path
         id="path3754"
         style="fill:#000044;fill-rule:evenodd;stroke:none"
         d="m 4.588864,-1.687441 0.0,0.0 L 9.177728,0.0 c -0.73311,-0.996261 -0.728882,-2.359329 0.0,-3.374882" />
    </marker>
    <marker
       style="overflow:visible"
       refY="-1.687441"
       refX="-4"
       orient="auto"
       id="DrawCurveMarker">
      <path
         id="path3757"
         style="fill:#000044;fill-rule:evenodd;stroke:none"
         d="m 4.588864,-1.687441 0.0,0.0 L 9.177728,0.0 c -0.73311,-0.996261 -0.728882,-2.359329 0.0,-3.374882" />
    </marker>
    <marker
       style="overflow:visible"
       refY="-1.687441"
       refX="4"
       orient="auto"
       id="DrawCurveMarker_r">
      <path
         id="path3760"
         style="fill:#000044;fill-rule:evenodd;stroke:none"
         d="m -4.588864,-1.687441 0.0,0.0 L -9.177728,0.0 c 0.73311,-0.996261 0.728882,-2.359329 0.0,-3.374882" />
    </marker>
    <marker
       style="overflow:visible"
       refY="-1.687441"
       refX="-4"
       orient="auto"
       id="InOutPathMarker">
      <path
         id="path3763"
         style="fill:#0072a7;fill-rule:evenodd;stroke:none"
         d="m 4.588864,-1.687441 0.0,0.0 L 9.177728,0.0 c -0.73311,-0.996261 -0.728882,-2.359329 0.0,-3.374882" />
    </marker>
  </defs>
  <sodipodi:namedview
     id="base"
     pagecolor="#ffffff"
     bordercolor="#666666"
     borderopacity="1.0"
     inkscape:pageopacity="0.0"
     inkscape:pageshadow="2"
     inkscape:zoom="0.24148325"
     inkscape:cx="1020.0156"
     inkscape:cy="160.54437"
     inkscape:document-units="mm"
     inkscape:current-layer="layer1"
     inkscape:document-rotation="0"
     showgrid="false"
     inkscape:window-width="1920"
     inkscape:window-height="1017"
     inkscape:window-x="-8"
     inkscape:window-y="-8"
     inkscape:window-maximized="1" />
  <metadata
     id="metadata1174">
    <rdf:RDF>
      <cc:Work
         rdf:about="">
        <dc:format>image/svg+xml</dc:format>
        <dc:type
           rdf:resource="http://purl.org/dc/dcmitype/StillImage" />
        <dc:title />
      </cc:Work>
    </rdf:RDF>
  </metadata>
  <g
     inkscape:label="Layer 1"
     inkscape:groupmode="layer"
     id="layer1">
    <g
       id="g4003" />
    <g
       id="g4335" />
    <g
       id="g4513" />
    <path
       d="m 107.14033,22.867838 c 8.82369,3.307114 2.10125,18.590314 4.66239,26.792348 0.56951,20.003367 1.66817,39.979504 1.5178,59.998184 -1.19748,4.42487 1.4372,13.91712 1.91002,12.90596 -1.97155,4.21156 13.07338,3.86854 17.45516,3.12979 -2.38956,-3.40656 4.01218,-2.45251 6.44599,-3.87385 1.57908,1.89708 6.94076,2.63781 7.78846,-0.84966 0.92303,-1.7088 5.49512,-1.27088 6.96905,-1.82214 -0.43226,4.99807 3.1537,-1.44162 2.15456,2.77028 4.21055,-1.74562 9.25905,-0.77316 13.3842,1.42566 0.27838,3.57445 -3.18166,6.46263 1.57476,9.20151 -2.7746,4.70272 -7.2462,-4.87646 -9.34391,-0.95298 -6.06912,0.45538 2.79192,2.6024 1.5162,5.44195 -2.48454,-4.72819 -13.20598,2.18522 -2.86269,-0.18452 2.75823,0.84209 5.11167,5.90678 3.70967,7.98202 0.81255,2.48003 -1.47249,3.35589 2.20957,2.62117 4.87412,0.78657 6.77847,8.35118 4.62124,12.32169 -3.19515,-1.5608 -9.69593,3.51478 -12.07987,1.99101 1.43094,4.19847 2.23821,4.66264 5.59721,5.93035 -2.05124,3.9704 -4.86842,4.85163 -7.87522,3.05563 1.46937,-2.21691 -9.61494,1.29135 -3.28081,-1.60515 2.39162,-2.05199 8.38757,-4.22994 4.02727,-5.23271 -0.23485,-5.2079 -4.32845,-1.19665 -5.30414,-1.23508 -0.36981,1.49399 -2.16786,4.2089 -2.117,6.7847 -1.76158,-2.58742 -11.38325,-4.20325 -7.9465,1.09745 2.07845,-2.51407 1.75956,-0.18697 4.88602,-0.28255 2.17178,1.23986 -1.68608,-4.07827 1.89039,0.54613 2.59466,0.78164 6.19315,0.85578 7.75572,2.83605 2.09067,-0.013 9.81344,0.60109 10.22013,1.82068 -5.41824,3.88981 9.92177,3.25143 9.85831,7.41074 4.85526,-2.67549 1.86846,9.85093 -2.84473,3.49594 -3.16061,4.30208 -3.77637,4.71714 -7.06593,2.0614 -5.80013,-1.62684 -4.04873,-2.32356 -8.66682,-0.25857 -3.4385,2.9503 4.17255,7.91499 3.22186,4.19936 2.71141,-6.5554 5.28902,3.58108 2.90643,6.57016 6.03942,3.07476 -3.38329,7.58315 -4.2526,3.77983 -1.53964,7.2892 -5.99383,1.34866 -3.66904,-0.18742 -1.44761,-5.22798 -1.75165,6.82468 -4.60281,0.88005 -2.00249,1.85827 4.20153,9.35788 1.05837,10.43084 1.46167,1.72289 -6.3918,8.33707 -5.17823,2.59668 -4.70241,-0.65748 -6.66988,-1.9265 -10.03017,1.95931 -2.75659,-2.03882 4.73342,6.96878 1.27785,9.41333 1.06297,-3.3806 9.01607,-1.09806 4.95154,1.23022 -7.72527,-2.3314 2.52551,6.00975 -0.59035,6.74656 -0.85755,3.2498 -5.55604,4.03419 -7.75944,0.22889 -1.31872,-0.99997 -5.23067,1.9696 -7.22058,-0.01 -2.00696,0.53871 -3.02446,-4.0545 -1.98544,1.45392 -1.05453,3.80864 2.6491,2.40999 2.72726,3.2835 4.62865,-2.10116 -0.28101,2.78138 5.75188,1.36904 4.17368,1.89706 0.20032,15.40218 -0.7711,5.62779 -0.94164,5.6442 -3.58757,10.12378 -8.70406,5.86739 -3.14625,1.79107 4.43802,6.41513 -2.15345,4.31168 -2.14541,5.49857 -4.23764,7.53834 -7.11946,12.12833 -1.84248,-7.27151 -4.36195,3.86499 -8.20405,1.11355 -4.59116,0.52585 -1.28576,-11.61795 -2.95295,-11.67441 -1.9913,4.54724 -3.27485,-3.84511 -7.435422,-0.32932 1.16137,-1.68843 4.085802,-10.38382 0.689202,-8.01693 -3.819722,6.474 -4.75494,-7.83893 1.548752,-6.37313 3.181418,-2.65716 -2.203026,-0.0763 -2.550672,-4.47301 -4.330089,-0.43669 -5.079063,-2.81096 -2.18417,-6.06792 -0.995962,-2.46302 3.674437,-5.8647 3.10036,-2.73001 4.89248,-4.42689 -5.825353,-1.10357 -2.7816,-6.5936 0.129229,4.67193 -10.522159,4.11767 -5.58753,-0.92373 -1.686036,-4.96385 6.952353,-3.9357 2.45935,-0.47473 -3.010943,-2.24232 1.791465,7.1482 1.738164,-0.86894 1.383239,2.32498 2.191382,-3.83133 1.271576,-3.81934 4.238577,-1.7141 7.41689,-3.78041 10.59253,-3.5757 1.13835,1.40391 7.94257,0.92925 3.2116,-1.2357 -2.93845,-0.56375 -7.40402,-2.10287 -10.02398,0.64772 -2.343533,2.66363 -5.185498,-3.13801 -5.92492,3.71316 -2.818513,1.31312 0.460353,-6.39241 -4.286738,-0.29317 -6.251527,0.94806 2.648682,-6.54003 1.789568,-6.66983 -7.127483,2.44291 -2.826501,-4.32207 1.32503,-3.94687 2.65882,-3.37926 6.680979,-8.71644 9.37131,-8.4593 1.5204,1.22666 15.50025,-2.84874 5.981,-1.9876 -3.9708,0.24481 -4.33703,-6.26001 -5.62667,0.50997 -1.511578,-1.52043 -3.694957,0.69244 -6.08652,-3.16049 -3.080935,-0.19509 -3.702903,-5.37137 -5.203735,-0.69611 -3.204054,-1.00629 -6.407805,3.02658 -7.744889,-0.15634 -2.21494,3.47572 -4.375367,-1.62555 -5.663552,-1.48609 5.300459,-3.23798 1.318089,-11.24447 7.758356,-12.35767 4.335614,4.2571 3.493622,-1.33491 -0.23778,-1.61381 1.760723,-2.05256 3.022092,1.47283 2.458373,-4.07563 -6.923164,-1.43523 -7.271111,1.37666 -8.904683,6.2108 -5.009181,0.63499 -10.098986,-0.48551 -14.5355,-0.18596 -0.305031,-4.81246 6.219497,-6.06556 8.97229,-6.22962 -4.436098,-2.87256 1.535258,-3.15702 2.75733,-3.58962 -3.92367,6.45247 3.102464,0.49969 5.254698,1.05746 -4.366622,-3.32544 3.339959,-3.08054 2.447956,-0.48729 3.581812,0.95132 8.248969,0.003 12.490146,-1.06102 5.06386,0.29185 8.71197,-1.73285 11.05385,-2.35817 4.59368,0.88446 5.88584,-9.21291 2.2935,-8.64144 -5.10659,-1.48563 -5.49525,-0.27022 -10.415814,0.86478 5.825584,-6.1975 -5.241173,-3.1424 -6.958177,-3.76198 -1.071155,-1.06164 -3.044685,2.1663 -5.054559,0.18496 -3.944027,2.64375 -5.376356,-3.47213 -9.102065,-2.41551 1.308585,-2.93087 6.90018,1.49364 4.739065,-4.47298 3.939838,-1.54968 5.324948,-6.43172 8.781995,-7.73549 -0.602275,-2.5909 -2.631512,-3.4355 -6.555865,-3.15139 -2.610544,-3.99709 9.855428,-2.10874 4.50823,-3.90572 -2.179583,0.12107 2.70836,-6.69497 3.78799,0.0846 3.329853,1.42428 -0.157405,-6.36373 3.61024,-1.81134 3.888042,0.94808 3.364736,4.44181 6.92452,5.62981 3.78891,3.42454 6.87737,-3.70112 1.11813,-2.65586 0.27504,-1.67121 -3.58264,-2.59784 3.1992,-1.97444 4.48345,-4.4901 0.81183,-17.35281 1.38789,-24.90741 -0.47655,-22.488888 -1.14068,-45.009272 -3.61262,-67.366345 0.93804,-6.027234 -2.79137,-14.392489 -1.73735,-19.156967 1.38528,0.172092 2.75549,0.445989 4.12465,0.70819 z m 6.38203,104.356662 c 1.73571,2.10551 -2.46909,7.31904 4.14188,6.66701 2.88592,4.98207 9.37878,-2.81052 10.05646,0.62237 5.64581,-0.46578 3.66748,1.96499 5.1762,-3.92376 8.08055,-5.33791 -8.77415,-1.95769 -12.53561,-3.50793 -1.80484,0.50084 -6.04716,-2.0583 -6.83893,0.14231 z m 44.65074,18.28652 c -0.78386,5.262 4.10503,4.39239 4.48676,0.47218 -1.93451,0.94762 -3.5335,-1.06772 -4.48676,-0.47218 z m -58.23887,12.1092 c 0.4184,0.41954 -0.210715,-1.36427 0,0 z m 62.14934,35.09399 c 0.60184,0.86927 0.2951,-0.89218 0,0 z"
       style="fill:none;stroke:#000000;stroke-width:0.244026;stroke-opacity:1"
       id="path5573" />
  </g>
</svg>
