<?xml version="1.0" encoding="UTF-8" standalone="no"?>
<svg
   xmlns:dc="http://purl.org/dc/elements/1.1/"
   xmlns:cc="http://creativecommons.org/ns#"
   xmlns:rdf="http://www.w3.org/1999/02/22-rdf-syntax-ns#"
   xmlns:svg="http://www.w3.org/2000/svg"
   xmlns="http://www.w3.org/2000/svg"
   xmlns:sodipodi="http://sodipodi.sourceforge.net/DTD/sodipodi-0.dtd"
   xmlns:inkscape="http://www.inkscape.org/namespaces/inkscape"
   inkscape:export-ydpi="96"
   inkscape:export-xdpi="96"
   inkscape:export-filename="C:\Users\berbh\Documents\Projects\yastgt\resource\tree_clean.png"
   sodipodi:docname="TreeClean.svg"
   id="SVGRoot"
   version="1.1"
   viewBox="0 0 350 350"
   height="350mm"
   width="350mm"
   inkscape:version="1.0 (4035a4fb49, 2020-05-01)">
  <defs
     id="defs3930" />
  <sodipodi:namedview
     id="base"
     pagecolor="#ffffff"
     bordercolor="#666666"
     borderopacity="1.0"
     inkscape:pageopacity="0.0"
     inkscape:pageshadow="2"
     inkscape:zoom="1"
     inkscape:cx="530.04359"
     inkscape:cy="578.28726"
     inkscape:document-units="mm"
     inkscape:current-layer="layer1"
     inkscape:document-rotation="0"
     showgrid="false"
     inkscape:window-width="1349"
     inkscape:window-height="1041"
     inkscape:window-x="555"
     inkscape:window-y="0"
     inkscape:window-maximized="0" />
  <metadata
     id="metadata3933">
    <rdf:RDF>
      <cc:Work
         rdf:about="">
        <dc:format>image/svg+xml</dc:format>
        <dc:type
           rdf:resource="http://purl.org/dc/dcmitype/StillImage" />
        <dc:title></dc:title>
      </cc:Work>
    </rdf:RDF>
  </metadata>
  <g
     inkscape:label="Layer 1"
     inkscape:groupmode="layer"
     id="layer1">
    <path
       id="path5573"
       style="fill:#ff0000;fill-opacity:1;stroke:none;stroke-width:0.244026;stroke-opacity:1"
       d="M 148.28894,49.80985 C 157.11263,53.11697 150.39019,68.400173 152.95133,76.602203 153.52084,96.60557 154.6195,116.58171 154.46913,136.60039 153.27165,141.02526 155.90633,150.51751 156.37915,149.50634 154.4076,153.71791 169.45253,153.37488 173.83431,152.63614 171.44475,149.22957 177.84649,150.18362 180.2803,148.76229 181.85938,150.65936 187.22106,151.40009 188.06876,147.91263 188.99179,146.20383 193.56388,146.64175 195.03781,146.09049 194.60555,151.08856 198.19151,144.64887 197.19237,148.86077 201.40292,147.11515 206.45143,148.08761 210.57658,150.28642 210.85496,153.86088 207.39492,156.74905 212.15134,159.48793 209.37674,164.19065 204.90514,154.61147 202.80742,158.53495 196.7383,158.99033 205.59935,161.13735 204.32363,163.9769 201.83908,159.24872 191.11764,166.16212 201.46093,163.79238 204.21917,164.63447 206.57261,169.69916 205.17061,171.77441 205.98316,174.25443 203.69811,175.1303 207.38018,174.39557 212.2543,175.18214 214.15865,182.74676 212.00142,186.71727 208.80627,185.15646 202.30548,190.23205 199.92154,188.70828 201.35248,192.90674 202.15975,193.37091 205.51876,194.63863 203.46751,198.60902 200.65033,199.49026 197.64353,197.69425 199.1129,195.47734 188.02859,198.98561 194.36272,196.08911 196.75434,194.03711 202.75029,191.85916 198.38999,190.85639 198.15514,185.64849 194.06154,189.65974 193.08585,189.62132 192.71604,191.1153 190.91799,193.83021 190.96885,196.40602 189.20727,193.81859 179.5856,192.20277 183.02235,197.50347 185.1008,194.98939 184.78191,197.31649 187.90837,197.22091 190.08015,198.46078 186.22229,193.14264 189.79876,197.76705 192.39342,198.54869 195.99191,198.62282 197.55448,200.6031 199.64515,200.5901 207.36793,201.20418 207.77462,202.42378 202.35637,206.31358 217.69639,205.67521 217.63293,209.83451 222.48819,207.15902 219.50139,219.68544 214.7882,213.33045 211.62759,217.63253 211.01183,218.0476 207.72227,215.39185 201.92213,213.76502 203.67353,213.06829 199.05544,215.13328 195.61694,218.08358 203.22799,223.04827 202.2773,219.33265 204.98872,212.77724 207.56633,222.91373 205.18374,225.90281 211.22316,228.97757 201.80044,233.48595 200.93113,229.68264 199.39149,236.97183 194.9373,231.0313 197.26209,229.49521 195.81448,224.26724 195.51044,236.3199 192.65928,230.37526 190.65679,232.23354 196.86081,239.73315 193.71765,240.8061 195.17932,242.52899 187.32585,249.14318 188.53942,243.40279 183.83701,242.7453 181.86954,241.47629 178.50925,245.36209 175.75266,243.32328 183.24267,252.33088 179.7871,254.77542 180.85007,251.39482 188.80317,253.67736 184.73864,256.00564 177.01337,253.67424 187.26415,262.0154 184.14829,262.7522 183.29074,266.00202 178.59225,266.78639 176.38885,262.9811 175.07013,261.98112 171.15818,264.9507 169.16827,262.9711 167.16131,263.50981 166.14381,258.91661 167.18283,264.42502 166.1283,268.23366 169.83193,266.83502 169.91009,267.70852 174.53874,265.60737 169.62908,270.48991 175.66197,269.07757 179.83565,270.97463 175.86229,284.47976 174.89087,274.70536 173.94923,280.34955 171.3033,284.82914 166.18681,280.57275 163.04056,282.36382 170.62483,286.98788 164.03336,284.88444 161.88795,290.383 159.79572,292.42277 156.9139,297.01276 155.07142,289.74125 152.55195,300.87775 148.70985,298.12632 144.11869,298.65216 147.42409,286.50836 145.7569,286.4519 143.7656,290.99914 142.48205,282.60679 138.32148,286.12257 139.48285,284.43415 142.40728,275.73876 139.01068,278.10564 135.19096,284.57965 134.25574,270.26671 140.55943,271.73251 143.74085,269.07535 138.35641,271.65621 138.00876,267.25951 133.67867,266.82282 132.9297,264.44855 135.82459,261.19159 134.82863,258.72857 139.49903,255.32688 138.92495,258.46158 143.81743,254.03469 133.0996,257.35801 136.14335,251.86798 136.27258,256.53991 125.62119,255.98564 130.55582,250.94424 128.86979,245.9804 137.50817,247.00855 133.01517,250.46952 130.00423,248.2272 134.80664,257.61772 134.75334,249.60058 136.13657,251.92555 136.94472,245.76925 136.02491,245.78124 140.26349,244.06714 143.4418,242.00082 146.61744,242.20554 147.75579,243.60944 154.56001,243.13478 149.82904,240.96984 146.89059,240.40609 142.42502,238.86696 139.80506,241.61755 137.46153,244.28118 134.61956,238.47955 133.88014,245.33071 131.06163,246.64384 134.3405,238.9383 129.5934,245.03755 123.34188,245.98561 132.24209,238.49751 131.38297,238.36771 124.25549,240.81063 128.55647,234.04565 132.708,234.42085 135.36682,231.04158 139.38898,225.7044 142.07931,225.96155 143.59971,227.18821 157.57956,223.11281 148.06031,223.97394 144.08951,224.21876 143.72328,217.71393 142.43364,224.48392 140.92206,222.96349 138.73869,225.17635 136.34712,221.32343 133.26619,221.12834 132.64422,215.95206 131.14339,220.62731 127.93933,219.62103 124.73558,223.65389 123.3985,220.47098 121.18356,223.9467 119.02313,218.84543 117.73495,218.98488 123.03541,215.74691 119.05304,207.74042 125.4933,206.62722 129.82892,210.88431 128.98692,205.29231 125.25552,205.01341 127.01625,202.96084 128.27761,206.48624 127.7139,200.93777 120.79073,199.50254 120.44279,202.31443 118.80921,207.14857 113.80003,207.78356 108.71023,206.66306 104.27371,206.96261 103.96868,202.15015 110.49321,200.89706 113.246,200.733 108.8099,197.86043 114.78126,197.57597 116.00333,197.14337 112.07966,203.59584 119.1058,197.64306 121.25803,198.20083 116.89141,194.8754 124.59799,195.12029 123.70599,197.71354 127.2878,198.66486 131.95496,197.71654 136.19613,196.65252 141.25999,196.94437 144.9081,194.91968 147.24998,194.29435 151.84366,195.17881 153.13582,185.08144 149.54348,185.65291 144.43689,184.16728 144.04823,185.3827 139.12767,186.51769 144.95325,180.3202 133.8865,183.37529 132.16949,182.75571 131.09834,181.69408 129.12481,184.92201 127.11493,182.94067 123.17091,185.58442 121.73858,179.46854 118.01287,180.52517 119.32145,177.59429 124.91305,182.0188 122.75193,176.05219 126.69177,174.50251 128.07688,169.62046 131.53393,168.31669 130.93165,165.72579 128.90242,164.88119 124.97806,165.1653 122.36752,161.16821 134.83349,163.05656 129.48629,161.25959 127.30671,161.38065 132.19465,154.56461 133.27428,161.34419 136.60414,162.76847 133.11688,154.98046 136.88452,159.53285 140.77256,160.48093 140.24926,163.97466 143.80904,165.16267 147.59795,168.5872 150.68641,161.46154 144.92717,162.5068 145.20221,160.8356 141.34453,159.90896 148.12637,160.53236 152.60982,156.04226 148.9382,143.17956 149.51426,135.62496 149.03771,113.13607 148.37358,90.615683 145.90164,68.258613 146.83968,62.23138 143.11027,53.86612 144.16429,49.10164 145.54957,49.27374 146.91978,49.54763 148.28894,49.80983 Z M 154.67097,154.16651 C 156.40668,156.27202 152.20188,161.48555 158.81285,160.83352 161.69877,165.81559 168.19163,158.023 168.86931,161.45589 174.51512,160.99011 172.53679,163.42089 174.04551,157.53213 182.12606,152.19423 165.27136,155.57444 161.5099,154.02421 159.70506,154.52504 155.46274,151.9659 154.67097,154.16651 Z M 199.32171,172.45304 C 198.53785,177.71503 203.42674,176.84543 203.80847,172.92521 201.87396,173.87283 200.27497,171.8575 199.32171,172.45304 Z M 141.08284,184.56223 C 141.50124,184.98178 140.87213,183.19797 141.08284,184.56223 Z M 203.23218,219.65623 C 203.83402,220.5255 203.52728,218.76405 203.23218,219.65623 Z" />
  </g>
</svg>
