<?xml version="1.0" encoding="UTF-8" standalone="no"?>
<svg
   xmlns:dc="http://purl.org/dc/elements/1.1/"
   xmlns:cc="http://creativecommons.org/ns#"
   xmlns:rdf="http://www.w3.org/1999/02/22-rdf-syntax-ns#"
   xmlns:svg="http://www.w3.org/2000/svg"
   xmlns="http://www.w3.org/2000/svg"
   xmlns:sodipodi="http://sodipodi.sourceforge.net/DTD/sodipodi-0.dtd"
   xmlns:inkscape="http://www.inkscape.org/namespaces/inkscape"
   inkscape:export-ydpi="96"
   inkscape:export-xdpi="96"
   inkscape:export-filename="C:\Users\berbh\Documents\Projects\yastgt\resource\tree_clean.png"
   sodipodi:docname="tree.svg"
   id="SVGRoot"
   version="1.1"
   viewBox="0 0 350 320"
   height="320mm"
   width="350mm"
   inkscape:version="1.0.1 (3bc2e813f5, 2020-09-07)">
  <defs
     id="defs3930" />
  <sodipodi:namedview
     id="base"
     pagecolor="#ffffff"
     bordercolor="#666666"
     borderopacity="1.0"
     inkscape:pageopacity="0.0"
     inkscape:pageshadow="2"
     inkscape:zoom="0.35355339"
     inkscape:cx="1014.4978"
     inkscape:cy="1049.7215"
     inkscape:document-units="mm"
     inkscape:current-layer="layer1"
     inkscape:document-rotation="0"
     showgrid="false"
     inkscape:window-width="1349"
     inkscape:window-height="1041"
     inkscape:window-x="555"
     inkscape:window-y="0"
     inkscape:window-maximized="0" />
  <metadata
     id="metadata3933">
    <rdf:RDF>
      <cc:Work
         rdf:about="">
        <dc:format>image/svg+xml</dc:format>
        <dc:type
           rdf:resource="http://purl.org/dc/dcmitype/StillImage" />
        <dc:title></dc:title>
      </cc:Work>
    </rdf:RDF>
  </metadata>
  <g
     inkscape:label="Layer 1"
     inkscape:groupmode="layer"
     id="layer1">
    <path
       id="path5573"
       style="fill:#ff0000;fill-opacity:1;stroke:none;stroke-width:0.244026;stroke-opacity:1"
       d="M 158.76591,35.591111 C 167.5896,38.898231 160.86716,54.181434 163.4283,62.383464 163.99781,82.386831 165.09647,102.36297 164.9461,122.38165 163.74862,126.80652 166.3833,136.29877 166.85612,135.2876 164.88457,139.49917 179.9295,139.15614 184.31128,138.4174 181.92172,135.01083 188.32346,135.96488 190.75727,134.54355 192.33635,136.44062 197.69803,137.18135 198.54573,133.69389 199.46876,131.98509 204.04085,132.42301 205.51478,131.87175 205.08252,136.86982 208.66848,130.43013 207.66934,134.64203 211.87989,132.89641 216.9284,133.86887 221.05355,136.06768 221.33193,139.64214 217.87189,142.53031 222.62831,145.26919 219.85371,149.97191 215.38211,140.39273 213.28439,144.31621 207.21527,144.77159 216.07632,146.91861 214.8006,149.75816 212.31605,145.02998 201.59461,151.94338 211.9379,149.57364 214.69614,150.41573 217.04958,155.48042 215.64758,157.55567 216.46013,160.03569 214.17508,160.91156 217.85715,160.17683 222.73127,160.9634 224.63562,168.52802 222.47839,172.49853 219.28324,170.93772 212.78245,176.01331 210.39851,174.48954 211.82945,178.688 212.63672,179.15217 215.99573,180.41989 213.94448,184.39028 211.1273,185.27152 208.1205,183.47551 209.58987,181.2586 198.50556,184.76687 204.83969,181.87037 207.23131,179.81837 213.22726,177.64042 208.86696,176.63765 208.63211,171.42975 204.53851,175.441 203.56282,175.40258 203.19301,176.89656 201.39496,179.61147 201.44582,182.18728 199.68424,179.59985 190.06257,177.98403 193.49932,183.28473 195.57777,180.77065 195.25888,183.09775 198.38534,183.00217 200.55712,184.24204 196.69926,178.9239 200.27573,183.54831 202.87039,184.32995 206.46888,184.40408 208.03145,186.38436 210.12212,186.37136 217.8449,186.98544 218.25159,188.20504 212.83334,192.09484 228.17336,191.45647 228.1099,195.61577 232.96516,192.94028 229.97836,205.4667 225.26517,199.11171 222.10456,203.41379 221.4888,203.82886 218.19924,201.17311 212.3991,199.54628 214.1505,198.84955 209.53241,200.91454 206.09391,203.86484 213.70496,208.82953 212.75427,205.11391 215.46569,198.5585 218.0433,208.69499 215.66071,211.68407 221.70013,214.75883 212.27741,219.26721 211.4081,215.4639 209.86846,222.75309 205.41427,216.81256 207.73906,215.27647 206.29145,210.0485 205.98741,222.10116 203.13625,216.15652 201.13376,218.0148 207.33778,225.51441 204.19462,226.58736 205.65629,228.31025 197.80282,234.92444 199.01639,229.18405 194.31398,228.52656 192.34651,227.25755 188.98622,231.14335 186.22963,229.10454 193.71964,238.11214 190.26407,240.55668 191.32704,237.17608 199.28014,239.45862 195.21561,241.7869 187.49034,239.4555 197.74112,247.79666 194.62526,248.53346 193.76771,251.78328 189.06922,252.56765 186.86582,248.76236 185.5471,247.76238 181.63515,250.73196 179.64524,248.75236 177.63828,249.29107 176.62078,244.69787 177.6598,250.20628 176.60527,254.01492 180.3089,252.61628 180.38706,253.48978 185.01571,251.38863 180.10605,256.27117 186.13894,254.85883 190.31262,256.75589 186.33926,270.26102 185.36784,260.48662 184.4262,266.13081 181.78027,270.6104 176.66378,266.35401 173.51753,268.14508 181.1018,272.76914 174.51033,270.6657 172.36492,276.16426 170.27269,278.20403 167.39087,282.79402 165.54839,275.52251 163.02892,286.65901 159.18682,283.90758 154.59566,284.43342 157.90106,272.28962 156.23387,272.23316 154.24257,276.7804 152.95902,268.38805 148.79845,271.90383 149.95982,270.21541 152.88425,261.52002 149.48765,263.8869 145.66793,270.36091 144.73271,256.04797 151.0364,257.51377 154.21782,254.85661 148.83338,257.43747 148.48573,253.04077 144.15564,252.60408 143.40667,250.22981 146.30156,246.97285 145.3056,244.50983 149.976,241.10814 149.40192,244.24284 154.2944,239.81595 143.57657,243.13927 146.62032,237.64924 146.74955,242.32117 136.09816,241.7669 141.03279,236.7255 139.34676,231.76166 147.98514,232.78981 143.49214,236.25078 140.4812,234.00846 145.28361,243.39898 145.23031,235.38184 146.61354,237.70681 147.42169,231.55051 146.50188,231.5625 150.74046,229.8484 153.91877,227.78208 157.09441,227.9868 158.23276,229.3907 165.03698,228.91604 160.30601,226.7511 157.36756,226.18735 152.90199,224.64822 150.28203,227.39881 147.9385,230.06244 145.09653,224.26081 144.35711,231.11197 141.5386,232.4251 144.81747,224.71956 140.07037,230.81881 133.81885,231.76687 142.71906,224.27877 141.85994,224.14897 134.73246,226.59189 139.03344,219.82691 143.18497,220.20211 145.84379,216.82284 149.86595,211.48566 152.55628,211.74281 154.07668,212.96947 168.05653,208.89407 158.53728,209.7552 154.56648,210.00002 154.20025,203.49519 152.91061,210.26518 151.39903,208.74475 149.21566,210.95761 146.82409,207.10469 143.74316,206.9096 143.12119,201.73332 141.62036,206.40857 138.4163,205.40229 135.21255,209.43515 133.87547,206.25224 131.66053,209.72796 129.5001,204.62669 128.21192,204.76614 133.51238,201.52817 129.53001,193.52168 135.97027,192.40848 140.30589,196.66557 139.46389,191.07357 135.73249,190.79467 137.49322,188.7421 138.75458,192.2675 138.19087,186.71903 131.2677,185.2838 130.91976,188.09569 129.28618,192.92983 124.277,193.56482 119.1872,192.44432 114.75068,192.74387 114.44565,187.93141 120.97018,186.67832 123.72297,186.51426 119.28687,183.64169 125.25823,183.35723 126.4803,182.92463 122.55663,189.3771 129.58277,183.42432 131.735,183.98209 127.36838,180.65666 135.60413,180.76926 134.71213,183.36251 138.29394,184.31383 142.43193,183.4978 146.6731,182.43378 151.73696,182.72563 155.38507,180.70094 157.72695,180.07561 162.32063,180.96007 163.61279,170.8627 160.02045,171.43417 154.91386,169.94854 154.5252,171.16396 149.60464,172.29895 155.43022,166.10146 144.36347,169.15655 142.64646,168.53697 141.57531,167.47534 139.60178,170.70327 137.5919,168.72193 133.64788,171.36568 132.21555,165.2498 128.48984,166.30643 129.79842,163.37555 135.39002,167.80006 133.2289,161.83345 137.16874,160.28377 138.55385,155.40172 142.0109,154.09795 141.40862,151.50705 139.37939,150.66245 135.45503,150.94656 132.84449,146.94947 145.31046,148.83782 139.96326,147.04085 137.78368,147.16191 142.67162,140.34587 143.75125,147.12545 147.08111,148.54973 143.59385,140.76172 147.36149,145.31411 151.24953,146.26219 150.72623,149.75592 154.28601,150.94393 158.07492,154.36846 161.16338,147.2428 155.40414,148.28806 155.67918,146.61686 151.8215,145.69022 158.60334,146.31362 163.08679,141.82352 159.41517,128.96082 159.99123,121.40622 159.51468,98.917331 158.85055,76.396944 156.37861,54.039874 157.31665,48.012641 153.58724,39.647381 154.64126,34.882901 156.02654,35.055001 157.39675,35.328891 158.76591,35.591091 Z M 165.14794,139.94777 C 166.88365,142.05328 162.67885,147.26681 169.28982,146.61478 172.17574,151.59685 178.6686,143.80426 179.34628,147.23715 184.99209,146.77137 183.20085,149.99728 184.70957,144.10852 192.79012,138.77062 175.74833,141.3557 171.98687,139.80547 170.18203,140.3063 165.93971,137.74716 165.14794,139.94777 Z M 209.79868,158.2343 C 209.01482,163.49629 213.90371,162.62669 214.28544,158.70647 212.35093,159.65409 210.75194,157.63876 209.79868,158.2343 Z"
       sodipodi:nodetypes="scccccccccccccccccccccccccccccccccccccccccccccccccccccccccccccccccccccccccccccccccccccccccccccccccccccccccccssccccccccc" />
  </g>
</svg>
